SplineFontDB: 3.0
FontName: SpurceSans-Regular
FullName: Spurce Sans Regular
FamilyName: Spurce Sans
Weight: Regular
Copyright: Copyright 2020 Nicholas Auler, with fontname Spurce\n\nBased on Source Sans, Copyright 2010, 2012, 2014 Adobe Systems Incorporated (http://www.adobe.com/), with Reserved Font Name `Source'.
UComments: "This font is still in beta. If you find any issues, contact me at nicholas.auler@gmail.com+AAoA"
Version: 0.6
ItalicAngle: 0
UnderlinePosition: -100
UnderlineWidth: 50
Ascent: 750
Descent: 250
InvalidEm: 0
sfntRevision: 0x0000999a
LayerCount: 2
Layer: 0 1 "Back" 1
Layer: 1 1 "Fore" 0
XUID: [1021 316 771282308 7388]
StyleMap: 0x0040
FSType: 0
OS2Version: 3
OS2_WeightWidthSlopeOnly: 0
OS2_UseTypoMetrics: 0
CreationTime: 1441032314
ModificationTime: 1588187387
PfmFamily: 33
TTFWeight: 400
TTFWidth: 5
LineGap: 0
VLineGap: 0
Panose: 2 11 5 3 3 4 3 2 2 4
OS2TypoAscent: 750
OS2TypoAOffset: 0
OS2TypoDescent: -250
OS2TypoDOffset: 0
OS2TypoLinegap: 0
OS2WinAscent: 984
OS2WinAOffset: 0
OS2WinDescent: 273
OS2WinDOffset: 0
HheadAscent: 984
HheadAOffset: 0
HheadDescent: -273
HheadDOffset: 0
OS2SubXSize: 650
OS2SubYSize: 600
OS2SubXOff: 0
OS2SubYOff: 75
OS2SupXSize: 650
OS2SupYSize: 600
OS2SupXOff: 0
OS2SupYOff: 350
OS2StrikeYSize: 50
OS2StrikeYPos: 291
OS2CapHeight: 660
OS2XHeight: 486
OS2Vendor: '    '
OS2CodePages: 2000019f.00000000
OS2UnicodeRanges: 600002f7.02000001.00000000.00000000
Lookup: 1 0 0 "'aalt' Access All Alternates lookup 0" { "'aalt' Access All Alternates lookup 0 subtable"  } ['aalt' ('DFLT' <'dflt' > 'cyrl' <'SRB ' 'dflt' > 'grek' <'dflt' > 'latn' <'AZE ' 'CRT ' 'NSM ' 'SKS ' 'TRK ' 'dflt' > ) ]
Lookup: 3 0 0 "'aalt' Access All Alternates lookup 1" { "'aalt' Access All Alternates lookup 1 subtable"  } ['aalt' ('DFLT' <'dflt' > 'cyrl' <'SRB ' 'dflt' > 'grek' <'dflt' > 'latn' <'AZE ' 'CRT ' 'NSM ' 'SKS ' 'TRK ' 'dflt' > ) ]

StartChar: .notdef
Encoding: 1114112 -1 0
Width: 653
Flags: W
LayerCount: 2
Fore
SplineSet
89 0 m 1,0,-1
 89 660 l 1,1,-1
 565 660 l 1,2,-1
 565 0 l 1,3,-1
 89 0 l 1,0,-1
197 58 m 1,4,-1
 454 58 l 1,5,-1
 381 190 l 1,6,-1
 329 293 l 1,7,-1
 325 293 l 1,8,-1
 271 190 l 1,9,-1
 197 58 l 1,4,-1
325 387 m 1,10,-1
 329 387 l 1,11,-1
 378 481 l 1,12,-1
 444 600 l 1,13,-1
 209 600 l 1,14,-1
 275 481 l 1,15,-1
 325 387 l 1,10,-1
154 110 m 1,16,-1
 281 340 l 1,17,-1
 154 572 l 1,18,-1
 154 110 l 1,16,-1
498 110 m 1,19,-1
 498 572 l 1,20,-1
 372 340 l 1,21,-1
 498 110 l 1,19,-1
EndSplineSet
Validated: 1
EndChar

StartChar: A
Encoding: 65 65 2
Width: 544
GlyphClass: 2
Flags: W
AnchorPoint: "Anchor-8" 466 0 basechar 0
AnchorPoint: "Anchor-4" 270 -22 basechar 0
AnchorPoint: "Anchor-1" 270 678 basechar 0
LayerCount: 2
Fore
SplineSet
203 367 m 2,0,-1
 172 267 l 1,1,-1
 369 267 l 1,2,-1
 338 367 l 2,3,4
 320 422 320 422 304 476.5 c 128,-1,5
 288 531 288 531 272 588 c 1,6,-1
 268 588 l 1,7,8
 253 531 253 531 237 476.5 c 128,-1,9
 221 422 221 422 203 367 c 2,0,-1
3 0 m 1,10,-1
 225 656 l 1,11,-1
 319 656 l 1,12,-1
 541 0 l 1,13,-1
 452 0 l 1,14,-1
 390 200 l 1,15,-1
 151 200 l 1,16,-1
 88 0 l 1,17,-1
 3 0 l 1,10,-1
EndSplineSet
Validated: 1
Substitution2: "'sups' Superscript lookup 27 subtable" A.sups
Substitution2: "'c2sc' Capitals to Small Capitals lookup 17 subtable" A.sc
AlternateSubs2: "'aalt' Access All Alternates lookup 1 subtable" A.sc A.sups
EndChar

StartChar: B
Encoding: 66 66 3
Width: 588
GlyphClass: 2
Flags: W
AnchorPoint: "Anchor-4" 302 -22 basechar 0
AnchorPoint: "Anchor-1" 287 678 basechar 0
LayerCount: 2
Fore
SplineSet
90 0 m 1,0,-1
 90 656 l 1,1,-1
 285 656 l 2,2,3
 335 656 335 656 376.5 647 c 128,-1,4
 418 638 418 638 447.5 619 c 128,-1,5
 477 600 477 600 493.5 569.5 c 128,-1,6
 510 539 510 539 510 496 c 0,7,8
 510 447 510 447 485.5 407.5 c 128,-1,9
 461 368 461 368 414 353 c 1,10,-1
 414 349 l 1,11,12
 474 338 474 338 511 299 c 128,-1,13
 548 260 548 260 548 192 c 0,14,15
 548 144 548 144 530 108 c 128,-1,16
 512 72 512 72 479 48 c 128,-1,17
 446 24 446 24 400 12 c 128,-1,18
 354 0 354 0 299 0 c 2,19,-1
 90 0 l 1,0,-1
173 377 m 1,20,-1
 270 377 l 2,21,22
 354 377 354 377 391 406 c 128,-1,23
 428 435 428 435 428 485 c 0,24,25
 428 542 428 542 389.5 566 c 128,-1,26
 351 590 351 590 274 590 c 2,27,-1
 173 590 l 1,28,-1
 173 377 l 1,20,-1
173 66 m 1,29,-1
 287 66 l 2,30,31
 372 66 372 66 419 97.5 c 128,-1,32
 466 129 466 129 466 195 c 0,33,34
 466 256 466 256 420 284.5 c 128,-1,35
 374 313 374 313 287 313 c 2,36,-1
 173 313 l 1,37,-1
 173 66 l 1,29,-1
EndSplineSet
Validated: 1
Substitution2: "'sups' Superscript lookup 27 subtable" B.sups
Substitution2: "'c2sc' Capitals to Small Capitals lookup 17 subtable" B.sc
AlternateSubs2: "'aalt' Access All Alternates lookup 1 subtable" B.sc B.sups
EndChar

StartChar: C
Encoding: 67 67 4
Width: 571
GlyphClass: 2
Flags: W
AnchorPoint: "Anchor-4" 343 -22 basechar 0
AnchorPoint: "Anchor-3" 343 0 basechar 0
AnchorPoint: "Anchor-1" 329 678 basechar 0
LayerCount: 2
Fore
SplineSet
338 -12 m 0,0,1
 276 -12 276 -12 224 11 c 128,-1,2
 172 34 172 34 133.5 77.5 c 128,-1,3
 95 121 95 121 73.5 184.5 c 128,-1,4
 52 248 52 248 52 328 c 0,5,6
 52 407 52 407 74 470 c 128,-1,7
 96 533 96 533 135 577 c 128,-1,8
 174 621 174 621 227 644.5 c 128,-1,9
 280 668 280 668 343 668 c 0,10,11
 403 668 403 668 448.5 643.5 c 128,-1,12
 494 619 494 619 523 587 c 1,13,-1
 478 533 l 1,14,15
 452 561 452 561 419 578 c 128,-1,16
 386 595 386 595 344 595 c 0,17,18
 297 595 297 595 259 576.5 c 128,-1,19
 221 558 221 558 194 523.5 c 128,-1,20
 167 489 167 489 152.5 440 c 128,-1,21
 138 391 138 391 138 330 c 0,22,23
 138 268 138 268 152.5 218.5 c 128,-1,24
 167 169 167 169 193 134 c 128,-1,25
 219 99 219 99 256.5 80 c 128,-1,26
 294 61 294 61 341 61 c 0,27,28
 389 61 389 61 425 80.5 c 128,-1,29
 461 100 461 100 493 135 c 1,30,-1
 539 83 l 1,31,32
 500 38 500 38 451 13 c 128,-1,33
 402 -12 402 -12 338 -12 c 0,0,1
EndSplineSet
Validated: 1
Substitution2: "'sups' Superscript lookup 27 subtable" C.sups
Substitution2: "'c2sc' Capitals to Small Capitals lookup 17 subtable" C.sc
AlternateSubs2: "'aalt' Access All Alternates lookup 1 subtable" C.sc C.sups
EndChar

StartChar: D
Encoding: 68 68 5
Width: 615
GlyphClass: 2
Flags: W
AnchorPoint: "Anchor-4" 305 -22 basechar 0
AnchorPoint: "Anchor-1" 308 678 basechar 0
LayerCount: 2
Fore
SplineSet
90 0 m 1,0,-1
 90 656 l 1,1,-1
 254 656 l 2,2,3
 406 656 406 656 485 572 c 128,-1,4
 564 488 564 488 564 331 c 0,5,6
 564 253 564 253 544 191.5 c 128,-1,7
 524 130 524 130 485 87.5 c 128,-1,8
 446 45 446 45 389 22.5 c 128,-1,9
 332 0 332 0 258 0 c 2,10,-1
 90 0 l 1,0,-1
173 68 m 1,11,-1
 248 68 l 2,12,13
 363 68 363 68 420.5 137 c 128,-1,14
 478 206 478 206 478 331 c 256,15,16
 478 456 478 456 420.5 522 c 128,-1,17
 363 588 363 588 248 588 c 2,18,-1
 173 588 l 1,19,-1
 173 68 l 1,11,-1
EndSplineSet
Validated: 1
Substitution2: "'sups' Superscript lookup 27 subtable" D.sups
Substitution2: "'c2sc' Capitals to Small Capitals lookup 17 subtable" D.sc
AlternateSubs2: "'aalt' Access All Alternates lookup 1 subtable" D.sc D.sups
EndChar

StartChar: E
Encoding: 69 69 6
Width: 527
GlyphClass: 2
Flags: W
AnchorPoint: "Anchor-8" 388 0 basechar 0
AnchorPoint: "Anchor-4" 298 -22 basechar 0
AnchorPoint: "Anchor-1" 285 678 basechar 0
LayerCount: 2
Fore
SplineSet
90 0 m 1,0,-1
 90 656 l 1,1,-1
 468 656 l 1,2,-1
 468 586 l 1,3,-1
 173 586 l 1,4,-1
 173 380 l 1,5,-1
 422 380 l 1,6,-1
 422 309 l 1,7,-1
 173 309 l 1,8,-1
 173 71 l 1,9,-1
 478 71 l 1,10,-1
 478 0 l 1,11,-1
 90 0 l 1,0,-1
EndSplineSet
Validated: 1
Substitution2: "'sups' Superscript lookup 27 subtable" E.sups
Substitution2: "'c2sc' Capitals to Small Capitals lookup 17 subtable" E.sc
AlternateSubs2: "'aalt' Access All Alternates lookup 1 subtable" E.sc E.sups
EndChar

StartChar: F
Encoding: 70 70 7
Width: 494
GlyphClass: 2
Flags: W
AnchorPoint: "Anchor-4" 135 -22 basechar 0
AnchorPoint: "Anchor-1" 286 678 basechar 0
LayerCount: 2
Fore
SplineSet
90 0 m 1,0,-1
 90 656 l 1,1,-1
 468 656 l 1,2,-1
 468 586 l 1,3,-1
 173 586 l 1,4,-1
 173 364 l 1,5,-1
 423 364 l 1,6,-1
 423 294 l 1,7,-1
 173 294 l 1,8,-1
 173 0 l 1,9,-1
 90 0 l 1,0,-1
EndSplineSet
Validated: 1
Substitution2: "'sups' Superscript lookup 27 subtable" F.sups
Substitution2: "'c2sc' Capitals to Small Capitals lookup 17 subtable" F.sc
AlternateSubs2: "'aalt' Access All Alternates lookup 1 subtable" F.sc F.sups
EndChar

StartChar: G
Encoding: 71 71 8
Width: 617
GlyphClass: 2
Flags: W
AnchorPoint: "Anchor-4" 348 -22 basechar 0
AnchorPoint: "Anchor-1" 353 678 basechar 0
LayerCount: 2
Fore
SplineSet
348 -12 m 0,0,1
 283 -12 283 -12 228.5 11 c 128,-1,2
 174 34 174 34 135 77.5 c 128,-1,3
 96 121 96 121 74 184.5 c 128,-1,4
 52 248 52 248 52 328 c 0,5,6
 52 407 52 407 74.5 470 c 128,-1,7
 97 533 97 533 137 577 c 128,-1,8
 177 621 177 621 232.5 644.5 c 128,-1,9
 288 668 288 668 353 668 c 0,10,11
 387 668 387 668 415.5 661 c 128,-1,12
 444 654 444 654 467.5 642.5 c 128,-1,13
 491 631 491 631 509.5 616.5 c 128,-1,14
 528 602 528 602 542 587 c 1,15,-1
 496 533 l 1,16,17
 471 559 471 559 438 577 c 128,-1,18
 405 595 405 595 355 595 c 256,19,20
 305 595 305 595 265 576.5 c 128,-1,21
 225 558 225 558 197 523.5 c 128,-1,22
 169 489 169 489 153.5 440 c 128,-1,23
 138 391 138 391 138 330 c 0,24,25
 138 268 138 268 152.5 218.5 c 128,-1,26
 167 169 167 169 194.5 134 c 128,-1,27
 222 99 222 99 262.5 80 c 128,-1,28
 303 61 303 61 356 61 c 0,29,30
 391 61 391 61 422.5 71.5 c 128,-1,31
 454 82 454 82 474 100 c 1,32,-1
 474 271 l 1,33,-1
 335 271 l 1,34,-1
 335 340 l 1,35,-1
 550 340 l 1,36,-1
 550 64 l 1,37,38
 518 31 518 31 466 9.5 c 128,-1,39
 414 -12 414 -12 348 -12 c 0,0,1
EndSplineSet
Validated: 1
Substitution2: "'sups' Superscript lookup 27 subtable" G.sups
Substitution2: "'c2sc' Capitals to Small Capitals lookup 17 subtable" G.sc
AlternateSubs2: "'aalt' Access All Alternates lookup 1 subtable" G.sc G.sups
EndChar

StartChar: H
Encoding: 72 72 9
Width: 652
GlyphClass: 2
Flags: W
AnchorPoint: "Anchor-4" 325 -22 basechar 0
AnchorPoint: "Anchor-1" 325 678 basechar 0
LayerCount: 2
Fore
SplineSet
90 0 m 1,0,-1
 90 656 l 1,1,-1
 173 656 l 1,2,-1
 173 381 l 1,3,-1
 478 381 l 1,4,-1
 478 656 l 1,5,-1
 562 656 l 1,6,-1
 562 0 l 1,7,-1
 478 0 l 1,8,-1
 478 309 l 1,9,-1
 173 309 l 1,10,-1
 173 0 l 1,11,-1
 90 0 l 1,0,-1
EndSplineSet
Validated: 1
Substitution2: "'sups' Superscript lookup 27 subtable" H.sups
Substitution2: "'c2sc' Capitals to Small Capitals lookup 17 subtable" H.sc
AlternateSubs2: "'aalt' Access All Alternates lookup 1 subtable" H.sc H.sups
EndChar

StartChar: I
Encoding: 73 73 10
Width: 343
GlyphClass: 2
Flags: W
LayerCount: 2
Fore
SplineSet
46 0 m 1,0,-1
 46 71 l 1,1,-1
 130 71 l 1,2,-1
 130 586 l 1,3,-1
 46 586 l 1,4,-1
 46 656 l 1,5,-1
 296 656 l 1,6,-1
 296 586 l 1,7,-1
 213 586 l 1,8,-1
 213 71 l 1,9,-1
 296 71 l 1,10,-1
 296 0 l 1,11,-1
 46 0 l 1,0,-1
EndSplineSet
Validated: 1
Substitution2: "'ss04' Style Set 4 lookup 43 subtable" I.a
Substitution2: "'sups' Superscript lookup 27 subtable" I.sups
Substitution2: "'c2sc' Capitals to Small Capitals lookup 17 subtable" I.sc
AlternateSubs2: "'aalt' Access All Alternates lookup 1 subtable" I.sc I.sups I.a
EndChar

StartChar: J
Encoding: 74 74 11
Width: 480
GlyphClass: 2
Flags: W
AnchorPoint: "Anchor-4" 253 -22 basechar 0
AnchorPoint: "Anchor-1" 348 678 basechar 0
LayerCount: 2
Fore
SplineSet
212 -12 m 0,0,1
 89 -12 89 -12 31 93 c 1,2,-1
 91 135 l 1,3,4
 113 96 113 96 141 78.5 c 128,-1,5
 169 61 169 61 204 61 c 0,6,7
 257 61 257 61 283 93.5 c 128,-1,8
 309 126 309 126 309 201 c 2,9,-1
 309 656 l 1,10,-1
 393 656 l 1,11,-1
 393 193 l 2,12,13
 393 151 393 151 382.5 113.5 c 128,-1,14
 372 76 372 76 350.5 48 c 128,-1,15
 329 20 329 20 294.5 4 c 128,-1,16
 260 -12 260 -12 212 -12 c 0,0,1
EndSplineSet
Validated: 1
Substitution2: "'sups' Superscript lookup 27 subtable" J.sups
Substitution2: "'c2sc' Capitals to Small Capitals lookup 17 subtable" J.sc
AlternateSubs2: "'aalt' Access All Alternates lookup 1 subtable" J.sc J.sups
EndChar

StartChar: K
Encoding: 75 75 12
Width: 579
GlyphClass: 2
Flags: W
AnchorPoint: "Anchor-4" 328 -22 basechar 0
AnchorPoint: "Anchor-1" 311 678 basechar 0
LayerCount: 2
Fore
SplineSet
90 0 m 1,0,-1
 90 656 l 1,1,-1
 173 656 l 1,2,-1
 173 327 l 1,3,-1
 176 327 l 1,4,-1
 449 656 l 1,5,-1
 543 656 l 1,6,-1
 338 406 l 1,7,-1
 575 0 l 1,8,-1
 482 0 l 1,9,-1
 286 341 l 1,10,-1
 173 208 l 1,11,-1
 173 0 l 1,12,-1
 90 0 l 1,0,-1
EndSplineSet
Validated: 1
Substitution2: "'sups' Superscript lookup 27 subtable" K.sups
Substitution2: "'c2sc' Capitals to Small Capitals lookup 17 subtable" K.sc
AlternateSubs2: "'aalt' Access All Alternates lookup 1 subtable" K.sc K.sups
EndChar

StartChar: L
Encoding: 76 76 13
Width: 486
GlyphClass: 2
Flags: W
AnchorPoint: "Anchor-4" 289 -22 basechar 0
AnchorPoint: "Anchor-1" 133 678 basechar 0
LayerCount: 2
Fore
SplineSet
90 0 m 1,0,-1
 90 656 l 1,1,-1
 173 656 l 1,2,-1
 173 71 l 1,3,-1
 460 71 l 1,4,-1
 460 0 l 1,5,-1
 90 0 l 1,0,-1
EndSplineSet
Validated: 1
Substitution2: "'sups' Superscript lookup 27 subtable" L.sups
Substitution2: "'c2sc' Capitals to Small Capitals lookup 17 subtable" L.sc
AlternateSubs2: "'aalt' Access All Alternates lookup 1 subtable" L.sc L.sups
EndChar

StartChar: M
Encoding: 77 77 14
Width: 727
GlyphClass: 2
Flags: W
AnchorPoint: "Anchor-4" 365 -22 basechar 0
AnchorPoint: "Anchor-1" 363 678 basechar 0
LayerCount: 2
Fore
SplineSet
90 0 m 1,0,-1
 90 656 l 1,1,-1
 190 656 l 1,2,-1
 316 306 l 2,3,4
 328 272 328 272 339.5 237.5 c 128,-1,5
 351 203 351 203 363 169 c 1,6,-1
 367 169 l 1,7,8
 379 203 379 203 389.5 237.5 c 128,-1,9
 400 272 400 272 412 306 c 2,10,-1
 536 656 l 1,11,-1
 637 656 l 1,12,-1
 637 0 l 1,13,-1
 559 0 l 1,14,-1
 559 361 l 2,15,16
 559 405 559 405 563 458 c 128,-1,17
 567 511 567 511 570 555 c 1,18,-1
 566 555 l 1,19,-1
 514 406 l 1,20,-1
 390 66 l 1,21,-1
 335 66 l 1,22,-1
 211 406 l 1,23,-1
 159 555 l 1,24,-1
 155 555 l 1,25,26
 158 511 158 511 161.5 458 c 128,-1,27
 165 405 165 405 165 361 c 2,28,-1
 165 0 l 1,29,-1
 90 0 l 1,0,-1
EndSplineSet
Validated: 1
Substitution2: "'sups' Superscript lookup 27 subtable" M.sups
Substitution2: "'c2sc' Capitals to Small Capitals lookup 17 subtable" M.sc
AlternateSubs2: "'aalt' Access All Alternates lookup 1 subtable" M.sc M.sups
EndChar

StartChar: N
Encoding: 78 78 15
Width: 647
GlyphClass: 2
Flags: W
AnchorPoint: "Anchor-4" 327 -22 basechar 0
AnchorPoint: "Anchor-1" 327 678 basechar 0
LayerCount: 2
Fore
SplineSet
90 0 m 1,0,-1
 90 656 l 1,1,-1
 176 656 l 1,2,-1
 413 244 l 1,3,-1
 484 108 l 1,4,-1
 488 108 l 1,5,6
 485 158 485 158 481.5 211.5 c 128,-1,7
 478 265 478 265 478 317 c 2,8,-1
 478 656 l 1,9,-1
 557 656 l 1,10,-1
 557 0 l 1,11,-1
 471 0 l 1,12,-1
 233 413 l 1,13,-1
 162 548 l 1,14,-1
 158 548 l 1,15,16
 162 498 162 498 165.5 446.5 c 128,-1,17
 169 395 169 395 169 343 c 2,18,-1
 169 0 l 1,19,-1
 90 0 l 1,0,-1
EndSplineSet
Validated: 1
Substitution2: "'sups' Superscript lookup 27 subtable" N.sups
Substitution2: "'c2sc' Capitals to Small Capitals lookup 17 subtable" N.sc
AlternateSubs2: "'aalt' Access All Alternates lookup 1 subtable" N.sc N.sups
EndChar

StartChar: O
Encoding: 79 79 16
Width: 664
GlyphClass: 2
Flags: W
AnchorPoint: "Anchor-8" 332 0 basechar 0
AnchorPoint: "Anchor-6" 469 646 basechar 0
AnchorPoint: "Anchor-4" 332 -22 basechar 0
AnchorPoint: "Anchor-1" 332 678 basechar 0
LayerCount: 2
Fore
SplineSet
332 -12 m 256,0,1
 270 -12 270 -12 218.5 12 c 128,-1,2
 167 36 167 36 130 80.5 c 128,-1,3
 93 125 93 125 72.5 188.5 c 128,-1,4
 52 252 52 252 52 331 c 256,5,6
 52 410 52 410 72.5 472.5 c 128,-1,7
 93 535 93 535 130 578.5 c 128,-1,8
 167 622 167 622 218.5 645 c 128,-1,9
 270 668 270 668 332 668 c 256,10,11
 394 668 394 668 445.5 644.5 c 128,-1,12
 497 621 497 621 534.5 577.5 c 128,-1,13
 572 534 572 534 592.5 471.5 c 128,-1,14
 613 409 613 409 613 331 c 0,15,16
 613 252 613 252 592.5 188.5 c 128,-1,17
 572 125 572 125 534.5 80.5 c 128,-1,18
 497 36 497 36 445.5 12 c 128,-1,19
 394 -12 394 -12 332 -12 c 256,0,1
332 61 m 256,20,21
 376 61 376 61 411.5 80 c 128,-1,22
 447 99 447 99 472.5 134.5 c 128,-1,23
 498 170 498 170 512 219.5 c 128,-1,24
 526 269 526 269 526 331 c 0,25,26
 526 392 526 392 512 441 c 128,-1,27
 498 490 498 490 472.5 524 c 128,-1,28
 447 558 447 558 411.5 576.5 c 128,-1,29
 376 595 376 595 332 595 c 256,30,31
 288 595 288 595 252.5 576.5 c 128,-1,32
 217 558 217 558 191.5 524 c 128,-1,33
 166 490 166 490 152 441 c 128,-1,34
 138 392 138 392 138 331 c 0,35,36
 138 269 138 269 152 219.5 c 128,-1,37
 166 170 166 170 191.5 134.5 c 128,-1,38
 217 99 217 99 252.5 80 c 128,-1,39
 288 61 288 61 332 61 c 256,20,21
EndSplineSet
Validated: 1
Substitution2: "'sups' Superscript lookup 27 subtable" O.sups
Substitution2: "'c2sc' Capitals to Small Capitals lookup 17 subtable" O.sc
AlternateSubs2: "'aalt' Access All Alternates lookup 1 subtable" O.sc O.sups
EndChar

StartChar: P
Encoding: 80 80 17
Width: 566
GlyphClass: 2
Flags: W
AnchorPoint: "Anchor-4" 137 -22 basechar 0
AnchorPoint: "Anchor-1" 303 678 basechar 0
LayerCount: 2
Fore
SplineSet
90 0 m 1,0,-1
 90 656 l 1,1,-1
 277 656 l 2,2,3
 332 656 332 656 377.5 646 c 128,-1,4
 423 636 423 636 455 613.5 c 128,-1,5
 487 591 487 591 505 554 c 128,-1,6
 523 517 523 517 523 463 c 0,7,8
 523 411 523 411 505.5 373 c 128,-1,9
 488 335 488 335 456 310 c 128,-1,10
 424 285 424 285 379.5 272.5 c 128,-1,11
 335 260 335 260 281 260 c 2,12,-1
 173 260 l 1,13,-1
 173 0 l 1,14,-1
 90 0 l 1,0,-1
173 328 m 1,15,-1
 271 328 l 2,16,17
 357 328 357 328 398.5 360.5 c 128,-1,18
 440 393 440 393 440 463 c 0,19,20
 440 534 440 534 396.5 561.5 c 128,-1,21
 353 589 353 589 267 589 c 2,22,-1
 173 589 l 1,23,-1
 173 328 l 1,15,-1
EndSplineSet
Validated: 1
Substitution2: "'sups' Superscript lookup 27 subtable" P.sups
Substitution2: "'c2sc' Capitals to Small Capitals lookup 17 subtable" P.sc
AlternateSubs2: "'aalt' Access All Alternates lookup 1 subtable" P.sc P.sups
EndChar

StartChar: Q
Encoding: 81 81 18
Width: 664
GlyphClass: 2
Flags: W
AnchorPoint: "Anchor-1" 332 678 basechar 0
LayerCount: 2
Fore
SplineSet
332 57 m 256,0,1
 376 57 376 57 411.5 76 c 128,-1,2
 447 95 447 95 472.5 131 c 128,-1,3
 498 167 498 167 512 217.5 c 128,-1,4
 526 268 526 268 526 331 c 0,5,6
 526 392 526 392 512 441 c 128,-1,7
 498 490 498 490 472.5 524 c 128,-1,8
 447 558 447 558 411.5 576.5 c 128,-1,9
 376 595 376 595 332 595 c 256,10,11
 288 595 288 595 252.5 576.5 c 128,-1,12
 217 558 217 558 191.5 524 c 128,-1,13
 166 490 166 490 152 441 c 128,-1,14
 138 392 138 392 138 331 c 0,15,16
 138 268 138 268 152 217.5 c 128,-1,17
 166 167 166 167 191.5 131 c 128,-1,18
 217 95 217 95 252.5 76 c 128,-1,19
 288 57 288 57 332 57 c 256,0,1
533 -165 m 0,20,21
 488 -165 488 -165 449.5 -153.5 c 128,-1,22
 411 -142 411 -142 380.5 -121 c 128,-1,23
 350 -100 350 -100 327.5 -71.5 c 128,-1,24
 305 -43 305 -43 291 -9 c 1,25,26
 237 -2 237 -2 193 25 c 128,-1,27
 149 52 149 52 117.5 96 c 128,-1,28
 86 140 86 140 69 199.5 c 128,-1,29
 52 259 52 259 52 331 c 0,30,31
 52 410 52 410 72.5 472.5 c 128,-1,32
 93 535 93 535 130 578.5 c 128,-1,33
 167 622 167 622 218.5 645 c 128,-1,34
 270 668 270 668 332 668 c 256,35,36
 394 668 394 668 445.5 644.5 c 128,-1,37
 497 621 497 621 534.5 577.5 c 128,-1,38
 572 534 572 534 592.5 471.5 c 128,-1,39
 613 409 613 409 613 331 c 0,40,41
 613 260 613 260 596.5 201.5 c 128,-1,42
 580 143 580 143 549.5 99.5 c 128,-1,43
 519 56 519 56 476 28.5 c 128,-1,44
 433 1 433 1 381 -8 c 1,45,46
 404 -52 404 -52 446 -73.5 c 128,-1,47
 488 -95 488 -95 542 -95 c 0,48,49
 564 -95 564 -95 580.5 -92.5 c 128,-1,50
 597 -90 597 -90 611 -86 c 1,51,-1
 627 -150 l 1,52,53
 612 -156 612 -156 587 -160.5 c 128,-1,54
 562 -165 562 -165 533 -165 c 0,20,21
EndSplineSet
Validated: 1
Substitution2: "'sups' Superscript lookup 27 subtable" Q.sups
Substitution2: "'c2sc' Capitals to Small Capitals lookup 17 subtable" Q.sc
AlternateSubs2: "'aalt' Access All Alternates lookup 1 subtable" Q.sc Q.sups
EndChar

StartChar: R
Encoding: 82 82 19
Width: 569
GlyphClass: 2
Flags: W
AnchorPoint: "Anchor-4" 310 -22 basechar 0
AnchorPoint: "Anchor-1" 295 678 basechar 0
LayerCount: 2
Fore
SplineSet
90 0 m 1,0,-1
 90 656 l 1,1,-1
 295 656 l 2,2,3
 345 656 345 656 387.5 646.5 c 128,-1,4
 430 637 430 637 460.5 615 c 128,-1,5
 491 593 491 593 508 558 c 128,-1,6
 525 523 525 523 525 472 c 0,7,8
 525 395 525 395 485 349 c 128,-1,9
 445 303 445 303 377 286 c 1,10,-1
 544 0 l 1,11,-1
 450 0 l 1,12,-1
 292 277 l 1,13,-1
 173 277 l 1,14,-1
 173 0 l 1,15,-1
 90 0 l 1,0,-1
173 345 m 1,16,-1
 283 345 l 2,17,18
 360 345 360 345 401 376.5 c 128,-1,19
 442 408 442 408 442 472 c 0,20,21
 442 537 442 537 401 563 c 128,-1,22
 360 589 360 589 283 589 c 2,23,-1
 173 589 l 1,24,-1
 173 345 l 1,16,-1
EndSplineSet
Validated: 1
Substitution2: "'sups' Superscript lookup 27 subtable" R.sups
Substitution2: "'c2sc' Capitals to Small Capitals lookup 17 subtable" R.sc
AlternateSubs2: "'aalt' Access All Alternates lookup 1 subtable" R.sc R.sups
EndChar

StartChar: S
Encoding: 83 83 20
Width: 534
GlyphClass: 2
Flags: W
AnchorPoint: "Anchor-4" 273 -22 basechar 0
AnchorPoint: "Anchor-3" 273 0 basechar 0
AnchorPoint: "Anchor-1" 278 678 basechar 0
LayerCount: 2
Fore
SplineSet
272 -12 m 0,0,1
 203 -12 203 -12 144 14 c 128,-1,2
 85 40 85 40 42 85 c 1,3,-1
 92 143 l 1,4,5
 127 106 127 106 174.5 83.5 c 128,-1,6
 222 61 222 61 273 61 c 0,7,8
 338 61 338 61 374 90.5 c 128,-1,9
 410 120 410 120 410 168 c 0,10,11
 410 193 410 193 401.5 210.5 c 128,-1,12
 393 228 393 228 378.5 240.5 c 128,-1,13
 364 253 364 253 344 263 c 128,-1,14
 324 273 324 273 301 284 c 2,15,-1
 207 325 l 2,16,17
 184 335 184 335 160 349 c 128,-1,18
 136 363 136 363 117 383 c 128,-1,19
 98 403 98 403 86 430.5 c 128,-1,20
 74 458 74 458 74 494 c 0,21,22
 74 531 74 531 89.5 563 c 128,-1,23
 105 595 105 595 132.5 618.5 c 128,-1,24
 160 642 160 642 197.5 655 c 128,-1,25
 235 668 235 668 280 668 c 0,26,27
 339 668 339 668 389 645.5 c 128,-1,28
 439 623 439 623 474 587 c 1,29,-1
 429 533 l 1,30,31
 399 562 399 562 362.5 578.5 c 128,-1,32
 326 595 326 595 280 595 c 0,33,34
 225 595 225 595 191.5 569.5 c 128,-1,35
 158 544 158 544 158 499 c 0,36,37
 158 475 158 475 167.5 458.5 c 128,-1,38
 177 442 177 442 193 429.5 c 128,-1,39
 209 417 209 417 228 407.5 c 128,-1,40
 247 398 247 398 267 390 c 2,41,-1
 360 350 l 2,42,43
 388 338 388 338 413 322.5 c 128,-1,44
 438 307 438 307 456 286.5 c 128,-1,45
 474 266 474 266 484.5 238.5 c 128,-1,46
 495 211 495 211 495 175 c 0,47,48
 495 136 495 136 479.5 102 c 128,-1,49
 464 68 464 68 435 42.5 c 128,-1,50
 406 17 406 17 365 2.5 c 128,-1,51
 324 -12 324 -12 272 -12 c 0,0,1
EndSplineSet
Validated: 1
Substitution2: "'sups' Superscript lookup 27 subtable" S.sups
Substitution2: "'c2sc' Capitals to Small Capitals lookup 17 subtable" S.sc
AlternateSubs2: "'aalt' Access All Alternates lookup 1 subtable" S.sc S.sups
EndChar

StartChar: T
Encoding: 84 84 21
Width: 536
GlyphClass: 2
Flags: W
AnchorPoint: "Anchor-4" 268 -22 basechar 0
AnchorPoint: "Anchor-3" 268 0 basechar 0
AnchorPoint: "Anchor-1" 267 678 basechar 0
LayerCount: 2
Fore
SplineSet
226 0 m 1,0,-1
 226 586 l 1,1,-1
 28 586 l 1,2,-1
 28 656 l 1,3,-1
 508 656 l 1,4,-1
 508 586 l 1,5,-1
 310 586 l 1,6,-1
 310 0 l 1,7,-1
 226 0 l 1,0,-1
EndSplineSet
Validated: 1
Substitution2: "'sups' Superscript lookup 27 subtable" T.sups
Substitution2: "'c2sc' Capitals to Small Capitals lookup 17 subtable" T.sc
AlternateSubs2: "'aalt' Access All Alternates lookup 1 subtable" T.sc T.sups
EndChar

StartChar: U
Encoding: 85 85 22
Width: 645
GlyphClass: 2
Flags: W
AnchorPoint: "Anchor-8" 322 0 basechar 0
AnchorPoint: "Anchor-6" 525 666 basechar 0
AnchorPoint: "Anchor-4" 322 -22 basechar 0
AnchorPoint: "Anchor-1" 322 678 basechar 0
LayerCount: 2
Fore
SplineSet
323 -12 m 256,0,1
 273 -12 273 -12 229.5 2.5 c 128,-1,2
 186 17 186 17 154.5 50.5 c 128,-1,3
 123 84 123 84 105 138 c 128,-1,4
 87 192 87 192 87 271 c 2,5,-1
 87 656 l 1,6,-1
 170 656 l 1,7,-1
 170 269 l 2,8,9
 170 210 170 210 182 170 c 128,-1,10
 194 130 194 130 214.5 106 c 128,-1,11
 235 82 235 82 263 71.5 c 128,-1,12
 291 61 291 61 323 61 c 0,13,14
 356 61 356 61 384 71.5 c 128,-1,15
 412 82 412 82 433 106 c 128,-1,16
 454 130 454 130 466 170 c 128,-1,17
 478 210 478 210 478 269 c 2,18,-1
 478 656 l 1,19,-1
 558 656 l 1,20,-1
 558 271 l 2,21,22
 558 192 558 192 540 138 c 128,-1,23
 522 84 522 84 490.5 50.5 c 128,-1,24
 459 17 459 17 416 2.5 c 128,-1,25
 373 -12 373 -12 323 -12 c 256,0,1
EndSplineSet
Validated: 1
Substitution2: "'sups' Superscript lookup 27 subtable" U.sups
Substitution2: "'c2sc' Capitals to Small Capitals lookup 17 subtable" U.sc
AlternateSubs2: "'aalt' Access All Alternates lookup 1 subtable" U.sc U.sups
EndChar

StartChar: V
Encoding: 86 86 23
Width: 515
GlyphClass: 2
Flags: W
AnchorPoint: "Anchor-4" 258 -22 basechar 0
AnchorPoint: "Anchor-1" 257 678 basechar 0
LayerCount: 2
Fore
SplineSet
210 0 m 1,0,-1
 0 656 l 1,1,-1
 89 656 l 1,2,-1
 194 302 l 2,3,4
 212 243 212 243 225.5 193 c 128,-1,5
 239 143 239 143 258 85 c 1,6,-1
 262 85 l 1,7,8
 280 143 280 143 294 193 c 128,-1,9
 308 243 308 243 325 302 c 2,10,-1
 430 656 l 1,11,-1
 515 656 l 1,12,-1
 307 0 l 1,13,-1
 210 0 l 1,0,-1
EndSplineSet
Validated: 1
Substitution2: "'sups' Superscript lookup 27 subtable" V.sups
Substitution2: "'c2sc' Capitals to Small Capitals lookup 17 subtable" V.sc
AlternateSubs2: "'aalt' Access All Alternates lookup 1 subtable" V.sc V.sups
EndChar

StartChar: W
Encoding: 87 87 24
Width: 786
GlyphClass: 2
Flags: W
AnchorPoint: "Anchor-4" 396 -22 basechar 0
AnchorPoint: "Anchor-1" 393 678 basechar 0
LayerCount: 2
Fore
SplineSet
162 0 m 1,0,-1
 23 656 l 1,1,-1
 109 656 l 1,2,-1
 178 299 l 2,3,4
 187 245 187 245 197 193 c 128,-1,5
 207 141 207 141 216 87 c 1,6,-1
 220 87 l 1,7,8
 231 141 231 141 243 193.5 c 128,-1,9
 255 246 255 246 266 299 c 2,10,-1
 357 656 l 1,11,-1
 433 656 l 1,12,-1
 524 299 l 2,13,14
 536 247 536 247 548 194 c 128,-1,15
 560 141 560 141 572 87 c 1,16,-1
 576 87 l 1,17,18
 585 141 585 141 594 193.5 c 128,-1,19
 603 246 603 246 613 299 c 2,20,-1
 682 656 l 1,21,-1
 762 656 l 1,22,-1
 626 0 l 1,23,-1
 526 0 l 1,24,-1
 427 395 l 2,25,26
 418 433 418 433 410.5 469.5 c 128,-1,27
 403 506 403 506 395 544 c 1,28,-1
 391 544 l 1,29,30
 383 506 383 506 374.5 469.5 c 128,-1,31
 366 433 366 433 358 395 c 2,32,-1
 261 0 l 1,33,-1
 162 0 l 1,0,-1
EndSplineSet
Validated: 1
Substitution2: "'sups' Superscript lookup 27 subtable" W.sups
Substitution2: "'c2sc' Capitals to Small Capitals lookup 17 subtable" W.sc
AlternateSubs2: "'aalt' Access All Alternates lookup 1 subtable" W.sc W.sups
EndChar

StartChar: X
Encoding: 88 88 25
Width: 513
GlyphClass: 2
Flags: W
AnchorPoint: "Anchor-4" 252 -22 basechar 0
AnchorPoint: "Anchor-1" 257 678 basechar 0
LayerCount: 2
Fore
SplineSet
15 0 m 1,0,-1
 206 339 l 1,1,-1
 28 656 l 1,2,-1
 120 656 l 1,3,-1
 209 488 l 2,4,5
 222 465 222 465 233.5 443.5 c 128,-1,6
 245 422 245 422 260 393 c 1,7,-1
 264 393 l 1,8,9
 278 422 278 422 288.5 443.5 c 128,-1,10
 299 465 299 465 311 488 c 2,11,-1
 398 656 l 1,12,-1
 486 656 l 1,13,-1
 307 335 l 1,14,-1
 498 0 l 1,15,-1
 406 0 l 1,16,-1
 310 177 l 2,17,18
 297 201 297 201 283.5 226.5 c 128,-1,19
 270 252 270 252 254 282 c 1,20,-1
 250 282 l 1,21,22
 236 252 236 252 223 226.5 c 128,-1,23
 210 201 210 201 198 177 c 2,24,-1
 103 0 l 1,25,-1
 15 0 l 1,0,-1
EndSplineSet
Validated: 1
Substitution2: "'sups' Superscript lookup 27 subtable" X.sups
Substitution2: "'c2sc' Capitals to Small Capitals lookup 17 subtable" X.sc
AlternateSubs2: "'aalt' Access All Alternates lookup 1 subtable" X.sc X.sups
EndChar

StartChar: Y
Encoding: 89 89 26
Width: 476
GlyphClass: 2
Flags: W
AnchorPoint: "Anchor-4" 240 -22 basechar 0
AnchorPoint: "Anchor-1" 238 678 basechar 0
LayerCount: 2
Fore
SplineSet
196 0 m 1,0,-1
 196 254 l 1,1,-1
 -1 656 l 1,2,-1
 88 656 l 1,3,-1
 173 471 l 2,4,5
 189 435 189 435 204 400 c 128,-1,6
 219 365 219 365 236 328 c 1,7,-1
 240 328 l 1,8,9
 257 365 257 365 274 400 c 128,-1,10
 291 435 291 435 306 471 c 2,11,-1
 390 656 l 1,12,-1
 477 656 l 1,13,-1
 280 254 l 1,14,-1
 280 0 l 1,15,-1
 196 0 l 1,0,-1
EndSplineSet
Validated: 1
Substitution2: "'sups' Superscript lookup 27 subtable" Y.sups
Substitution2: "'c2sc' Capitals to Small Capitals lookup 17 subtable" Y.sc
AlternateSubs2: "'aalt' Access All Alternates lookup 1 subtable" Y.sc Y.sups
EndChar

StartChar: Z
Encoding: 90 90 27
Width: 539
GlyphClass: 2
Flags: W
AnchorPoint: "Anchor-4" 282 -22 basechar 0
AnchorPoint: "Anchor-1" 280 678 basechar 0
LayerCount: 2
Fore
SplineSet
45 0 m 1,0,-1
 45 50 l 1,1,-1
 390 586 l 1,2,-1
 76 586 l 1,3,-1
 76 656 l 1,4,-1
 494 656 l 1,5,-1
 494 607 l 1,6,-1
 148 71 l 1,7,-1
 497 71 l 1,8,-1
 497 0 l 1,9,-1
 45 0 l 1,0,-1
EndSplineSet
Validated: 1
Substitution2: "'sups' Superscript lookup 27 subtable" Z.sups
Substitution2: "'c2sc' Capitals to Small Capitals lookup 17 subtable" Z.sc
AlternateSubs2: "'aalt' Access All Alternates lookup 1 subtable" Z.sc Z.sups
EndChar

StartChar: a
Encoding: 97 97 28
Width: 555
GlyphClass: 2
Flags: W
HStem: -12 69<194.326 330.886 480.219 515.082> 0 21G<422.018 473> 429 69<204.019 344.974> 466 20G<403.021 473>
VStem: 47 85<128.742 345.758> 390 83<37 395.994> 406 67<439 486>
AnchorPoint: "Anchor-7" 414 0 basechar 0
AnchorPoint: "Anchor-4" 252 -22 basechar 0
AnchorPoint: "Anchor-0" 269 509 basechar 0
LayerCount: 2
Fore
SplineSet
266 57 m 0,0,1
 300 57 300 57 330 73.5 c 128,-1,2
 360 90 360 90 390 124 c 1,3,-1
 390 378 l 1,4,5
 359 406 359 406 330.5 417.5 c 128,-1,6
 302 429 302 429 272 429 c 0,7,8
 243 429 243 429 217.5 415.5 c 128,-1,9
 192 402 192 402 173 377.5 c 128,-1,10
 154 353 154 353 143 319 c 128,-1,11
 132 285 132 285 132 243 c 0,12,13
 132 155 132 155 167 106 c 128,-1,14
 202 57 202 57 266 57 c 0,0,1
248 -12 m 0,15,16
 156 -12 156 -12 101.5 54 c 128,-1,17
 47 120 47 120 47 242 c 0,18,19
 47 301 47 301 64.5 348.5 c 128,-1,20
 82 396 82 396 111.5 429 c 128,-1,21
 141 462 141 462 179 480 c 128,-1,22
 217 498 217 498 259 498 c 0,23,24
 300 498 300 498 332 483 c 128,-1,25
 364 468 364 468 397 439 c 1,26,-1
 399 439 l 1,27,-1
 406 486 l 1,28,-1
 473 486 l 1,29,-1
 473 102 l 1,30,-1
 473 92 l 2,31,32
 473 72 473 72 480 64 c 128,-1,33
 487 56 487 56 496 56 c 0,34,35
 500 56 500 56 503.5 56 c 128,-1,36
 507 56 507 56 514 58 c 1,37,-1
 525 -4 l 1,38,39
 517 -8 517 -8 506 -10 c 128,-1,40
 495 -12 495 -12 478 -12 c 0,41,42
 433 -12 433 -12 411.5 16 c 0,43,44
 401.345083699 28.9244389287 401.345083699 28.9244389287 397.440005282 57 c 1,45,-1
 395 57 l 1,46,47
 366 29 366 29 328.5 8.5 c 128,-1,48
 291 -12 291 -12 248 -12 c 0,15,16
EndSplineSet
Validated: 1
Substitution2: "'ss02' Style Set 2 lookup 39 subtable" a.a
Substitution2: "'sups' Superscript lookup 26 subtable" a.sups
Substitution2: "'smcp' Lowercase to Small Capitals lookup 20 subtable" A.sc
AlternateSubs2: "'aalt' Access All Alternates lookup 1 subtable" A.sc a.sups a.a
EndChar

StartChar: b
Encoding: 98 98 29
Width: 553
GlyphClass: 2
Flags: W
AnchorPoint: "Anchor-4" 284 -22 basechar 0
AnchorPoint: "Anchor-0" 126 730 basechar 0
LayerCount: 2
Fore
SplineSet
297 -12 m 0,0,1
 263 -12 263 -12 226.5 4.5 c 128,-1,2
 190 21 190 21 158 50 c 1,3,-1
 155 50 l 1,4,-1
 148 0 l 1,5,-1
 82 0 l 1,6,-1
 82 712 l 1,7,-1
 164 712 l 1,8,-1
 164 518 l 1,9,-1
 162 430 l 1,10,11
 195 459 195 459 234 478.5 c 128,-1,12
 273 498 273 498 314 498 c 0,13,14
 361 498 361 498 397 480.5 c 128,-1,15
 433 463 433 463 457.5 430.5 c 128,-1,16
 482 398 482 398 494.5 352.5 c 128,-1,17
 507 307 507 307 507 251 c 0,18,19
 507 189 507 189 490 140 c 128,-1,20
 473 91 473 91 444 57 c 128,-1,21
 415 23 415 23 377 5.5 c 128,-1,22
 339 -12 339 -12 297 -12 c 0,0,1
283 57 m 0,23,24
 313 57 313 57 338.5 70.5 c 128,-1,25
 364 84 364 84 382.5 108.5 c 128,-1,26
 401 133 401 133 411.5 169 c 128,-1,27
 422 205 422 205 422 250 c 0,28,29
 422 290 422 290 415 323 c 128,-1,30
 408 356 408 356 392.5 379.5 c 128,-1,31
 377 403 377 403 352.5 416 c 128,-1,32
 328 429 328 429 294 429 c 0,33,34
 235 429 235 429 164 363 c 1,35,-1
 164 108 l 1,36,37
 196 80 196 80 227.5 68.5 c 128,-1,38
 259 57 259 57 283 57 c 0,23,24
EndSplineSet
Validated: 1
Substitution2: "'sups' Superscript lookup 26 subtable" b.sups
Substitution2: "'smcp' Lowercase to Small Capitals lookup 20 subtable" B.sc
AlternateSubs2: "'aalt' Access All Alternates lookup 1 subtable" B.sc b.sups
EndChar

StartChar: c
Encoding: 99 99 30
Width: 456
GlyphClass: 2
Flags: W
AnchorPoint: "Anchor-4" 270 -22 basechar 0
AnchorPoint: "Anchor-3" 270 0 basechar 0
AnchorPoint: "Anchor-0" 272 509 basechar 0
LayerCount: 2
Fore
SplineSet
274 -12 m 0,0,1
 226 -12 226 -12 184 5 c 128,-1,2
 142 22 142 22 111.5 54.5 c 128,-1,3
 81 87 81 87 63.5 134.5 c 128,-1,4
 46 182 46 182 46 242 c 0,5,6
 46 303 46 303 65 350.5 c 128,-1,7
 84 398 84 398 116 431 c 128,-1,8
 148 464 148 464 190.5 481 c 128,-1,9
 233 498 233 498 280 498 c 0,10,11
 328 498 328 498 362 481 c 128,-1,12
 396 464 396 464 422 441 c 1,13,-1
 380 387 l 1,14,15
 359 406 359 406 335.5 418 c 128,-1,16
 312 430 312 430 283 430 c 0,17,18
 250 430 250 430 222 416.5 c 128,-1,19
 194 403 194 403 174 378 c 128,-1,20
 154 353 154 353 142.5 318.5 c 128,-1,21
 131 284 131 284 131 242 c 256,22,23
 131 200 131 200 142 166 c 128,-1,24
 153 132 153 132 172.5 107.5 c 128,-1,25
 192 83 192 83 220 69.5 c 128,-1,26
 248 56 248 56 281 56 c 0,27,28
 315 56 315 56 343.5 70.5 c 128,-1,29
 372 85 372 85 395 105 c 1,30,-1
 431 50 l 1,31,32
 398 21 398 21 358 4.5 c 128,-1,33
 318 -12 318 -12 274 -12 c 0,0,1
EndSplineSet
Validated: 1
Substitution2: "'sups' Superscript lookup 26 subtable" c.sups
Substitution2: "'smcp' Lowercase to Small Capitals lookup 20 subtable" C.sc
AlternateSubs2: "'aalt' Access All Alternates lookup 1 subtable" C.sc c.sups
EndChar

StartChar: d
Encoding: 100 100 31
Width: 555
GlyphClass: 2
Flags: W
AnchorPoint: "Anchor-4" 301 -22 basechar 0
AnchorPoint: "Anchor-0" 393 730 basechar 0
LayerCount: 2
Fore
SplineSet
266 57 m 0,0,1
 300 57 300 57 330 73.5 c 128,-1,2
 360 90 360 90 390 124 c 1,3,-1
 390 378 l 1,4,5
 359 406 359 406 330.5 417.5 c 128,-1,6
 302 429 302 429 272 429 c 0,7,8
 243 429 243 429 217.5 415.5 c 128,-1,9
 192 402 192 402 173 377.5 c 128,-1,10
 154 353 154 353 143 319 c 128,-1,11
 132 285 132 285 132 243 c 0,12,13
 132 155 132 155 167 106 c 128,-1,14
 202 57 202 57 266 57 c 0,0,1
248 -12 m 0,15,16
 156 -12 156 -12 101.5 54 c 128,-1,17
 47 120 47 120 47 242 c 0,18,19
 47 301 47 301 64.5 348.5 c 128,-1,20
 82 396 82 396 111 429 c 128,-1,21
 140 462 140 462 178 480 c 128,-1,22
 216 498 216 498 258 498 c 128,-1,23
 300 498 300 498 331 483 c 128,-1,24
 362 468 362 468 394 442 c 1,25,-1
 390 525 l 1,26,-1
 390 712 l 1,27,-1
 473 712 l 1,28,-1
 473 262 l 1,29,-1
 473 92 l 2,30,31
 473 72 473 72 480 64 c 128,-1,32
 487 56 487 56 496 56 c 0,33,34
 500 56 500 56 503.5 56 c 128,-1,35
 507 56 507 56 514 58 c 1,36,-1
 525 -4 l 1,37,38
 517 -8 517 -8 506 -10 c 128,-1,39
 495 -12 495 -12 478 -12 c 0,40,41
 431 -12 431 -12 411.5 16 c 0,42,43
 402.252489351 28.5291573776 402.252489351 28.5291573776 398.135593943 56.7911120332 c 1,44,-1
 398 57 l 1,45,-1
 395 57 l 1,46,47
 366 29 366 29 328.5 8.5 c 128,-1,48
 291 -12 291 -12 248 -12 c 0,15,16
EndSplineSet
Validated: 1
Substitution2: "'sups' Superscript lookup 26 subtable" d.sups
Substitution2: "'smcp' Lowercase to Small Capitals lookup 20 subtable" D.sc
AlternateSubs2: "'aalt' Access All Alternates lookup 1 subtable" D.sc d.sups
EndChar

StartChar: e
Encoding: 101 101 32
Width: 496
GlyphClass: 2
Flags: W
AnchorPoint: "Anchor-7" 389 0 basechar 0
AnchorPoint: "Anchor-4" 262 -22 basechar 0
AnchorPoint: "Anchor-0" 264 509 basechar 0
LayerCount: 2
Fore
SplineSet
279 -12 m 0,0,1
 230 -12 230 -12 187.5 5.5 c 128,-1,2
 145 23 145 23 113.5 55.5 c 128,-1,3
 82 88 82 88 64 135 c 128,-1,4
 46 182 46 182 46 242 c 256,5,6
 46 302 46 302 64.5 349.5 c 128,-1,7
 83 397 83 397 113.5 430 c 128,-1,8
 144 463 144 463 183 480.5 c 128,-1,9
 222 498 222 498 264 498 c 0,10,11
 310 498 310 498 346.5 482 c 128,-1,12
 383 466 383 466 407.5 436 c 128,-1,13
 432 406 432 406 445 364 c 128,-1,14
 458 322 458 322 458 270 c 0,15,16
 458 257 458 257 457.5 244.5 c 128,-1,17
 457 232 457 232 455 223 c 1,18,-1
 127 223 l 1,19,20
 132 145 132 145 175.5 99.5 c 128,-1,21
 219 54 219 54 289 54 c 0,22,23
 324 54 324 54 353.5 64.5 c 128,-1,24
 383 75 383 75 410 92 c 1,25,-1
 439 38 l 1,26,27
 407 18 407 18 368 3 c 128,-1,28
 329 -12 329 -12 279 -12 c 0,0,1
126 282 m 1,29,-1
 386 282 l 1,30,31
 386 356 386 356 354.5 394.5 c 128,-1,32
 323 433 323 433 266 433 c 0,33,34
 240 433 240 433 216.5 423 c 128,-1,35
 193 413 193 413 174 393.5 c 128,-1,36
 155 374 155 374 142.5 346 c 128,-1,37
 130 318 130 318 126 282 c 1,29,-1
EndSplineSet
Validated: 1
Substitution2: "'sups' Superscript lookup 26 subtable" e.sups
Substitution2: "'smcp' Lowercase to Small Capitals lookup 20 subtable" E.sc
AlternateSubs2: "'aalt' Access All Alternates lookup 1 subtable" E.sc e.sups
EndChar

StartChar: f
Encoding: 102 102 33
Width: 292
GlyphClass: 2
Flags: W
AnchorPoint: "Anchor-4" 137 -22 basechar 0
AnchorPoint: "Anchor-0" 219 740 basechar 0
LayerCount: 2
Fore
SplineSet
96 0 m 1,0,-1
 96 419 l 1,1,-1
 30 419 l 1,2,-1
 30 481 l 1,3,-1
 96 486 l 1,4,-1
 96 563 l 2,5,6
 96 638 96 638 130.5 681 c 128,-1,7
 165 724 165 724 238 724 c 0,8,9
 261 724 261 724 281.5 719.5 c 128,-1,10
 302 715 302 715 319 708 c 1,11,-1
 301 645 l 1,12,13
 274 657 274 657 246 657 c 0,14,15
 178 657 178 657 178 563 c 2,16,-1
 178 486 l 1,17,-1
 281 486 l 1,18,-1
 281 419 l 1,19,-1
 178 419 l 1,20,-1
 178 0 l 1,21,-1
 96 0 l 1,0,-1
EndSplineSet
Validated: 1
Substitution2: "'sups' Superscript lookup 26 subtable" f.sups
Substitution2: "'smcp' Lowercase to Small Capitals lookup 20 subtable" F.sc
AlternateSubs2: "'aalt' Access All Alternates lookup 1 subtable" F.sc f.sups
EndChar

StartChar: g
Encoding: 103 103 34
Width: 559
GlyphClass: 2
Flags: W
HStem: -216 66<157.017 343.634> 5 68<194.924 334.15> 429 69<204.756 348.533> 466 20G<402.889 475>
VStem: 50 84<143.446 348.536> 393 82<-98.1532 70 118.693 395.3 441 465.231> 406 69<441 486>
LayerCount: 2
Fore
SplineSet
259 -216 m 0,0,1
 214 -216 214 -216 168.5 -202.5 c 128,-1,2
 123 -189 123 -189 85 -163 c 1,3,-1
 115 -105 l 1,4,5
 151 -129 151 -129 187.5 -139.5 c 128,-1,6
 224 -150 224 -150 259 -150 c 0,7,8
 326 -150 326 -150 358.5 -115.5 c 128,-1,9
 391 -81 391 -81 393 -22 c 2,10,-1
 394 70 l 1,11,12
 366 43 366 43 329.5 24 c 128,-1,13
 293 5 293 5 250 5 c 0,14,15
 204 5 204 5 167 22 c 128,-1,16
 130 39 130 39 104 70.5 c 128,-1,17
 78 102 78 102 64 147.5 c 128,-1,18
 50 193 50 193 50 250 c 256,19,20
 50 307 50 307 67.5 353 c 128,-1,21
 85 399 85 399 114 431 c 128,-1,22
 143 463 143 463 181.5 480.5 c 128,-1,23
 220 498 220 498 261 498 c 0,24,25
 303 498 303 498 334.5 483.5 c 128,-1,26
 366 469 366 469 397 441 c 1,27,-1
 399 441 l 1,28,-1
 406 486 l 1,29,-1
 475 486 l 1,30,-1
 475 -24 l 2,31,32
 475 -115 475 -115 419 -165.5 c 128,-1,33
 363 -216 363 -216 259 -216 c 0,0,1
268 73 m 0,34,35
 302 73 302 73 331.5 89.5 c 128,-1,36
 361 106 361 106 393 140 c 1,37,-1
 393 378 l 1,38,39
 361 406 361 406 332.5 417.5 c 128,-1,40
 304 429 304 429 274 429 c 0,41,42
 245 429 245 429 219.5 416 c 128,-1,43
 194 403 194 403 175 379 c 128,-1,44
 156 355 156 355 145 322.5 c 128,-1,45
 134 290 134 290 134 251 c 0,46,47
 134 169 134 169 169 121 c 128,-1,48
 204 73 204 73 268 73 c 0,34,35
EndSplineSet
Validated: 1
Substitution2: "'ss03' Style Set 3 lookup 41 subtable" g.a
Substitution2: "'sups' Superscript lookup 26 subtable" g.sups
Substitution2: "'smcp' Lowercase to Small Capitals lookup 20 subtable" G.sc
AlternateSubs2: "'aalt' Access All Alternates lookup 1 subtable" G.sc g.sups g.a
EndChar

StartChar: h
Encoding: 104 104 35
Width: 544
GlyphClass: 2
Flags: W
AnchorPoint: "Anchor-4" 286 -22 basechar 0
AnchorPoint: "Anchor-0" 123 730 basechar 0
LayerCount: 2
Fore
SplineSet
82 0 m 1,0,-1
 82 712 l 1,1,-1
 164 712 l 1,2,-1
 164 518 l 1,3,-1
 161 418 l 1,4,5
 196 451 196 451 234 474.5 c 128,-1,6
 272 498 272 498 323 498 c 0,7,8
 400 498 400 498 435.5 450 c 128,-1,9
 471 402 471 402 471 308 c 2,10,-1
 471 102 l 1,11,-1
 471 92 l 2,12,13
 471 72 471 72 478 64 c 128,-1,14
 485 56 485 56 494 56 c 0,15,16
 498 56 498 56 501.5 56 c 128,-1,17
 505 56 505 56 512 58 c 1,18,-1
 523 -4 l 1,19,20
 515 -8 515 -8 504 -10 c 128,-1,21
 493 -12 493 -12 476 -12 c 0,22,23
 431 -12 431 -12 409.5 16 c 0,24,25
 389 43 389 43 389 98 c 2,26,-1
 389 110 l 1,27,-1
 389 122 l 1,28,-1
 389 297 l 2,29,30
 389 366 389 366 367 396.5 c 128,-1,31
 345 427 345 427 297 427 c 0,32,33
 259 427 259 427 230 408 c 128,-1,34
 201 389 201 389 164 352 c 1,35,-1
 164 0 l 1,36,-1
 82 0 l 1,0,-1
EndSplineSet
Validated: 1
Substitution2: "'sups' Superscript lookup 26 subtable" h.sups
Substitution2: "'smcp' Lowercase to Small Capitals lookup 20 subtable" H.sc
AlternateSubs2: "'aalt' Access All Alternates lookup 1 subtable" H.sc h.sups
EndChar

StartChar: i
Encoding: 105 105 36
Width: 246
GlyphClass: 2
Flags: W
AnchorPoint: "Anchor-7" 152 0 basechar 0
AnchorPoint: "Anchor-4" 123 -22 basechar 0
AnchorPoint: "Anchor-0" 123 694 basechar 0
LayerCount: 2
Fore
SplineSet
82 0 m 1,0,-1
 82 486 l 1,1,-1
 164 486 l 1,2,-1
 164 0 l 1,3,-1
 82 0 l 1,0,-1
124 586 m 256,4,5
 100 586 100 586 83.5 601 c 128,-1,6
 67 616 67 616 67 639 c 0,7,8
 67 663 67 663 83.5 677.5 c 128,-1,9
 100 692 100 692 124 692 c 256,10,11
 148 692 148 692 164.5 677.5 c 128,-1,12
 181 663 181 663 181 639 c 0,13,14
 181 616 181 616 164.5 601 c 128,-1,15
 148 586 148 586 124 586 c 256,4,5
EndSplineSet
Validated: 1
Substitution2: "'sups' Superscript lookup 26 subtable" i.sups
Substitution2: "'smcp' Lowercase to Small Capitals lookup 20 subtable" I.sc
Substitution2: "'locl' Localized Forms in Latin lookup 2 subtable" i.trk
AlternateSubs2: "'aalt' Access All Alternates lookup 1 subtable" i.trk I.sc i.sups
EndChar

StartChar: j
Encoding: 106 106 37
Width: 247
GlyphClass: 2
Flags: W
AnchorPoint: "Anchor-4" 59 -231 basechar 0
AnchorPoint: "Anchor-0" 125 694 basechar 0
LayerCount: 2
Fore
SplineSet
32 -217 m 0,0,1
 9 -217 9 -217 -9 -213 c 128,-1,2
 -27 -209 -27 -209 -40 -204 c 1,3,-1
 -23 -142 l 1,4,5
 -14 -145 -14 -145 -2 -147.5 c 128,-1,6
 10 -150 10 -150 23 -150 c 0,7,8
 59 -150 59 -150 71 -125 c 128,-1,9
 83 -100 83 -100 83 -55 c 2,10,-1
 83 486 l 1,11,-1
 165 486 l 1,12,-1
 165 -55 l 2,13,14
 165 -129 165 -129 135 -173 c 128,-1,15
 105 -217 105 -217 32 -217 c 0,0,1
125 586 m 0,16,17
 101 586 101 586 84.5 601 c 128,-1,18
 68 616 68 616 68 639 c 0,19,20
 68 663 68 663 84.5 677.5 c 128,-1,21
 101 692 101 692 125 692 c 0,22,23
 148 692 148 692 164.5 677.5 c 128,-1,24
 181 663 181 663 181 639 c 0,25,26
 181 616 181 616 164.5 601 c 128,-1,27
 148 586 148 586 125 586 c 0,16,17
EndSplineSet
Validated: 1
Substitution2: "'sups' Superscript lookup 26 subtable" j.sups
Substitution2: "'smcp' Lowercase to Small Capitals lookup 20 subtable" J.sc
AlternateSubs2: "'aalt' Access All Alternates lookup 1 subtable" J.sc j.sups
EndChar

StartChar: k
Encoding: 107 107 38
Width: 495
GlyphClass: 2
Flags: W
AnchorPoint: "Anchor-4" 271 -22 basechar 0
AnchorPoint: "Anchor-0" 126 730 basechar 0
LayerCount: 2
Fore
SplineSet
82 0 m 1,0,-1
 82 712 l 1,1,-1
 163 712 l 1,2,-1
 163 230 l 1,3,-1
 166 230 l 1,4,-1
 373 486 l 1,5,-1
 464 486 l 1,6,-1
 301 291 l 1,7,-1
 486 0 l 1,8,-1
 396 0 l 1,9,-1
 254 234 l 1,10,-1
 163 128 l 1,11,-1
 163 0 l 1,12,-1
 82 0 l 1,0,-1
EndSplineSet
Validated: 1
Substitution2: "'sups' Superscript lookup 26 subtable" k.sups
Substitution2: "'smcp' Lowercase to Small Capitals lookup 20 subtable" K.sc
AlternateSubs2: "'aalt' Access All Alternates lookup 1 subtable" K.sc k.sups
EndChar

StartChar: l
Encoding: 108 108 39
Width: 255
GlyphClass: 2
Flags: W
AnchorPoint: "Anchor-4" 122 -22 basechar 0
AnchorPoint: "Anchor-0" 122 730 basechar 0
LayerCount: 2
Fore
SplineSet
169 -12 m 0,0,1
 122 -12 122 -12 102 16 c 128,-1,2
 82 44 82 44 82 98 c 2,3,-1
 82 712 l 1,4,-1
 164 712 l 1,5,-1
 164 92 l 2,6,7
 164 72 164 72 171 64 c 128,-1,8
 178 56 178 56 187 56 c 0,9,10
 191 56 191 56 194.5 56 c 128,-1,11
 198 56 198 56 205 58 c 1,12,-1
 216 -4 l 1,13,14
 208 -8 208 -8 197 -10 c 128,-1,15
 186 -12 186 -12 169 -12 c 0,0,1
EndSplineSet
Validated: 1
Substitution2: "'ss01' Style Set 1 lookup 36 subtable" l.a
Substitution2: "'sups' Superscript lookup 26 subtable" l.sups
Substitution2: "'smcp' Lowercase to Small Capitals lookup 20 subtable" L.sc
AlternateSubs2: "'aalt' Access All Alternates lookup 1 subtable" L.sc l.sups l.a
EndChar

StartChar: m
Encoding: 109 109 40
Width: 829
GlyphClass: 2
Flags: W
AnchorPoint: "Anchor-4" 425 -22 basechar 0
AnchorPoint: "Anchor-0" 419 509 basechar 0
LayerCount: 2
Fore
SplineSet
82 0 m 1,0,-1
 82 486 l 1,1,-1
 150 486 l 1,2,-1
 157 416 l 1,3,-1
 160 416 l 1,4,5
 192 451 192 451 229.5 474.5 c 128,-1,6
 267 498 267 498 311 498 c 0,7,8
 367 498 367 498 398.5 473.5 c 128,-1,9
 430 449 430 449 445 405 c 1,10,11
 483 447 483 447 521.5 472.5 c 128,-1,12
 560 498 560 498 605 498 c 0,13,14
 680 498 680 498 716.5 450 c 128,-1,15
 753 402 753 402 753 308 c 2,16,-1
 753 102 l 1,17,-1
 753 92 l 2,18,19
 753 72 753 72 760 64 c 128,-1,20
 767 56 767 56 776 56 c 0,21,22
 780 56 780 56 783.5 56 c 128,-1,23
 787 56 787 56 794 58 c 1,24,-1
 805 -4 l 1,25,26
 797 -8 797 -8 786 -10 c 128,-1,27
 775 -12 775 -12 758 -12 c 0,28,29
 713 -12 713 -12 691.5 16 c 0,30,31
 671 43 671 43 671 98 c 2,32,-1
 671 100 l 1,33,-1
 671 112 l 1,34,-1
 671 297 l 2,35,36
 671 366 671 366 649 396.5 c 128,-1,37
 627 427 627 427 581 427 c 0,38,39
 526 427 526 427 459 352 c 1,40,-1
 459 0 l 1,41,-1
 377 0 l 1,42,-1
 377 297 l 2,43,44
 377 366 377 366 355 396.5 c 128,-1,45
 333 427 333 427 286 427 c 0,46,47
 231 427 231 427 164 352 c 1,48,-1
 164 0 l 1,49,-1
 82 0 l 1,0,-1
EndSplineSet
Validated: 1
Substitution2: "'sups' Superscript lookup 26 subtable" m.sups
Substitution2: "'smcp' Lowercase to Small Capitals lookup 20 subtable" M.sc
AlternateSubs2: "'aalt' Access All Alternates lookup 1 subtable" M.sc m.sups
EndChar

StartChar: n
Encoding: 110 110 41
Width: 547
GlyphClass: 2
Flags: W
HStem: -12 68<478.219 512.917> 0 21G<82 164 454.6 471> 427 71<236.794 359.198> 466 20G<82 152>
VStem: 82 82<0 372.382> 82 68<416 486> 389 82<14.2773 394.893>
AnchorPoint: "Anchor-4" 278 -22 basechar 0
AnchorPoint: "Anchor-0" 291 509 basechar 0
LayerCount: 2
Fore
SplineSet
476 -12 m 0,0,1
 431 -12 431 -12 409.5 16 c 0,2,3
 389 43 389 43 389 98 c 2,4,-1
 389 100 l 1,5,-1
 389 112 l 1,6,-1
 389 297 l 2,7,8
 389 366 389 366 367 396.5 c 128,-1,9
 345 427 345 427 297 427 c 0,10,11
 259 427 259 427 230 408 c 128,-1,12
 201 389 201 389 164 352 c 1,13,-1
 164 0 l 1,14,-1
 82 0 l 1,15,-1
 82 486 l 1,16,-1
 150 486 l 1,17,-1
 157 416 l 1,18,-1
 160 416 l 1,19,20
 195 451 195 451 233.5 474.5 c 128,-1,21
 272 498 272 498 323 498 c 0,22,23
 400 498 400 498 435.5 450 c 128,-1,24
 471 402 471 402 471 308 c 2,25,-1
 471 102 l 1,26,-1
 471 92 l 2,27,28
 471 72 471 72 478 64 c 128,-1,29
 485 56 485 56 494 56 c 0,30,31
 498 56 498 56 501.5 56 c 128,-1,32
 505 56 505 56 512 58 c 1,33,-1
 523 -4 l 1,34,35
 515 -8 515 -8 504 -10 c 128,-1,36
 493 -12 493 -12 476 -12 c 0,0,1
EndSplineSet
Validated: 1
Substitution2: "'sups' Superscript lookup 26 subtable" n.sups
Substitution2: "'smcp' Lowercase to Small Capitals lookup 20 subtable" N.sc
AlternateSubs2: "'aalt' Access All Alternates lookup 1 subtable" N.sc n.sups
EndChar

StartChar: o
Encoding: 111 111 42
Width: 542
GlyphClass: 2
Flags: W
AnchorPoint: "Anchor-7" 320 0 basechar 0
AnchorPoint: "Anchor-6" 364 486 basechar 0
AnchorPoint: "Anchor-4" 271 -22 basechar 0
AnchorPoint: "Anchor-0" 271 509 basechar 0
LayerCount: 2
Fore
SplineSet
271 -12 m 256,0,1
 226 -12 226 -12 185.5 5 c 128,-1,2
 145 22 145 22 114 54.5 c 128,-1,3
 83 87 83 87 64.5 134.5 c 128,-1,4
 46 182 46 182 46 242 c 0,5,6
 46 303 46 303 64.5 350.5 c 128,-1,7
 83 398 83 398 114 431 c 128,-1,8
 145 464 145 464 185.5 481 c 128,-1,9
 226 498 226 498 271 498 c 256,10,11
 316 498 316 498 356.5 481 c 128,-1,12
 397 464 397 464 428 431 c 128,-1,13
 459 398 459 398 477.5 350.5 c 128,-1,14
 496 303 496 303 496 242 c 0,15,16
 496 182 496 182 477.5 134.5 c 128,-1,17
 459 87 459 87 428 54.5 c 128,-1,18
 397 22 397 22 356.5 5 c 128,-1,19
 316 -12 316 -12 271 -12 c 256,0,1
271 56 m 256,20,21
 302 56 302 56 328 69.5 c 128,-1,22
 354 83 354 83 372.5 107.5 c 128,-1,23
 391 132 391 132 401 166 c 128,-1,24
 411 200 411 200 411 242 c 256,25,26
 411 284 411 284 401 318.5 c 128,-1,27
 391 353 391 353 372.5 378 c 128,-1,28
 354 403 354 403 328 416.5 c 128,-1,29
 302 430 302 430 271 430 c 256,30,31
 240 430 240 430 214 416.5 c 128,-1,32
 188 403 188 403 169.5 378 c 128,-1,33
 151 353 151 353 141 318.5 c 128,-1,34
 131 284 131 284 131 242 c 256,35,36
 131 200 131 200 141 166 c 128,-1,37
 151 132 151 132 169.5 107.5 c 128,-1,38
 188 83 188 83 214 69.5 c 128,-1,39
 240 56 240 56 271 56 c 256,20,21
EndSplineSet
Validated: 1
Substitution2: "'sups' Superscript lookup 26 subtable" o.sups
Substitution2: "'smcp' Lowercase to Small Capitals lookup 20 subtable" O.sc
AlternateSubs2: "'aalt' Access All Alternates lookup 1 subtable" O.sc o.sups
EndChar

StartChar: p
Encoding: 112 112 43
Width: 555
GlyphClass: 2
Flags: W
AnchorPoint: "Anchor-4" 117 -218 basechar 0
AnchorPoint: "Anchor-0" 291 509 basechar 0
LayerCount: 2
Fore
SplineSet
82 -205 m 1,0,-1
 82 486 l 1,1,-1
 150 486 l 1,2,-1
 157 430 l 1,3,-1
 160 430 l 1,4,5
 193 458 193 458 232.5 478 c 128,-1,6
 272 498 272 498 315 498 c 0,7,8
 362 498 362 498 398 480.5 c 128,-1,9
 434 463 434 463 458 430.5 c 128,-1,10
 482 398 482 398 494.5 352.5 c 128,-1,11
 507 307 507 307 507 250 c 0,12,13
 507 188 507 188 490 139.5 c 128,-1,14
 473 91 473 91 444 57 c 128,-1,15
 415 23 415 23 377 5.5 c 128,-1,16
 339 -12 339 -12 297 -12 c 0,17,18
 263 -12 263 -12 229.5 3 c 128,-1,19
 196 18 196 18 162 44 c 1,20,-1
 164 -41 l 1,21,-1
 164 -205 l 1,22,-1
 82 -205 l 1,0,-1
283 57 m 0,23,24
 313 57 313 57 338.5 70.5 c 128,-1,25
 364 84 364 84 382.5 108.5 c 128,-1,26
 401 133 401 133 411.5 169 c 128,-1,27
 422 205 422 205 422 250 c 0,28,29
 422 290 422 290 415 323 c 128,-1,30
 408 356 408 356 392.5 379.5 c 128,-1,31
 377 403 377 403 352.5 416 c 128,-1,32
 328 429 328 429 294 429 c 0,33,34
 263 429 263 429 231.5 412 c 128,-1,35
 200 395 200 395 164 363 c 1,36,-1
 164 108 l 1,37,38
 197 80 197 80 228 68.5 c 128,-1,39
 259 57 259 57 283 57 c 0,23,24
EndSplineSet
Validated: 1
Substitution2: "'sups' Superscript lookup 26 subtable" p.sups
Substitution2: "'smcp' Lowercase to Small Capitals lookup 20 subtable" P.sc
AlternateSubs2: "'aalt' Access All Alternates lookup 1 subtable" P.sc p.sups
EndChar

StartChar: q
Encoding: 113 113 44
Width: 555
GlyphClass: 2
Flags: W
AnchorPoint: "Anchor-4" 426 -218 basechar 0
AnchorPoint: "Anchor-0" 278 509 basechar 0
LayerCount: 2
Fore
SplineSet
266 57 m 0,0,1
 300 57 300 57 330 73.5 c 128,-1,2
 360 90 360 90 390 124 c 1,3,-1
 390 378 l 1,4,5
 359 406 359 406 330.5 417.5 c 128,-1,6
 302 429 302 429 272 429 c 0,7,8
 243 429 243 429 217.5 415.5 c 128,-1,9
 192 402 192 402 173 377.5 c 128,-1,10
 154 353 154 353 143 319 c 128,-1,11
 132 285 132 285 132 243 c 0,12,13
 132 155 132 155 167 106 c 128,-1,14
 202 57 202 57 266 57 c 0,0,1
478 -217 m 0,15,16
 431 -217 431 -217 411.5 -189 c 0,17,18
 390 -159 390 -159 390 -107 c 2,19,-1
 390 -95 l 1,20,-1
 390 -83 l 1,21,-1
 390 -32 l 1,22,-1
 394 56 l 1,23,24
 365 27 365 27 327.5 7.5 c 128,-1,25
 290 -12 290 -12 248 -12 c 0,26,27
 156 -12 156 -12 101.5 54 c 128,-1,28
 47 120 47 120 47 242 c 0,29,30
 47 301 47 301 64.5 348.5 c 128,-1,31
 82 396 82 396 111 429 c 128,-1,32
 140 462 140 462 178 480 c 128,-1,33
 216 498 216 498 258 498 c 128,-1,34
 300 498 300 498 332 483.5 c 128,-1,35
 364 469 364 469 397 440 c 1,36,-1
 399 440 l 1,37,-1
 407 486 l 1,38,-1
 473 486 l 1,39,-1
 473 -93 l 1,40,-1
 473 -113 l 2,41,42
 473 -133 473 -133 480 -141 c 128,-1,43
 487 -149 487 -149 496 -149 c 0,44,45
 500 -149 500 -149 503.5 -149 c 128,-1,46
 507 -149 507 -149 514 -147 c 1,47,-1
 525 -209 l 1,48,49
 517 -213 517 -213 506 -215 c 128,-1,50
 495 -217 495 -217 478 -217 c 0,15,16
EndSplineSet
Validated: 1
Substitution2: "'sups' Superscript lookup 26 subtable" q.sups
Substitution2: "'smcp' Lowercase to Small Capitals lookup 20 subtable" Q.sc
AlternateSubs2: "'aalt' Access All Alternates lookup 1 subtable" Q.sc q.sups
EndChar

StartChar: r
Encoding: 114 114 45
Width: 347
GlyphClass: 2
Flags: W
AnchorPoint: "Anchor-4" 123 -22 basechar 0
AnchorPoint: "Anchor-0" 216 509 basechar 0
LayerCount: 2
Fore
SplineSet
82 0 m 1,0,-1
 82 486 l 1,1,-1
 150 486 l 1,2,-1
 157 398 l 1,3,-1
 160 398 l 1,4,5
 185 444 185 444 220.5 471 c 128,-1,6
 256 498 256 498 298 498 c 0,7,8
 327 498 327 498 350 488 c 1,9,-1
 334 416 l 1,10,11
 322 420 322 420 312 422 c 128,-1,12
 302 424 302 424 287 424 c 0,13,14
 256 424 256 424 222.5 399 c 128,-1,15
 189 374 189 374 164 312 c 1,16,-1
 164 0 l 1,17,-1
 82 0 l 1,0,-1
EndSplineSet
Validated: 1
Substitution2: "'sups' Superscript lookup 26 subtable" r.sups
Substitution2: "'smcp' Lowercase to Small Capitals lookup 20 subtable" R.sc
AlternateSubs2: "'aalt' Access All Alternates lookup 1 subtable" R.sc r.sups
EndChar

StartChar: s
Encoding: 115 115 46
Width: 419
GlyphClass: 2
Flags: W
AnchorPoint: "Anchor-4" 223 -22 basechar 0
AnchorPoint: "Anchor-3" 223 0 basechar 0
AnchorPoint: "Anchor-0" 219 509 basechar 0
LayerCount: 2
Fore
SplineSet
209 -12 m 0,0,1
 157 -12 157 -12 110 7 c 128,-1,2
 63 26 63 26 28 55 c 1,3,-1
 69 110 l 1,4,5
 101 84 101 84 134.5 68 c 128,-1,6
 168 52 168 52 212 52 c 0,7,8
 260 52 260 52 284 74 c 128,-1,9
 308 96 308 96 308 128 c 0,10,11
 308 147 308 147 298 161 c 128,-1,12
 288 175 288 175 272.5 185.5 c 128,-1,13
 257 196 257 196 237 204 c 128,-1,14
 217 212 217 212 197 220 c 0,15,16
 171 229 171 229 145 240.5 c 128,-1,17
 119 252 119 252 98.5 268.5 c 128,-1,18
 78 285 78 285 65 307 c 128,-1,19
 52 329 52 329 52 360 c 0,20,21
 52 389 52 389 63.5 414.5 c 128,-1,22
 75 440 75 440 96.5 458.5 c 128,-1,23
 118 477 118 477 149 487.5 c 128,-1,24
 180 498 180 498 219 498 c 0,25,26
 265 498 265 498 303.5 482 c 128,-1,27
 342 466 342 466 370 443 c 1,28,-1
 331 391 l 1,29,30
 306 410 306 410 279 422 c 128,-1,31
 252 434 252 434 220 434 c 0,32,33
 174 434 174 434 152.5 413 c 128,-1,34
 131 392 131 392 131 364 c 0,35,36
 131 347 131 347 140 334.5 c 128,-1,37
 149 322 149 322 164 312.5 c 128,-1,38
 179 303 179 303 198.5 295.5 c 128,-1,39
 218 288 218 288 239 280 c 0,40,41
 265 270 265 270 291.5 259 c 128,-1,42
 318 248 318 248 339 231.5 c 128,-1,43
 360 215 360 215 373.5 191 c 128,-1,44
 387 167 387 167 387 133 c 0,45,46
 387 103 387 103 375.5 77 c 128,-1,47
 364 51 364 51 341.5 31 c 128,-1,48
 319 11 319 11 285.5 -0.5 c 128,-1,49
 252 -12 252 -12 209 -12 c 0,0,1
EndSplineSet
Validated: 1
Substitution2: "'sups' Superscript lookup 26 subtable" s.sups
Substitution2: "'smcp' Lowercase to Small Capitals lookup 20 subtable" S.sc
AlternateSubs2: "'aalt' Access All Alternates lookup 1 subtable" S.sc s.sups
EndChar

StartChar: t
Encoding: 116 116 47
Width: 338
GlyphClass: 2
Flags: W
AnchorPoint: "Anchor-4" 212 -22 basechar 0
AnchorPoint: "Anchor-3" 217 0 basechar 0
AnchorPoint: "Anchor-0" 143 643 basechar 0
LayerCount: 2
Fore
SplineSet
235 -12 m 0,0,1
 196 -12 196 -12 169.5 0 c 128,-1,2
 143 12 143 12 126.5 33 c 128,-1,3
 110 54 110 54 103 84 c 128,-1,4
 96 114 96 114 96 150 c 2,5,-1
 96 419 l 1,6,-1
 24 419 l 1,7,-1
 24 481 l 1,8,-1
 100 486 l 1,9,-1
 110 622 l 1,10,-1
 179 622 l 1,11,-1
 179 486 l 1,12,-1
 310 486 l 1,13,-1
 310 419 l 1,14,-1
 179 419 l 1,15,-1
 179 149 l 2,16,17
 179 104 179 104 195.5 79.5 c 128,-1,18
 212 55 212 55 254 55 c 0,19,20
 267 55 267 55 282 59 c 128,-1,21
 297 63 297 63 309 68 c 1,22,-1
 325 6 l 1,23,24
 305 -1 305 -1 281.5 -6.5 c 128,-1,25
 258 -12 258 -12 235 -12 c 0,0,1
EndSplineSet
Validated: 1
Substitution2: "'sups' Superscript lookup 26 subtable" t.sups
Substitution2: "'smcp' Lowercase to Small Capitals lookup 20 subtable" T.sc
AlternateSubs2: "'aalt' Access All Alternates lookup 1 subtable" T.sc t.sups
EndChar

StartChar: u
Encoding: 117 117 48
Width: 544
GlyphClass: 2
Flags: W
AnchorPoint: "Anchor-7" 428 0 basechar 0
AnchorPoint: "Anchor-6" 411 496 basechar 0
AnchorPoint: "Anchor-4" 290 -22 basechar 0
AnchorPoint: "Anchor-0" 272 509 basechar 0
LayerCount: 2
Fore
SplineSet
224 -12 m 0,0,1
 146 -12 146 -12 110.5 36 c 128,-1,2
 75 84 75 84 75 178 c 2,3,-1
 75 486 l 1,4,-1
 158 486 l 1,5,-1
 158 189 l 2,6,7
 158 120 158 120 179.5 89.5 c 128,-1,8
 201 59 201 59 249 59 c 0,9,10
 287 59 287 59 316 78.5 c 128,-1,11
 345 98 345 98 380 141 c 1,12,-1
 380 486 l 1,13,-1
 462 486 l 1,14,-1
 462 102 l 1,15,-1
 462 92 l 2,16,17
 462 72 462 72 469 64 c 128,-1,18
 476 56 476 56 485 56 c 0,19,20
 489 56 489 56 492.5 56 c 128,-1,21
 496 56 496 56 503 58 c 1,22,-1
 514 -4 l 1,23,24
 506 -8 506 -8 495 -10 c 128,-1,25
 484 -12 484 -12 467 -12 c 0,26,27
 420 -12 420 -12 400.5 16 c 0,28,29
 387.224552572 33.7005965703 387.224552572 33.7005965703 384.630166018 76 c 1,30,-1
 384 76 l 1,31,32
 350 36 350 36 312.5 12 c 128,-1,33
 275 -12 275 -12 224 -12 c 0,0,1
EndSplineSet
Validated: 1
Substitution2: "'sups' Superscript lookup 26 subtable" u.sups
Substitution2: "'smcp' Lowercase to Small Capitals lookup 20 subtable" U.sc
AlternateSubs2: "'aalt' Access All Alternates lookup 1 subtable" U.sc u.sups
EndChar

StartChar: v
Encoding: 118 118 49
Width: 467
GlyphClass: 2
Flags: W
AnchorPoint: "Anchor-4" 235 -22 basechar 0
AnchorPoint: "Anchor-0" 235 509 basechar 0
LayerCount: 2
Fore
SplineSet
187 0 m 1,0,-1
 12 486 l 1,1,-1
 97 486 l 1,2,-1
 189 210 l 2,3,4
 200 174 200 174 211.5 138 c 128,-1,5
 223 102 223 102 234 67 c 1,6,-1
 238 67 l 1,7,8
 249 102 249 102 260 138 c 128,-1,9
 271 174 271 174 282 210 c 2,10,-1
 374 486 l 1,11,-1
 455 486 l 1,12,-1
 283 0 l 1,13,-1
 187 0 l 1,0,-1
EndSplineSet
Validated: 1
Substitution2: "'sups' Superscript lookup 26 subtable" v.sups
Substitution2: "'smcp' Lowercase to Small Capitals lookup 20 subtable" V.sc
AlternateSubs2: "'aalt' Access All Alternates lookup 1 subtable" V.sc v.sups
EndChar

StartChar: w
Encoding: 119 119 50
Width: 718
GlyphClass: 2
Flags: W
AnchorPoint: "Anchor-4" 360 -22 basechar 0
AnchorPoint: "Anchor-0" 360 509 basechar 0
LayerCount: 2
Fore
SplineSet
159 0 m 1,0,-1
 24 486 l 1,1,-1
 108 486 l 1,2,-1
 180 205 l 2,3,4
 188 170 188 170 195 137 c 128,-1,5
 202 104 202 104 209 70 c 1,6,-1
 213 70 l 1,7,8
 221 104 221 104 229 137.5 c 128,-1,9
 237 171 237 171 246 205 c 2,10,-1
 321 486 l 1,11,-1
 401 486 l 1,12,-1
 477 205 l 2,13,14
 486 170 486 170 494.5 137 c 128,-1,15
 503 104 503 104 511 70 c 1,16,-1
 515 70 l 1,17,18
 523 104 523 104 530 137 c 128,-1,19
 537 170 537 170 545 205 c 2,20,-1
 616 486 l 1,21,-1
 694 486 l 1,22,-1
 564 0 l 1,23,-1
 464 0 l 1,24,-1
 394 261 l 2,25,26
 385 296 385 296 377.5 330 c 128,-1,27
 370 364 370 364 361 401 c 1,28,-1
 357 401 l 1,29,30
 349 364 349 364 341 329.5 c 128,-1,31
 333 295 333 295 323 260 c 2,32,-1
 255 0 l 1,33,-1
 159 0 l 1,0,-1
EndSplineSet
Validated: 1
Substitution2: "'sups' Superscript lookup 26 subtable" w.sups
Substitution2: "'smcp' Lowercase to Small Capitals lookup 20 subtable" W.sc
AlternateSubs2: "'aalt' Access All Alternates lookup 1 subtable" W.sc w.sups
EndChar

StartChar: x
Encoding: 120 120 51
Width: 446
GlyphClass: 2
Flags: W
AnchorPoint: "Anchor-4" 223 -22 basechar 0
AnchorPoint: "Anchor-0" 223 509 basechar 0
LayerCount: 2
Fore
SplineSet
14 0 m 1,0,-1
 173 254 l 1,1,-1
 26 486 l 1,2,-1
 115 486 l 1,3,-1
 180 379 l 2,4,5
 191 359 191 359 203 338.5 c 128,-1,6
 215 318 215 318 228 298 c 1,7,-1
 232 298 l 1,8,9
 243 318 243 318 254 338.5 c 128,-1,10
 265 359 265 359 276 379 c 2,11,-1
 335 486 l 1,12,-1
 421 486 l 1,13,-1
 274 245 l 1,14,-1
 432 0 l 1,15,-1
 343 0 l 1,16,-1
 272 113 l 2,17,18
 259 135 259 135 246 157 c 128,-1,19
 233 179 233 179 219 200 c 1,20,-1
 215 200 l 1,21,22
 202 179 202 179 190 157.5 c 128,-1,23
 178 136 178 136 166 113 c 2,24,-1
 100 0 l 1,25,-1
 14 0 l 1,0,-1
EndSplineSet
Validated: 1
Substitution2: "'sups' Superscript lookup 26 subtable" x.sups
Substitution2: "'smcp' Lowercase to Small Capitals lookup 20 subtable" X.sc
AlternateSubs2: "'aalt' Access All Alternates lookup 1 subtable" X.sc x.sups
EndChar

StartChar: y
Encoding: 121 121 52
Width: 467
GlyphClass: 2
Flags: W
AnchorPoint: "Anchor-4" 200 -242 basechar 0
AnchorPoint: "Anchor-0" 243 509 basechar 0
LayerCount: 2
Fore
SplineSet
90 -209 m 0,0,1
 73 -209 73 -209 59 -206.5 c 128,-1,2
 45 -204 45 -204 33 -199 c 1,3,-1
 49 -134 l 1,4,5
 57 -136 57 -136 67 -138.5 c 128,-1,6
 77 -141 77 -141 86 -141 c 0,7,8
 128 -141 128 -141 154.5 -111.5 c 128,-1,9
 181 -82 181 -82 196 -37 c 2,10,-1
 207 -1 l 1,11,-1
 12 486 l 1,12,-1
 97 486 l 1,13,-1
 196 217 l 2,14,15
 207 185 207 185 219.5 149.5 c 128,-1,16
 232 114 232 114 243 80 c 1,17,-1
 247 80 l 1,18,19
 258 113 258 113 268 149 c 128,-1,20
 278 185 278 185 288 217 c 2,21,-1
 375 486 l 1,22,-1
 455 486 l 1,23,-1
 272 -40 l 2,24,25
 259 -76 259 -76 243 -107 c 128,-1,26
 227 -138 227 -138 205 -160.5 c 128,-1,27
 183 -183 183 -183 155 -196 c 128,-1,28
 127 -209 127 -209 90 -209 c 0,0,1
EndSplineSet
Validated: 1
Substitution2: "'sups' Superscript lookup 26 subtable" y.sups
Substitution2: "'smcp' Lowercase to Small Capitals lookup 20 subtable" Y.sc
AlternateSubs2: "'aalt' Access All Alternates lookup 1 subtable" Y.sc y.sups
EndChar

StartChar: z
Encoding: 122 122 53
Width: 425
GlyphClass: 2
Flags: W
AnchorPoint: "Anchor-4" 228 -22 basechar 0
AnchorPoint: "Anchor-0" 229 509 basechar 0
LayerCount: 2
Fore
SplineSet
31 0 m 1,0,-1
 31 44 l 1,1,-1
 287 419 l 1,2,-1
 59 419 l 1,3,-1
 59 486 l 1,4,-1
 391 486 l 1,5,-1
 391 442 l 1,6,-1
 135 67 l 1,7,-1
 399 67 l 1,8,-1
 399 0 l 1,9,-1
 31 0 l 1,0,-1
EndSplineSet
Validated: 1
Substitution2: "'sups' Superscript lookup 26 subtable" z.sups
Substitution2: "'smcp' Lowercase to Small Capitals lookup 20 subtable" Z.sc
AlternateSubs2: "'aalt' Access All Alternates lookup 1 subtable" Z.sc z.sups
EndChar

StartChar: Aogonek
Encoding: 260 260 75
Width: 544
GlyphClass: 2
Flags: W
AnchorPoint: "Anchor-1" 272 678 basechar 0
LayerCount: 2
Fore
SplineSet
492 -212 m 0,0,1
 452 -212 452 -212 424 -190 c 128,-1,2
 396 -168 396 -168 396 -125 c 0,3,4
 396 -105 396 -105 403 -86 c 128,-1,5
 410 -67 410 -67 421 -51 c 128,-1,6
 432 -35 432 -35 445 -22 c 128,-1,7
 458 -9 458 -9 471 0 c 1,8,-1
 452 0 l 1,9,-1
 390 200 l 1,10,-1
 151 200 l 1,11,-1
 88 0 l 1,12,-1
 3 0 l 1,13,-1
 225 656 l 1,14,-1
 319 656 l 1,15,-1
 541 0 l 1,16,17
 506 -14 506 -14 483.5 -45 c 128,-1,18
 461 -76 461 -76 461 -107 c 0,19,20
 461 -130 461 -130 475 -141.5 c 128,-1,21
 489 -153 489 -153 507 -153 c 0,22,23
 530 -153 530 -153 549 -139 c 1,24,-1
 572 -184 l 1,25,26
 557 -195 557 -195 534.5 -203.5 c 128,-1,27
 512 -212 512 -212 492 -212 c 0,0,1
203 367 m 2,28,-1
 172 267 l 1,29,-1
 369 267 l 1,30,-1
 338 367 l 2,31,32
 320 422 320 422 304 476.5 c 128,-1,33
 288 531 288 531 272 588 c 1,34,-1
 268 588 l 1,35,36
 253 531 253 531 237 476.5 c 128,-1,37
 221 422 221 422 203 367 c 2,28,-1
EndSplineSet
Validated: 1
Substitution2: "'c2sc' Capitals to Small Capitals lookup 17 subtable" Aogonek.sc
Ligature2: "'ccmp' Glyph Composition/Decomposition lookup 11 subtable" A uni0328
Substitution2: "'aalt' Access All Alternates lookup 0 subtable" Aogonek.sc
EndChar

StartChar: AE
Encoding: 198 198 76
Width: 822
GlyphClass: 2
Flags: W
AnchorPoint: "Anchor-1" 564 694 basechar 0
LayerCount: 2
Fore
SplineSet
290 376 m 2,0,-1
 229 258 l 1,1,-1
 401 258 l 1,2,-1
 401 590 l 1,3,-1
 397 590 l 1,4,5
 344 483 344 483 290 376 c 2,0,-1
8 0 m 1,6,-1
 352 656 l 1,7,-1
 763 656 l 1,8,-1
 763 586 l 1,9,-1
 485 586 l 1,10,-1
 485 380 l 1,11,-1
 717 380 l 1,12,-1
 717 309 l 1,13,-1
 485 309 l 1,14,-1
 485 71 l 1,15,-1
 773 71 l 1,16,-1
 773 0 l 1,17,-1
 401 0 l 1,18,-1
 401 191 l 1,19,-1
 195 191 l 1,20,-1
 96 0 l 1,21,-1
 8 0 l 1,6,-1
EndSplineSet
Validated: 1
Substitution2: "'c2sc' Capitals to Small Capitals lookup 17 subtable" AE.sc
Substitution2: "'aalt' Access All Alternates lookup 0 subtable" AE.sc
EndChar

StartChar: uni0243
Encoding: 579 579 79
Width: 603
Flags: W
LayerCount: 2
Fore
SplineSet
107 0 m 1,0,-1
 107 177 l 1,1,-1
 30 177 l 1,2,-1
 30 220 l 1,3,-1
 107 224 l 1,4,-1
 107 656 l 1,5,-1
 302 656 l 2,6,7
 352 656 352 656 393.5 647 c 128,-1,8
 435 638 435 638 464.5 619 c 128,-1,9
 494 600 494 600 510.5 570 c 128,-1,10
 527 540 527 540 527 498 c 0,11,12
 527 450 527 450 499 412.5 c 128,-1,13
 471 375 471 375 413 360 c 1,14,-1
 413 356 l 1,15,16
 485 345 485 345 525 305 c 128,-1,17
 565 265 565 265 565 196 c 0,18,19
 565 146 565 146 547 109.5 c 128,-1,20
 529 73 529 73 496 48.5 c 128,-1,21
 463 24 463 24 417.5 12 c 128,-1,22
 372 0 372 0 317 0 c 2,23,-1
 107 0 l 1,0,-1
190 380 m 1,24,-1
 288 380 l 2,25,26
 372 380 372 380 409.5 408.5 c 128,-1,27
 447 437 447 437 447 492 c 0,28,29
 447 546 447 546 407.5 570 c 128,-1,30
 368 594 368 594 291 594 c 2,31,-1
 190 594 l 1,32,-1
 190 380 l 1,24,-1
190 63 m 1,33,-1
 305 63 l 2,34,35
 390 63 390 63 437 96.5 c 128,-1,36
 484 130 484 130 484 200 c 0,37,38
 484 265 484 265 437.5 295 c 128,-1,39
 391 325 391 325 305 325 c 2,40,-1
 190 325 l 1,41,-1
 190 224 l 1,42,-1
 342 224 l 1,43,-1
 342 177 l 1,44,-1
 190 177 l 1,45,-1
 190 63 l 1,33,-1
EndSplineSet
Validated: 1
Substitution2: "'c2sc' Capitals to Small Capitals lookup 17 subtable" uni0243.sc
Substitution2: "'aalt' Access All Alternates lookup 0 subtable" uni0243.sc
EndChar

StartChar: Eogonek
Encoding: 280 280 106
Width: 527
GlyphClass: 2
Flags: W
AnchorPoint: "Anchor-1" 285 678 basechar 0
LayerCount: 2
Fore
SplineSet
414 -212 m 0,0,1
 374 -212 374 -212 346 -190 c 128,-1,2
 318 -168 318 -168 318 -125 c 0,3,4
 318 -83 318 -83 341.5 -50.5 c 128,-1,5
 365 -18 365 -18 393 0 c 1,6,-1
 90 0 l 1,7,-1
 90 656 l 1,8,-1
 468 656 l 1,9,-1
 468 586 l 1,10,-1
 173 586 l 1,11,-1
 173 380 l 1,12,-1
 422 380 l 1,13,-1
 422 309 l 1,14,-1
 173 309 l 1,15,-1
 173 71 l 1,16,-1
 478 71 l 1,17,-1
 478 0 l 1,18,-1
 475 0 l 2,19,20
 458 -2 458 -2 441.5 -11.5 c 128,-1,21
 425 -21 425 -21 412 -35.5 c 128,-1,22
 399 -50 399 -50 391 -68.5 c 128,-1,23
 383 -87 383 -87 383 -107 c 0,24,25
 383 -130 383 -130 398 -141.5 c 128,-1,26
 413 -153 413 -153 431 -153 c 0,27,28
 452 -153 452 -153 471 -139 c 1,29,-1
 494 -184 l 1,30,31
 480 -195 480 -195 457 -203.5 c 128,-1,32
 434 -212 434 -212 414 -212 c 0,0,1
EndSplineSet
Validated: 1
Substitution2: "'c2sc' Capitals to Small Capitals lookup 17 subtable" Eogonek.sc
Ligature2: "'ccmp' Glyph Composition/Decomposition lookup 11 subtable" E uni0328
Substitution2: "'aalt' Access All Alternates lookup 0 subtable" Eogonek.sc
EndChar

StartChar: uni0193
Encoding: 403 403 116
Width: 617
Flags: W
LayerCount: 2
Fore
SplineSet
348 -12 m 0,0,1
 283 -12 283 -12 228.5 11 c 128,-1,2
 174 34 174 34 135 77.5 c 128,-1,3
 96 121 96 121 74 184.5 c 128,-1,4
 52 248 52 248 52 328 c 0,5,6
 52 407 52 407 74.5 470 c 128,-1,7
 97 533 97 533 137 577 c 128,-1,8
 177 621 177 621 232.5 644.5 c 128,-1,9
 288 668 288 668 353 668 c 0,10,11
 379 668 379 668 401.5 664.5 c 128,-1,12
 424 661 424 661 444 655 c 1,13,14
 438 674 438 674 438 695 c 0,15,16
 438 743 438 743 469 773.5 c 128,-1,17
 500 804 500 804 551 804 c 0,18,19
 571 804 571 804 586 800 c 128,-1,20
 601 796 601 796 613 791 c 1,21,-1
 597 728 l 1,22,23
 589 731 589 731 581.5 734 c 128,-1,24
 574 737 574 737 563 737 c 0,25,26
 537 737 537 737 523.5 721.5 c 128,-1,27
 510 706 510 706 510 683 c 256,28,29
 510 660 510 660 517.5 643.5 c 128,-1,30
 525 627 525 627 542 604 c 1,31,-1
 496 549 l 1,32,33
 471 568 471 568 438 581.5 c 128,-1,34
 405 595 405 595 355 595 c 256,35,36
 305 595 305 595 265 576.5 c 128,-1,37
 225 558 225 558 197 523.5 c 128,-1,38
 169 489 169 489 153.5 440 c 128,-1,39
 138 391 138 391 138 330 c 0,40,41
 138 268 138 268 152.5 218.5 c 128,-1,42
 167 169 167 169 194.5 134 c 128,-1,43
 222 99 222 99 262.5 80 c 128,-1,44
 303 61 303 61 356 61 c 0,45,46
 391 61 391 61 422.5 71.5 c 128,-1,47
 454 82 454 82 474 100 c 1,48,-1
 474 271 l 1,49,-1
 335 271 l 1,50,-1
 335 340 l 1,51,-1
 550 340 l 1,52,-1
 550 64 l 1,53,54
 518 31 518 31 466 9.5 c 128,-1,55
 414 -12 414 -12 348 -12 c 0,0,1
EndSplineSet
Validated: 1
Substitution2: "'c2sc' Capitals to Small Capitals lookup 17 subtable" uni0193.sc
Substitution2: "'aalt' Access All Alternates lookup 0 subtable" uni0193.sc
EndChar

StartChar: Hbar
Encoding: 294 294 120
Width: 687
Flags: W
LayerCount: 2
Fore
SplineSet
32 492 m 1,0,-1
 32 534 l 1,1,-1
 110 539 l 1,2,-1
 110 656 l 1,3,-1
 193 656 l 1,4,-1
 193 539 l 1,5,-1
 498 539 l 1,6,-1
 498 656 l 1,7,-1
 582 656 l 1,8,-1
 582 539 l 1,9,-1
 654 539 l 1,10,-1
 654 492 l 1,11,-1
 582 492 l 1,12,-1
 582 0 l 1,13,-1
 498 0 l 1,14,-1
 498 309 l 1,15,-1
 193 309 l 1,16,-1
 193 0 l 1,17,-1
 110 0 l 1,18,-1
 110 492 l 1,19,-1
 32 492 l 1,0,-1
193 381 m 1,20,-1
 498 381 l 1,21,-1
 498 492 l 1,22,-1
 193 492 l 1,23,-1
 193 381 l 1,20,-1
EndSplineSet
Validated: 1
Substitution2: "'c2sc' Capitals to Small Capitals lookup 17 subtable" Hbar.sc
Substitution2: "'aalt' Access All Alternates lookup 0 subtable" Hbar.sc
EndChar

StartChar: Iogonek
Encoding: 302 302 131
Width: 343
GlyphClass: 2
Flags: W
AnchorPoint: "Anchor-1" 177 678 basechar 0
LayerCount: 2
Fore
SplineSet
177 -212 m 0,0,1
 138 -212 138 -212 110 -190 c 128,-1,2
 82 -168 82 -168 82 -125 c 0,3,4
 82 -84 82 -84 104 -52 c 128,-1,5
 126 -20 126 -20 150 0 c 1,6,-1
 46 0 l 1,7,-1
 46 71 l 1,8,-1
 130 71 l 1,9,-1
 130 586 l 1,10,-1
 46 586 l 1,11,-1
 46 656 l 1,12,-1
 296 656 l 1,13,-1
 296 586 l 1,14,-1
 213 586 l 1,15,-1
 213 71 l 1,16,-1
 296 71 l 1,17,-1
 296 0 l 1,18,-1
 209 0 l 1,19,20
 180 -23 180 -23 163 -50.5 c 128,-1,21
 146 -78 146 -78 146 -107 c 0,22,23
 146 -130 146 -130 161 -141.5 c 128,-1,24
 176 -153 176 -153 194 -153 c 0,25,26
 206 -153 206 -153 215.5 -149.5 c 128,-1,27
 225 -146 225 -146 234 -139 c 1,28,-1
 257 -184 l 1,29,30
 243 -195 243 -195 220 -203.5 c 128,-1,31
 197 -212 197 -212 177 -212 c 0,0,1
EndSplineSet
Substitution2: "'ss04' Style Set 4 lookup 43 subtable" Iogonek.a
Substitution2: "'c2sc' Capitals to Small Capitals lookup 17 subtable" Iogonek.sc
Ligature2: "'ccmp' Glyph Composition/Decomposition lookup 11 subtable" I uni0328
AlternateSubs2: "'aalt' Access All Alternates lookup 1 subtable" Iogonek.sc Iogonek.a
EndChar

StartChar: Lslash
Encoding: 321 321 144
Width: 489
Flags: W
LayerCount: 2
Fore
SplineSet
24 200 m 1,0,-1
 -6 253 l 1,1,-1
 95 308 l 1,2,-1
 95 656 l 1,3,-1
 178 656 l 1,4,-1
 178 345 l 1,5,-1
 354 440 l 1,6,-1
 384 387 l 1,7,-1
 178 277 l 1,8,-1
 178 71 l 1,9,-1
 465 71 l 1,10,-1
 465 0 l 1,11,-1
 95 0 l 1,12,-1
 95 240 l 1,13,-1
 24 200 l 1,0,-1
EndSplineSet
Validated: 1
Substitution2: "'c2sc' Capitals to Small Capitals lookup 17 subtable" Lslash.sc
Substitution2: "'aalt' Access All Alternates lookup 0 subtable" Lslash.sc
EndChar

StartChar: Oslash
Encoding: 216 216 173
Width: 664
GlyphClass: 2
Flags: W
AnchorPoint: "Anchor-1" 335 678 basechar 0
LayerCount: 2
Fore
SplineSet
335 -12 m 0,0,1
 231 -12 231 -12 160 53 c 1,2,-1
 96 -30 l 1,3,-1
 50 6 l 1,4,-1
 120 97 l 1,5,6
 89 142 89 142 72 200.5 c 128,-1,7
 55 259 55 259 55 331 c 0,8,9
 55 410 55 410 75.5 472.5 c 128,-1,10
 96 535 96 535 133 578.5 c 128,-1,11
 170 622 170 622 221.5 645 c 128,-1,12
 273 668 273 668 335 668 c 0,13,14
 439 668 439 668 511 605 c 1,15,-1
 573 686 l 1,16,-1
 619 651 l 1,17,-1
 550 562 l 1,18,19
 582 518 582 518 599 460.5 c 128,-1,20
 616 403 616 403 616 331 c 0,21,22
 616 252 616 252 595.5 188.5 c 128,-1,23
 575 125 575 125 537.5 80.5 c 128,-1,24
 500 36 500 36 448.5 12 c 128,-1,25
 397 -12 397 -12 335 -12 c 0,0,1
141 331 m 0,26,27
 141 283 141 283 149.5 241.5 c 128,-1,28
 158 200 158 200 174 168 c 1,29,-1
 462 541 l 1,30,31
 411 595 411 595 335 595 c 0,32,33
 291 595 291 595 255.5 576.5 c 128,-1,34
 220 558 220 558 194.5 524 c 128,-1,35
 169 490 169 490 155 441 c 128,-1,36
 141 392 141 392 141 331 c 0,26,27
335 61 m 0,37,38
 379 61 379 61 414.5 80 c 128,-1,39
 450 99 450 99 475.5 134.5 c 128,-1,40
 501 170 501 170 515 219.5 c 128,-1,41
 529 269 529 269 529 331 c 0,42,43
 529 379 529 379 520.5 419 c 128,-1,44
 512 459 512 459 496 491 c 1,45,-1
 209 117 l 1,46,47
 259 61 259 61 335 61 c 0,37,38
EndSplineSet
Validated: 1
Substitution2: "'c2sc' Capitals to Small Capitals lookup 17 subtable" Oslash.sc
Substitution2: "'aalt' Access All Alternates lookup 0 subtable" Oslash.sc
EndChar

StartChar: OE
Encoding: 338 338 174
Width: 847
GlyphClass: 2
Flags: W
AnchorPoint: "Anchor-1" 532 678 basechar 0
LayerCount: 2
Fore
SplineSet
369 0 m 2,0,1
 294 0 294 0 235.5 22.5 c 128,-1,2
 177 45 177 45 136 87.5 c 128,-1,3
 95 130 95 130 73.5 191.5 c 128,-1,4
 52 253 52 253 52 331 c 0,5,6
 52 488 52 488 136 572 c 128,-1,7
 220 656 220 656 373 656 c 2,8,-1
 788 656 l 1,9,-1
 788 586 l 1,10,-1
 510 586 l 1,11,-1
 510 380 l 1,12,-1
 742 380 l 1,13,-1
 742 309 l 1,14,-1
 510 309 l 1,15,-1
 510 71 l 1,16,-1
 798 71 l 1,17,-1
 798 0 l 1,18,-1
 369 0 l 2,0,1
379 68 m 2,19,-1
 427 68 l 1,20,-1
 427 588 l 1,21,-1
 379 588 l 2,22,23
 260 588 260 588 199 522 c 128,-1,24
 138 456 138 456 138 331 c 0,25,26
 138 205 138 205 199 136.5 c 128,-1,27
 260 68 260 68 379 68 c 2,19,-1
EndSplineSet
Validated: 1
Substitution2: "'c2sc' Capitals to Small Capitals lookup 17 subtable" OE.sc
Substitution2: "'aalt' Access All Alternates lookup 0 subtable" OE.sc
EndChar

StartChar: Ohorn
Encoding: 416 416 175
Width: 664
GlyphClass: 2
Flags: W
AnchorPoint: "Anchor-4" 331 -22 basechar 0
AnchorPoint: "Anchor-1" 335 678 basechar 0
LayerCount: 2
Fore
SplineSet
335 -12 m 256,0,1
 273 -12 273 -12 221.5 12 c 128,-1,2
 170 36 170 36 133 80.5 c 128,-1,3
 96 125 96 125 75.5 188.5 c 128,-1,4
 55 252 55 252 55 331 c 256,5,6
 55 410 55 410 75.5 472.5 c 128,-1,7
 96 535 96 535 133 578.5 c 128,-1,8
 170 622 170 622 221.5 645 c 128,-1,9
 273 668 273 668 335 668 c 0,10,11
 406 668 406 668 465 637 c 1,12,13
 507 645 507 645 526.5 664.5 c 128,-1,14
 546 684 546 684 546 719 c 0,15,16
 546 734 546 734 542 749.5 c 128,-1,17
 538 765 538 765 532 777 c 1,18,-1
 597 805 l 1,19,20
 607 788 607 788 613.5 768 c 128,-1,21
 620 748 620 748 620 725 c 0,22,23
 620 674 620 674 591.5 645 c 128,-1,24
 563 616 563 616 513 603 c 1,25,26
 561 559 561 559 588.5 490.5 c 128,-1,27
 616 422 616 422 616 331 c 0,28,29
 616 252 616 252 595.5 188.5 c 128,-1,30
 575 125 575 125 537.5 80.5 c 128,-1,31
 500 36 500 36 448.5 12 c 128,-1,32
 397 -12 397 -12 335 -12 c 256,0,1
335 61 m 256,33,34
 379 61 379 61 414.5 80 c 128,-1,35
 450 99 450 99 475.5 134.5 c 128,-1,36
 501 170 501 170 515 219.5 c 128,-1,37
 529 269 529 269 529 331 c 0,38,39
 529 392 529 392 515 441 c 128,-1,40
 501 490 501 490 475.5 524 c 128,-1,41
 450 558 450 558 414.5 576.5 c 128,-1,42
 379 595 379 595 335 595 c 256,43,44
 291 595 291 595 255.5 576.5 c 128,-1,45
 220 558 220 558 194.5 524 c 128,-1,46
 169 490 169 490 155 441 c 128,-1,47
 141 392 141 392 141 331 c 0,48,49
 141 269 141 269 155 219.5 c 128,-1,50
 169 170 169 170 194.5 134.5 c 128,-1,51
 220 99 220 99 255.5 80 c 128,-1,52
 291 61 291 61 335 61 c 256,33,34
EndSplineSet
Validated: 1
Substitution2: "'c2sc' Capitals to Small Capitals lookup 17 subtable" Ohorn.sc
Substitution2: "'aalt' Access All Alternates lookup 0 subtable" Ohorn.sc
EndChar

StartChar: uni01EA
Encoding: 490 490 181
Width: 664
GlyphClass: 2
Flags: W
AnchorPoint: "Anchor-1" 331 678 basechar 0
LayerCount: 2
Fore
SplineSet
361 -212 m 0,0,1
 321 -212 321 -212 293.5 -190 c 128,-1,2
 266 -168 266 -168 266 -125 c 0,3,4
 266 -92 266 -92 283.5 -62.5 c 128,-1,5
 301 -33 301 -33 327 -11 c 1,6,7
 264 -10 264 -10 213 15 c 128,-1,8
 162 40 162 40 126 84.5 c 128,-1,9
 90 129 90 129 71 191.5 c 128,-1,10
 52 254 52 254 52 331 c 0,11,12
 52 410 52 410 72.5 472.5 c 128,-1,13
 93 535 93 535 130 578.5 c 128,-1,14
 167 622 167 622 218.5 645 c 128,-1,15
 270 668 270 668 332 668 c 256,16,17
 394 668 394 668 445.5 644.5 c 128,-1,18
 497 621 497 621 534.5 577.5 c 128,-1,19
 572 534 572 534 592.5 471.5 c 128,-1,20
 613 409 613 409 613 331 c 0,21,22
 613 264 613 264 599.5 211 c 128,-1,23
 586 158 586 158 559.5 117 c 128,-1,24
 533 76 533 76 495 45.5 c 128,-1,25
 457 15 457 15 408 -7 c 0,26,27
 367 -25 367 -25 348.5 -53 c 128,-1,28
 330 -81 330 -81 330 -107 c 0,29,30
 330 -130 330 -130 345 -141.5 c 128,-1,31
 360 -153 360 -153 378 -153 c 0,32,33
 390 -153 390 -153 399.5 -149.5 c 128,-1,34
 409 -146 409 -146 418 -139 c 1,35,-1
 441 -184 l 1,36,37
 427 -195 427 -195 404 -203.5 c 128,-1,38
 381 -212 381 -212 361 -212 c 0,0,1
332 61 m 256,39,40
 376 61 376 61 411.5 80 c 128,-1,41
 447 99 447 99 472.5 134.5 c 128,-1,42
 498 170 498 170 512 219.5 c 128,-1,43
 526 269 526 269 526 331 c 0,44,45
 526 392 526 392 512 441 c 128,-1,46
 498 490 498 490 472.5 524 c 128,-1,47
 447 558 447 558 411.5 576.5 c 128,-1,48
 376 595 376 595 332 595 c 256,49,50
 288 595 288 595 252.5 576.5 c 128,-1,51
 217 558 217 558 191.5 524 c 128,-1,52
 166 490 166 490 152 441 c 128,-1,53
 138 392 138 392 138 331 c 0,54,55
 138 269 138 269 152 219.5 c 128,-1,56
 166 170 166 170 191.5 134.5 c 128,-1,57
 217 99 217 99 252.5 80 c 128,-1,58
 288 61 288 61 332 61 c 256,39,40
EndSplineSet
Validated: 1
Substitution2: "'c2sc' Capitals to Small Capitals lookup 17 subtable" uni01EA.sc
Ligature2: "'ccmp' Glyph Composition/Decomposition lookup 11 subtable" O uni0328
Substitution2: "'aalt' Access All Alternates lookup 0 subtable" uni01EA.sc
EndChar

StartChar: uni1E9E
Encoding: 7838 7838 196
Width: 667
Flags: W
LayerCount: 2
Fore
SplineSet
434 -12 m 0,0,1
 376 -12 376 -12 330 9 c 128,-1,2
 284 30 284 30 253 64 c 1,3,-1
 301 118 l 1,4,5
 330 86 330 86 360 72 c 128,-1,6
 390 58 390 58 427 58 c 0,7,8
 480 58 480 58 509 89.5 c 128,-1,9
 538 121 538 121 538 171 c 0,10,11
 538 194 538 194 529.5 215 c 128,-1,12
 521 236 521 236 499 254 c 128,-1,13
 477 272 477 272 439.5 286 c 128,-1,14
 402 300 402 300 345 310 c 1,15,-1
 340 364 l 1,16,-1
 477 517 l 1,17,18
 460 551 460 551 427.5 575 c 128,-1,19
 395 599 395 599 344 599 c 0,20,21
 264 599 264 599 219.5 551.5 c 128,-1,22
 175 504 175 504 175 402 c 2,23,-1
 175 0 l 1,24,-1
 91 0 l 1,25,-1
 91 417 l 2,26,27
 91 535 91 535 158 601.5 c 128,-1,28
 225 668 225 668 347 668 c 0,29,30
 431 668 431 668 484 626 c 128,-1,31
 537 584 537 584 564 514 c 1,32,-1
 426 362 l 1,33,34
 531 341 531 341 577.5 292 c 128,-1,35
 624 243 624 243 624 171 c 0,36,37
 624 132 624 132 610.5 98.5 c 128,-1,38
 597 65 597 65 572 40.5 c 128,-1,39
 547 16 547 16 512 2 c 128,-1,40
 477 -12 477 -12 434 -12 c 0,0,1
EndSplineSet
Validated: 1
Substitution2: "'c2sc' Capitals to Small Capitals lookup 17 subtable" uni1E9E.sc
Substitution2: "'aalt' Access All Alternates lookup 0 subtable" uni1E9E.sc
EndChar

StartChar: uni0166
Encoding: 358 358 202
Width: 536
Flags: W
LayerCount: 2
Fore
SplineSet
226 0 m 1,0,-1
 226 313 l 1,1,-1
 103 313 l 1,2,-1
 103 357 l 1,3,-1
 191 360 l 1,4,-1
 226 360 l 1,5,-1
 226 586 l 1,6,-1
 28 586 l 1,7,-1
 28 656 l 1,8,-1
 508 656 l 1,9,-1
 508 586 l 1,10,-1
 310 586 l 1,11,-1
 310 360 l 1,12,-1
 433 360 l 1,13,-1
 433 313 l 1,14,-1
 310 313 l 1,15,-1
 310 0 l 1,16,-1
 226 0 l 1,0,-1
EndSplineSet
Validated: 1
Substitution2: "'c2sc' Capitals to Small Capitals lookup 17 subtable" uni0166.sc
Substitution2: "'aalt' Access All Alternates lookup 0 subtable" uni0166.sc
EndChar

StartChar: Uogonek
Encoding: 370 370 219
Width: 645
GlyphClass: 2
Flags: W
AnchorPoint: "Anchor-1" 322 678 basechar 0
LayerCount: 2
Fore
SplineSet
350 -212 m 0,0,1
 310 -212 310 -212 282 -190 c 128,-1,2
 254 -168 254 -168 254 -125 c 0,3,4
 254 -104 254 -104 260.5 -87.5 c 128,-1,5
 267 -71 267 -71 276.5 -57 c 128,-1,6
 286 -43 286 -43 297.5 -31.5 c 128,-1,7
 309 -20 309 -20 318 -11 c 1,8,9
 267 -10 267 -10 224.5 6 c 128,-1,10
 182 22 182 22 151.5 55.5 c 128,-1,11
 121 89 121 89 104 142 c 128,-1,12
 87 195 87 195 87 271 c 2,13,-1
 87 656 l 1,14,-1
 170 656 l 1,15,-1
 170 269 l 2,16,17
 170 210 170 210 182 170 c 128,-1,18
 194 130 194 130 214.5 106 c 128,-1,19
 235 82 235 82 263 71.5 c 128,-1,20
 291 61 291 61 323 61 c 0,21,22
 356 61 356 61 384 71.5 c 128,-1,23
 412 82 412 82 433 106 c 128,-1,24
 454 130 454 130 466 170 c 128,-1,25
 478 210 478 210 478 269 c 2,26,-1
 478 656 l 1,27,-1
 558 656 l 1,28,-1
 558 271 l 2,29,30
 558 205 558 205 546.5 159.5 c 128,-1,31
 535 114 535 114 514 82.5 c 128,-1,32
 493 51 493 51 463.5 30.5 c 128,-1,33
 434 10 434 10 398 -7 c 0,34,35
 359 -26 359 -26 339 -54 c 128,-1,36
 319 -82 319 -82 319 -107 c 0,37,38
 319 -130 319 -130 334 -141.5 c 128,-1,39
 349 -153 349 -153 367 -153 c 0,40,41
 388 -153 388 -153 407 -139 c 1,42,-1
 430 -184 l 1,43,44
 416 -195 416 -195 393 -203.5 c 128,-1,45
 370 -212 370 -212 350 -212 c 0,0,1
EndSplineSet
Validated: 1
Substitution2: "'c2sc' Capitals to Small Capitals lookup 17 subtable" Uogonek.sc
Ligature2: "'ccmp' Glyph Composition/Decomposition lookup 11 subtable" U uni0328
Substitution2: "'aalt' Access All Alternates lookup 0 subtable" Uogonek.sc
EndChar

StartChar: Uhorn
Encoding: 431 431 220
Width: 659
GlyphClass: 2
Flags: W
AnchorPoint: "Anchor-4" 322 -22 basechar 0
AnchorPoint: "Anchor-1" 323 678 basechar 0
LayerCount: 2
Fore
SplineSet
323 -12 m 256,0,1
 273 -12 273 -12 229.5 2.5 c 128,-1,2
 186 17 186 17 154.5 50.5 c 128,-1,3
 123 84 123 84 105 138 c 128,-1,4
 87 192 87 192 87 271 c 2,5,-1
 87 656 l 1,6,-1
 170 656 l 1,7,-1
 170 269 l 2,8,9
 170 210 170 210 182 170 c 128,-1,10
 194 130 194 130 214.5 106 c 128,-1,11
 235 82 235 82 263 71.5 c 128,-1,12
 291 61 291 61 323 61 c 0,13,14
 356 61 356 61 384 71.5 c 128,-1,15
 412 82 412 82 433 106 c 128,-1,16
 454 130 454 130 466 170 c 128,-1,17
 478 210 478 210 478 269 c 2,18,-1
 478 656 l 1,19,-1
 511 656 l 1,20,21
 553 661 553 661 577 679 c 128,-1,22
 601 697 601 697 601 739 c 0,23,24
 601 754 601 754 597 769.5 c 128,-1,25
 593 785 593 785 586 797 c 1,26,-1
 651 825 l 1,27,28
 662 808 662 808 668 788 c 128,-1,29
 674 768 674 768 674 745 c 0,30,31
 674 716 674 716 665 695 c 128,-1,32
 656 674 656 674 640.5 659 c 128,-1,33
 625 644 625 644 603.5 635 c 128,-1,34
 582 626 582 626 558 620 c 1,35,-1
 558 271 l 2,36,37
 558 192 558 192 540 138 c 128,-1,38
 522 84 522 84 490.5 50.5 c 128,-1,39
 459 17 459 17 416 2.5 c 128,-1,40
 373 -12 373 -12 323 -12 c 256,0,1
EndSplineSet
Validated: 1
Substitution2: "'c2sc' Capitals to Small Capitals lookup 17 subtable" Uhorn.sc
Substitution2: "'aalt' Access All Alternates lookup 0 subtable" Uhorn.sc
EndChar

StartChar: Eth
Encoding: 208 208 243
Width: 638
Flags: W
LayerCount: 2
Fore
SplineSet
33 321 m 1,0,-1
 33 364 l 1,1,-1
 112 368 l 1,2,-1
 112 656 l 1,3,-1
 276 656 l 2,4,5
 428 656 428 656 507 572 c 128,-1,6
 586 488 586 488 586 331 c 0,7,8
 586 253 586 253 566 191.5 c 128,-1,9
 546 130 546 130 507 87.5 c 128,-1,10
 468 45 468 45 411 22.5 c 128,-1,11
 354 0 354 0 280 0 c 2,12,-1
 112 0 l 1,13,-1
 112 321 l 1,14,-1
 33 321 l 1,0,-1
195 68 m 1,15,-1
 270 68 l 2,16,17
 385 68 385 68 442.5 137 c 128,-1,18
 500 206 500 206 500 331 c 256,19,20
 500 456 500 456 442.5 522 c 128,-1,21
 385 588 385 588 270 588 c 2,22,-1
 195 588 l 1,23,-1
 195 368 l 1,24,-1
 344 368 l 1,25,-1
 344 321 l 1,26,-1
 195 321 l 1,27,-1
 195 68 l 1,15,-1
EndSplineSet
Validated: 1
Substitution2: "'c2sc' Capitals to Small Capitals lookup 17 subtable" Eth.sc
Substitution2: "'aalt' Access All Alternates lookup 0 subtable" Eth.sc
EndChar

StartChar: Thorn
Encoding: 222 222 244
Width: 583
Flags: W
LayerCount: 2
Fore
SplineSet
90 0 m 1,0,-1
 90 656 l 1,1,-1
 173 656 l 1,2,-1
 173 546 l 1,3,-1
 291 546 l 2,4,5
 345 546 345 546 390 536 c 128,-1,6
 435 526 435 526 466.5 503 c 128,-1,7
 498 480 498 480 515.5 443.5 c 128,-1,8
 533 407 533 407 533 353 c 0,9,10
 533 301 533 301 515.5 262.5 c 128,-1,11
 498 224 498 224 466 199 c 128,-1,12
 434 174 434 174 389.5 162 c 128,-1,13
 345 150 345 150 291 150 c 2,14,-1
 173 150 l 1,15,-1
 173 0 l 1,16,-1
 90 0 l 1,0,-1
173 218 m 1,17,-1
 281 218 l 2,18,19
 367 218 367 218 408.5 250 c 128,-1,20
 450 282 450 282 450 353 c 256,21,22
 450 424 450 424 408 451 c 128,-1,23
 366 478 366 478 281 478 c 2,24,-1
 173 478 l 1,25,-1
 173 218 l 1,17,-1
EndSplineSet
Validated: 1
Substitution2: "'c2sc' Capitals to Small Capitals lookup 17 subtable" Thorn.sc
Substitution2: "'aalt' Access All Alternates lookup 0 subtable" Thorn.sc
EndChar

StartChar: uni018F
Encoding: 399 399 245
Width: 658
GlyphClass: 2
Flags: W
AnchorPoint: "Anchor-4" 346 -22 basechar 0
AnchorPoint: "Anchor-1" 342 678 basechar 0
LayerCount: 2
Fore
SplineSet
327 -12 m 0,0,1
 264 -12 264 -12 214 11.5 c 128,-1,2
 164 35 164 35 129.5 79 c 128,-1,3
 95 123 95 123 76.5 185.5 c 128,-1,4
 58 248 58 248 58 325 c 0,5,6
 58 330 58 330 58.5 336.5 c 128,-1,7
 59 343 59 343 60 350 c 1,8,-1
 524 350 l 1,9,10
 519 471 519 471 469 535 c 128,-1,11
 419 599 419 599 325 599 c 0,12,13
 275 599 275 599 234.5 581 c 128,-1,14
 194 563 194 563 165 534 c 1,15,-1
 124 591 l 1,16,17
 159 625 159 625 211.5 646.5 c 128,-1,18
 264 668 264 668 331 668 c 0,19,20
 460 668 460 668 533 581.5 c 128,-1,21
 606 495 606 495 606 330 c 0,22,23
 606 248 606 248 586.5 184.5 c 128,-1,24
 567 121 567 121 530.5 77.5 c 128,-1,25
 494 34 494 34 442.5 11 c 128,-1,26
 391 -12 391 -12 327 -12 c 0,0,1
327 57 m 0,27,28
 411 57 411 57 462.5 115.5 c 128,-1,29
 514 174 514 174 522 286 c 1,30,-1
 143 286 l 1,31,32
 148 177 148 177 197.5 117 c 128,-1,33
 247 57 247 57 327 57 c 0,27,28
EndSplineSet
Validated: 1
Substitution2: "'c2sc' Capitals to Small Capitals lookup 17 subtable" uni018F.sc
Substitution2: "'aalt' Access All Alternates lookup 0 subtable" uni018F.sc
EndChar

StartChar: uni014A
Encoding: 330 330 246
Width: 635
GlyphClass: 2
Flags: W
AnchorPoint: "Anchor-1" 348 678 basechar 0
LayerCount: 2
Fore
SplineSet
406 -12 m 0,0,1
 386 -12 386 -12 364 -8.5 c 128,-1,2
 342 -5 342 -5 328 3 c 1,3,-1
 348 78 l 1,4,5
 359 73 359 73 370.5 70 c 128,-1,6
 382 67 382 67 398 67 c 0,7,8
 418 67 418 67 436 79.5 c 128,-1,9
 454 92 454 92 467.5 123 c 128,-1,10
 481 154 481 154 489 205.5 c 128,-1,11
 497 257 497 257 497 335 c 0,12,13
 497 409 497 409 485.5 459 c 128,-1,14
 474 509 474 509 452.5 539 c 128,-1,15
 431 569 431 569 401 582 c 128,-1,16
 371 595 371 595 335 595 c 0,17,18
 315 595 315 595 293 587.5 c 128,-1,19
 271 580 271 580 249.5 567 c 128,-1,20
 228 554 228 554 208 536 c 128,-1,21
 188 518 188 518 173 497 c 1,22,-1
 173 0 l 1,23,-1
 90 0 l 1,24,-1
 90 656 l 1,25,-1
 171 656 l 1,26,-1
 171 575 l 1,27,28
 206 615 206 615 255 641.5 c 128,-1,29
 304 668 304 668 356 668 c 0,30,31
 405 668 405 668 446.5 650.5 c 128,-1,32
 488 633 488 633 518.5 593.5 c 128,-1,33
 549 554 549 554 566 490.5 c 128,-1,34
 583 427 583 427 583 335 c 0,35,36
 583 240 583 240 570.5 174 c 128,-1,37
 558 108 558 108 534.5 67 c 128,-1,38
 511 26 511 26 478.5 7 c 128,-1,39
 446 -12 446 -12 406 -12 c 0,0,1
EndSplineSet
Validated: 1
Substitution2: "'c2sc' Capitals to Small Capitals lookup 17 subtable" uni014A.sc
Substitution2: "'salt' Stylistic Alternatives lookup 3 subtable" uni014A.a
AlternateSubs2: "'aalt' Access All Alternates lookup 1 subtable" uni014A.a uni014A.sc
EndChar

StartChar: uni0132
Encoding: 306 306 247
Width: 526
Flags: W
LayerCount: 2
Fore
SplineSet
90 0 m 1,0,-1
 90 656 l 1,1,-1
 173 656 l 1,2,-1
 173 0 l 1,3,-1
 90 0 l 1,0,-1
302 -165 m 0,4,5
 279 -165 279 -165 261 -161.5 c 128,-1,6
 243 -158 243 -158 230 -153 c 1,7,-1
 246 -87 l 1,8,9
 256 -90 256 -90 267.5 -93 c 128,-1,10
 279 -96 279 -96 292 -96 c 0,11,12
 329 -96 329 -96 341 -70.5 c 128,-1,13
 353 -45 353 -45 353 0 c 2,14,-1
 353 656 l 1,15,-1
 436 656 l 1,16,-1
 436 -3 l 2,17,18
 436 -78 436 -78 405 -121.5 c 128,-1,19
 374 -165 374 -165 302 -165 c 0,4,5
EndSplineSet
Validated: 1
Substitution2: "'c2sc' Capitals to Small Capitals lookup 17 subtable" uni0132.sc
Substitution2: "'aalt' Access All Alternates lookup 0 subtable" uni0132.sc
EndChar

StartChar: aogonek
Encoding: 261 261 269
Width: 504
GlyphClass: 2
Flags: W
AnchorPoint: "Anchor-0" 269 509 basechar 0
LayerCount: 2
Fore
SplineSet
376 -206 m 0,0,1
 338 -206 338 -206 311.5 -184.5 c 128,-1,2
 285 -163 285 -163 285 -121 c 0,3,4
 285 -101 285 -101 292 -82.5 c 128,-1,5
 299 -64 299 -64 310.5 -48 c 128,-1,6
 322 -32 322 -32 336.5 -18.5 c 128,-1,7
 351 -5 351 -5 365 4 c 1,8,-1
 358 58 l 1,9,-1
 355 58 l 1,10,11
 320 29 320 29 280 8.5 c 128,-1,12
 240 -12 240 -12 194 -12 c 0,13,14
 133 -12 133 -12 92.5 24 c 128,-1,15
 52 60 52 60 52 126 c 0,16,17
 52 206 52 206 123 248.5 c 128,-1,18
 194 291 194 291 350 308 c 1,19,20
 350 331 350 331 345.5 353 c 128,-1,21
 341 375 341 375 330 392 c 128,-1,22
 319 409 319 409 299.5 419.5 c 128,-1,23
 280 430 280 430 250 430 c 0,24,25
 208 430 208 430 171 414 c 128,-1,26
 134 398 134 398 105 378 c 1,27,-1
 73 435 l 1,28,29
 107 457 107 457 156 477.5 c 128,-1,30
 205 498 205 498 264 498 c 0,31,32
 353 498 353 498 393 443.5 c 128,-1,33
 433 389 433 389 433 298 c 2,34,-1
 433 0 l 1,35,36
 391 -17 391 -17 368.5 -46.5 c 128,-1,37
 346 -76 346 -76 346 -105 c 0,38,39
 346 -128 346 -128 360 -139.5 c 128,-1,40
 374 -151 374 -151 392 -151 c 0,41,42
 404 -151 404 -151 414 -147.5 c 128,-1,43
 424 -144 424 -144 433 -138 c 1,44,-1
 454 -179 l 1,45,46
 440 -190 440 -190 417.5 -198 c 128,-1,47
 395 -206 395 -206 376 -206 c 0,0,1
218 54 m 0,48,49
 253 54 253 54 284 70.5 c 128,-1,50
 315 87 315 87 350 119 c 1,51,-1
 350 254 l 1,52,53
 289 246 289 246 247.5 235 c 128,-1,54
 206 224 206 224 180.5 209 c 128,-1,55
 155 194 155 194 143.5 174.5 c 128,-1,56
 132 155 132 155 132 132 c 0,57,58
 132 90 132 90 157 72 c 128,-1,59
 182 54 182 54 218 54 c 0,48,49
EndSplineSet
Validated: 1
Substitution2: "'ss02' Style Set 2 lookup 39 subtable" aogonek.a
Substitution2: "'smcp' Lowercase to Small Capitals lookup 20 subtable" Aogonek.sc
Ligature2: "'ccmp' Glyph Composition/Decomposition lookup 11 subtable" a uni0328
AlternateSubs2: "'aalt' Access All Alternates lookup 1 subtable" Aogonek.sc aogonek.a
EndChar

StartChar: ae
Encoding: 230 230 270
Width: 785
GlyphClass: 2
Flags: W
AnchorPoint: "Anchor-4" 419 -22 basechar 0
AnchorPoint: "Anchor-0" 413 509 basechar 0
LayerCount: 2
Fore
SplineSet
201 -12 m 0,0,1
 139 -12 139 -12 98.5 24 c 128,-1,2
 58 60 58 60 58 126 c 0,3,4
 58 206 58 206 129 248.5 c 128,-1,5
 200 291 200 291 352 308 c 1,6,7
 352 331 352 331 348 353 c 128,-1,8
 344 375 344 375 332.5 392 c 128,-1,9
 321 409 321 409 302 419.5 c 128,-1,10
 283 430 283 430 253 430 c 0,11,12
 213 430 213 430 177 414 c 128,-1,13
 141 398 141 398 112 378 c 1,14,-1
 79 435 l 1,15,16
 113 457 113 457 161 477.5 c 128,-1,17
 209 498 209 498 263 498 c 256,18,19
 317 498 317 498 352 470.5 c 128,-1,20
 387 443 387 443 402 395 c 1,21,22
 431 443 431 443 471.5 470.5 c 128,-1,23
 512 498 512 498 562 498 c 0,24,25
 607 498 607 498 641.5 482 c 128,-1,26
 676 466 676 466 699.5 436 c 128,-1,27
 723 406 723 406 735 363.5 c 128,-1,28
 747 321 747 321 747 269 c 0,29,30
 747 241 747 241 744 223 c 1,31,-1
 429 223 l 1,32,33
 430 185 430 185 442.5 154 c 128,-1,34
 455 123 455 123 475 101 c 128,-1,35
 495 79 495 79 522 67 c 128,-1,36
 549 55 549 55 580 55 c 0,37,38
 615 55 615 55 643 66.5 c 128,-1,39
 671 78 671 78 698 95 c 1,40,-1
 728 38 l 1,41,42
 696 18 696 18 658 3 c 128,-1,43
 620 -12 620 -12 570 -12 c 0,44,45
 509 -12 509 -12 468 15.5 c 128,-1,46
 427 43 427 43 399 79 c 1,47,48
 349 34 349 34 298.5 11 c 128,-1,49
 248 -12 248 -12 201 -12 c 0,0,1
224 54 m 0,50,51
 258 54 258 54 298 73.5 c 128,-1,52
 338 93 338 93 371 129 c 1,53,54
 363 148 363 148 358 174.5 c 128,-1,55
 353 201 353 201 352 229 c 2,56,-1
 352 254 l 1,57,58
 294 246 294 246 253.5 235 c 128,-1,59
 213 224 213 224 187.5 209 c 128,-1,60
 162 194 162 194 150.5 174.5 c 128,-1,61
 139 155 139 155 139 132 c 0,62,63
 139 90 139 90 163.5 72 c 128,-1,64
 188 54 188 54 224 54 c 0,50,51
429 278 m 1,65,-1
 675 278 l 1,66,67
 675 353 675 353 645.5 393 c 128,-1,68
 616 433 616 433 560 433 c 0,69,70
 509 433 509 433 472.5 391.5 c 128,-1,71
 436 350 436 350 429 278 c 1,65,-1
EndSplineSet
Validated: 1
Substitution2: "'smcp' Lowercase to Small Capitals lookup 20 subtable" AE.sc
Substitution2: "'aalt' Access All Alternates lookup 0 subtable" AE.sc
EndChar

StartChar: uni0180
Encoding: 384 384 273
Width: 544
Flags: W
LayerCount: 2
Fore
SplineSet
297 -12 m 0,0,1
 263 -12 263 -12 226.5 4.5 c 128,-1,2
 190 21 190 21 158 50 c 1,3,-1
 155 50 l 1,4,-1
 148 0 l 1,5,-1
 82 0 l 1,6,-1
 82 571 l 1,7,-1
 8 571 l 1,8,-1
 8 614 l 1,9,-1
 82 619 l 1,10,-1
 82 712 l 1,11,-1
 164 712 l 1,12,-1
 164 619 l 1,13,-1
 346 619 l 1,14,-1
 346 571 l 1,15,-1
 164 571 l 1,16,-1
 164 478 l 1,17,-1
 162 391 l 1,18,19
 195 420 195 420 234 439.5 c 128,-1,20
 273 459 273 459 314 459 c 0,21,22
 361 459 361 459 397 442.5 c 128,-1,23
 433 426 433 426 457.5 396.5 c 128,-1,24
 482 367 482 367 494.5 325 c 128,-1,25
 507 283 507 283 507 232 c 0,26,27
 507 175 507 175 490 129.5 c 128,-1,28
 473 84 473 84 444 52.5 c 128,-1,29
 415 21 415 21 377 4.5 c 128,-1,30
 339 -12 339 -12 297 -12 c 0,0,1
283 57 m 0,31,32
 313 57 313 57 338.5 69.5 c 128,-1,33
 364 82 364 82 382.5 104.5 c 128,-1,34
 401 127 401 127 411.5 159.5 c 128,-1,35
 422 192 422 192 422 231 c 0,36,37
 422 265 422 265 415 294.5 c 128,-1,38
 408 324 408 324 392.5 345 c 128,-1,39
 377 366 377 366 352.5 378 c 128,-1,40
 328 390 328 390 294 390 c 0,41,42
 234 390 234 390 164 323 c 1,43,-1
 164 108 l 1,44,45
 196 80 196 80 227.5 68.5 c 128,-1,46
 259 57 259 57 283 57 c 0,31,32
EndSplineSet
Validated: 1
Substitution2: "'smcp' Lowercase to Small Capitals lookup 20 subtable" uni0243.sc
Substitution2: "'aalt' Access All Alternates lookup 0 subtable" uni0243.sc
EndChar

StartChar: dcroat
Encoding: 273 273 283
Width: 555
Flags: W
LayerCount: 2
Fore
SplineSet
248 -12 m 0,0,1
 156 -12 156 -12 101.5 49.5 c 128,-1,2
 47 111 47 111 47 223 c 0,3,4
 47 277 47 277 64.5 320.5 c 128,-1,5
 82 364 82 364 111 394.5 c 128,-1,6
 140 425 140 425 178 442 c 128,-1,7
 216 459 216 459 258 459 c 256,8,9
 300 459 300 459 331 443.5 c 128,-1,10
 362 428 362 428 394 402 c 1,11,-1
 390 486 l 1,12,-1
 390 571 l 1,13,-1
 229 571 l 1,14,-1
 229 619 l 1,15,-1
 390 619 l 1,16,-1
 390 712 l 1,17,-1
 473 712 l 1,18,-1
 473 619 l 1,19,-1
 545 619 l 1,20,-1
 545 576 l 1,21,-1
 473 571 l 1,22,-1
 473 0 l 1,23,-1
 403 0 l 1,24,-1
 397 55 l 1,25,-1
 394 55 l 1,26,27
 366 27 366 27 329 7.5 c 128,-1,28
 292 -12 292 -12 248 -12 c 0,0,1
266 57 m 0,29,30
 300 57 300 57 330 73.5 c 128,-1,31
 360 90 360 90 390 124 c 1,32,-1
 390 339 l 1,33,34
 359 367 359 367 330.5 378.5 c 128,-1,35
 302 390 302 390 272 390 c 0,36,37
 243 390 243 390 217.5 377.5 c 128,-1,38
 192 365 192 365 173 343 c 128,-1,39
 154 321 154 321 143 290.5 c 128,-1,40
 132 260 132 260 132 224 c 0,41,42
 132 147 132 147 167 102 c 128,-1,43
 202 57 202 57 266 57 c 0,29,30
EndSplineSet
Validated: 1
Substitution2: "'smcp' Lowercase to Small Capitals lookup 20 subtable" Dcroat.sc
Substitution2: "'aalt' Access All Alternates lookup 0 subtable" Dcroat.sc
EndChar

StartChar: eogonek
Encoding: 281 281 300
Width: 496
GlyphClass: 2
Flags: W
AnchorPoint: "Anchor-0" 264 509 basechar 0
LayerCount: 2
Fore
SplineSet
358 -206 m 0,0,1
 320 -206 320 -206 294 -184.5 c 128,-1,2
 268 -163 268 -163 268 -121 c 0,3,4
 268 -102 268 -102 273.5 -85 c 128,-1,5
 279 -68 279 -68 288 -53 c 128,-1,6
 297 -38 297 -38 307.5 -26 c 128,-1,7
 318 -14 318 -14 328 -5 c 1,8,9
 315 -10 315 -10 303 -11 c 128,-1,10
 291 -12 291 -12 279 -12 c 0,11,12
 230 -12 230 -12 187.5 5.5 c 128,-1,13
 145 23 145 23 113.5 55.5 c 128,-1,14
 82 88 82 88 64 135 c 128,-1,15
 46 182 46 182 46 242 c 256,16,17
 46 302 46 302 64.5 349.5 c 128,-1,18
 83 397 83 397 113.5 430 c 128,-1,19
 144 463 144 463 183 480.5 c 128,-1,20
 222 498 222 498 264 498 c 0,21,22
 310 498 310 498 346.5 482 c 128,-1,23
 383 466 383 466 407.5 436 c 128,-1,24
 432 406 432 406 445 364 c 128,-1,25
 458 322 458 322 458 270 c 0,26,27
 458 257 458 257 457.5 244.5 c 128,-1,28
 457 232 457 232 455 223 c 1,29,-1
 127 223 l 1,30,31
 132 145 132 145 175.5 99.5 c 128,-1,32
 219 54 219 54 289 54 c 0,33,34
 324 54 324 54 353.5 64.5 c 128,-1,35
 383 75 383 75 410 92 c 1,36,-1
 439 38 l 1,37,38
 406 15 406 15 385 -4.5 c 128,-1,39
 364 -24 364 -24 351 -41 c 128,-1,40
 338 -58 338 -58 333 -73.5 c 128,-1,41
 328 -89 328 -89 328 -105 c 0,42,43
 328 -128 328 -128 342 -139.5 c 128,-1,44
 356 -151 356 -151 375 -151 c 0,45,46
 387 -151 387 -151 396.5 -147.5 c 128,-1,47
 406 -144 406 -144 415 -138 c 1,48,-1
 436 -179 l 1,49,50
 422 -190 422 -190 399.5 -198 c 128,-1,51
 377 -206 377 -206 358 -206 c 0,0,1
126 282 m 1,52,-1
 386 282 l 1,53,54
 386 356 386 356 354.5 394.5 c 128,-1,55
 323 433 323 433 266 433 c 0,56,57
 240 433 240 433 216.5 423 c 128,-1,58
 193 413 193 413 174 393.5 c 128,-1,59
 155 374 155 374 142.5 346 c 128,-1,60
 130 318 130 318 126 282 c 1,52,-1
EndSplineSet
Validated: 1
Substitution2: "'smcp' Lowercase to Small Capitals lookup 20 subtable" Eogonek.sc
Ligature2: "'ccmp' Glyph Composition/Decomposition lookup 11 subtable" e uni0328
Substitution2: "'aalt' Access All Alternates lookup 0 subtable" Eogonek.sc
EndChar

StartChar: hbar
Encoding: 295 295 314
Width: 544
Flags: W
LayerCount: 2
Fore
SplineSet
82 0 m 1,0,-1
 82 571 l 1,1,-1
 8 571 l 1,2,-1
 8 614 l 1,3,-1
 82 619 l 1,4,-1
 82 712 l 1,5,-1
 164 712 l 1,6,-1
 164 619 l 1,7,-1
 346 619 l 1,8,-1
 346 571 l 1,9,-1
 164 571 l 1,10,-1
 164 478 l 1,11,-1
 161 378 l 1,12,13
 196 411 196 411 234 435 c 128,-1,14
 272 459 272 459 323 459 c 0,15,16
 400 459 400 459 435.5 411 c 128,-1,17
 471 363 471 363 471 269 c 2,18,-1
 471 0 l 1,19,-1
 389 0 l 1,20,-1
 389 258 l 2,21,22
 389 327 389 327 367 357 c 128,-1,23
 345 387 345 387 297 387 c 0,24,25
 259 387 259 387 230 368.5 c 128,-1,26
 201 350 201 350 164 313 c 1,27,-1
 164 0 l 1,28,-1
 82 0 l 1,0,-1
EndSplineSet
Validated: 1
Substitution2: "'smcp' Lowercase to Small Capitals lookup 20 subtable" Hbar.sc
Substitution2: "'aalt' Access All Alternates lookup 0 subtable" Hbar.sc
EndChar

StartChar: iogonek
Encoding: 303 303 324
Width: 246
GlyphClass: 3
Flags: W
LayerCount: 2
Fore
SplineSet
129 -206 m 0,0,1
 91 -206 91 -206 64.5 -184.5 c 128,-1,2
 38 -163 38 -163 38 -121 c 0,3,4
 38 -81 38 -81 59.5 -51 c 128,-1,5
 81 -21 81 -21 102 0 c 1,6,-1
 82 0 l 1,7,-1
 82 486 l 1,8,-1
 164 486 l 1,9,-1
 164 0 l 1,10,11
 134 -22 134 -22 116.5 -49 c 128,-1,12
 99 -76 99 -76 99 -105 c 0,13,14
 99 -128 99 -128 113 -139.5 c 128,-1,15
 127 -151 127 -151 146 -151 c 0,16,17
 157 -151 157 -151 166.5 -147.5 c 128,-1,18
 176 -144 176 -144 186 -138 c 1,19,-1
 207 -179 l 1,20,21
 193 -190 193 -190 170.5 -198 c 128,-1,22
 148 -206 148 -206 129 -206 c 0,0,1
123 586 m 0,23,24
 99 586 99 586 82.5 601 c 128,-1,25
 66 616 66 616 66 639 c 0,26,27
 66 663 66 663 82.5 677.5 c 128,-1,28
 99 692 99 692 123 692 c 0,29,30
 146 692 146 692 162.5 677.5 c 128,-1,31
 179 663 179 663 179 639 c 0,32,33
 179 616 179 616 162.5 601 c 128,-1,34
 146 586 146 586 123 586 c 0,23,24
EndSplineSet
Validated: 1
Substitution2: "Single Substitution lookup 49 subtable" iogonek.d
Substitution2: "'smcp' Lowercase to Small Capitals lookup 20 subtable" Iogonek.sc
Ligature2: "'ccmp' Glyph Composition/Decomposition lookup 11 subtable" i uni0328
Substitution2: "'aalt' Access All Alternates lookup 0 subtable" Iogonek.sc
EndChar

StartChar: iogonek.d
Encoding: 1114115 -1 325
Width: 246
GlyphClass: 2
Flags: W
AnchorPoint: "Anchor-0" 124 509 basechar 0
LayerCount: 2
Fore
SplineSet
129 -206 m 0,0,1
 91 -206 91 -206 64.5 -184.5 c 128,-1,2
 38 -163 38 -163 38 -121 c 0,3,4
 38 -81 38 -81 59.5 -51 c 128,-1,5
 81 -21 81 -21 102 0 c 1,6,-1
 82 0 l 1,7,-1
 82 486 l 1,8,-1
 164 486 l 1,9,-1
 164 0 l 1,10,11
 134 -22 134 -22 116.5 -49 c 128,-1,12
 99 -76 99 -76 99 -105 c 0,13,14
 99 -128 99 -128 113 -139.5 c 128,-1,15
 127 -151 127 -151 146 -151 c 0,16,17
 157 -151 157 -151 166.5 -147.5 c 128,-1,18
 176 -144 176 -144 186 -138 c 1,19,-1
 207 -179 l 1,20,21
 193 -190 193 -190 170.5 -198 c 128,-1,22
 148 -206 148 -206 129 -206 c 0,0,1
EndSplineSet
Validated: 1
Ligature2: "Ligature Substitution lookup 48 subtable" i uni0328
Substitution2: "'smcp' Lowercase to Small Capitals lookup 20 subtable" Iogonek.sc
Substitution2: "'aalt' Access All Alternates lookup 0 subtable" Iogonek.sc
EndChar

StartChar: dotlessi
Encoding: 305 305 327
Width: 246
GlyphClass: 2
Flags: W
AnchorPoint: "Anchor-7" 152 0 basechar 0
AnchorPoint: "Anchor-4" 123 -22 basechar 0
AnchorPoint: "Anchor-0" 124 509 basechar 0
LayerCount: 2
Fore
SplineSet
82 0 m 1,0,-1
 82 486 l 1,1,-1
 164 486 l 1,2,-1
 164 0 l 1,3,-1
 82 0 l 1,0,-1
EndSplineSet
Validated: 1
EndChar

StartChar: kgreenlandic
Encoding: 312 312 332
Width: 495
Flags: W
LayerCount: 2
Fore
SplineSet
82 0 m 1,0,-1
 82 486 l 1,1,-1
 164 486 l 1,2,-1
 164 228 l 1,3,-1
 167 228 l 1,4,-1
 373 486 l 1,5,-1
 464 486 l 1,6,-1
 303 291 l 1,7,-1
 486 0 l 1,8,-1
 396 0 l 1,9,-1
 254 231 l 1,10,-1
 164 125 l 1,11,-1
 164 0 l 1,12,-1
 82 0 l 1,0,-1
EndSplineSet
Validated: 1
EndChar

StartChar: lslash
Encoding: 322 322 340
Width: 262
Flags: W
LayerCount: 2
Fore
SplineSet
173 -12 m 0,0,1
 126 -12 126 -12 106 16 c 128,-1,2
 86 44 86 44 86 98 c 2,3,-1
 86 331 l 1,4,-1
 29 295 l 1,5,-1
 -1 348 l 1,6,-1
 86 401 l 1,7,-1
 86 712 l 1,8,-1
 168 712 l 1,9,-1
 168 444 l 1,10,-1
 222 479 l 1,11,-1
 252 426 l 1,12,-1
 168 374 l 1,13,-1
 168 92 l 2,14,15
 168 72 168 72 175 64 c 128,-1,16
 182 56 182 56 191 56 c 0,17,18
 195 56 195 56 198.5 56 c 128,-1,19
 202 56 202 56 209 58 c 1,20,-1
 220 -4 l 1,21,22
 212 -8 212 -8 201 -10 c 128,-1,23
 190 -12 190 -12 173 -12 c 0,0,1
EndSplineSet
Validated: 1
Substitution2: "'ss01' Style Set 1 lookup 36 subtable" lslash.a
Substitution2: "'smcp' Lowercase to Small Capitals lookup 20 subtable" Lslash.sc
AlternateSubs2: "'aalt' Access All Alternates lookup 1 subtable" Lslash.sc lslash.a
EndChar

StartChar: oslash
Encoding: 248 248 370
Width: 542
GlyphClass: 2
Flags: W
AnchorPoint: "Anchor-0" 271 509 basechar 0
LayerCount: 2
Fore
SplineSet
271 -12 m 0,0,1
 192 -12 192 -12 132 37 c 1,2,-1
 83 -23 l 1,3,-1
 46 6 l 1,4,-1
 100 71 l 1,5,6
 75 103 75 103 60.5 145.5 c 128,-1,7
 46 188 46 188 46 242 c 0,8,9
 46 303 46 303 64.5 350.5 c 128,-1,10
 83 398 83 398 114 431 c 128,-1,11
 145 464 145 464 185.5 481 c 128,-1,12
 226 498 226 498 271 498 c 0,13,14
 309 498 309 498 345 485.5 c 128,-1,15
 381 473 381 473 410 448 c 1,16,-1
 460 509 l 1,17,-1
 496 480 l 1,18,-1
 442 415 l 1,19,20
 467 383 467 383 481.5 339.5 c 128,-1,21
 496 296 496 296 496 242 c 0,22,23
 496 182 496 182 477.5 134.5 c 128,-1,24
 459 87 459 87 428 54.5 c 128,-1,25
 397 22 397 22 356.5 5 c 128,-1,26
 316 -12 316 -12 271 -12 c 0,0,1
127 246 m 0,27,28
 127 179 127 179 150 133 c 1,29,-1
 364 392 l 1,30,31
 327 432 327 432 271 432 c 0,32,33
 240 432 240 432 213.5 418.5 c 128,-1,34
 187 405 187 405 168 380.5 c 128,-1,35
 149 356 149 356 138 321.5 c 128,-1,36
 127 287 127 287 127 246 c 0,27,28
271 54 m 0,37,38
 302 54 302 54 328.5 67.5 c 128,-1,39
 355 81 355 81 374.5 105.5 c 128,-1,40
 394 130 394 130 404.5 164 c 128,-1,41
 415 198 415 198 415 239 c 0,42,43
 415 306 415 306 391 353 c 1,44,-1
 178 93 l 1,45,46
 217 54 217 54 271 54 c 0,37,38
EndSplineSet
Validated: 1
Substitution2: "'smcp' Lowercase to Small Capitals lookup 20 subtable" Oslash.sc
Substitution2: "'aalt' Access All Alternates lookup 0 subtable" Oslash.sc
EndChar

StartChar: oe
Encoding: 339 339 371
Width: 839
GlyphClass: 2
Flags: W
AnchorPoint: "Anchor-0" 440 509 basechar 0
LayerCount: 2
Fore
SplineSet
264 -12 m 0,0,1
 220 -12 220 -12 180.5 5 c 128,-1,2
 141 22 141 22 111 54.5 c 128,-1,3
 81 87 81 87 63.5 134.5 c 128,-1,4
 46 182 46 182 46 242 c 0,5,6
 46 303 46 303 64 350.5 c 128,-1,7
 82 398 82 398 112 431 c 128,-1,8
 142 464 142 464 182 481 c 128,-1,9
 222 498 222 498 266 498 c 0,10,11
 322 498 322 498 369 467 c 128,-1,12
 416 436 416 436 442 376 c 1,13,14
 470 433 470 433 514.5 465.5 c 128,-1,15
 559 498 559 498 613 498 c 0,16,17
 658 498 658 498 693 482 c 128,-1,18
 728 466 728 466 752 436 c 128,-1,19
 776 406 776 406 788.5 363.5 c 128,-1,20
 801 321 801 321 801 269 c 0,21,22
 801 241 801 241 798 223 c 1,23,-1
 479 223 l 1,24,25
 480 185 480 185 492.5 154 c 128,-1,26
 505 123 505 123 525.5 101 c 128,-1,27
 546 79 546 79 573.5 67 c 128,-1,28
 601 55 601 55 632 55 c 0,29,30
 667 55 667 55 696 66.5 c 128,-1,31
 725 78 725 78 752 95 c 1,32,-1
 782 38 l 1,33,34
 750 18 750 18 711 3 c 128,-1,35
 672 -12 672 -12 622 -12 c 0,36,37
 565 -12 565 -12 518 20 c 128,-1,38
 471 52 471 52 443 109 c 1,39,40
 386 -12 386 -12 264 -12 c 0,0,1
266 56 m 256,41,42
 296 56 296 56 321 69.5 c 128,-1,43
 346 83 346 83 364 107.5 c 128,-1,44
 382 132 382 132 392 166 c 128,-1,45
 402 200 402 200 402 242 c 256,46,47
 402 284 402 284 392 318.5 c 128,-1,48
 382 353 382 353 364 378 c 128,-1,49
 346 403 346 403 321 416.5 c 128,-1,50
 296 430 296 430 266 430 c 256,51,52
 236 430 236 430 211 416.5 c 128,-1,53
 186 403 186 403 168 378 c 128,-1,54
 150 353 150 353 140 318.5 c 128,-1,55
 130 284 130 284 130 242 c 256,56,57
 130 200 130 200 140 166 c 128,-1,58
 150 132 150 132 168 107.5 c 128,-1,59
 186 83 186 83 211 69.5 c 128,-1,60
 236 56 236 56 266 56 c 256,41,42
479 278 m 1,61,-1
 729 278 l 1,62,63
 729 353 729 353 698 393 c 128,-1,64
 667 433 667 433 611 433 c 0,65,66
 560 433 560 433 523 391.5 c 128,-1,67
 486 350 486 350 479 278 c 1,61,-1
EndSplineSet
Validated: 1
Substitution2: "'smcp' Lowercase to Small Capitals lookup 20 subtable" OE.sc
Substitution2: "'aalt' Access All Alternates lookup 0 subtable" OE.sc
EndChar

StartChar: ohorn
Encoding: 417 417 372
Width: 542
GlyphClass: 2
Flags: W
AnchorPoint: "Anchor-4" 271 -22 basechar 0
AnchorPoint: "Anchor-0" 271 509 basechar 0
LayerCount: 2
Fore
SplineSet
271 -12 m 256,0,1
 226 -12 226 -12 185.5 5 c 128,-1,2
 145 22 145 22 114 54.5 c 128,-1,3
 83 87 83 87 64.5 134.5 c 128,-1,4
 46 182 46 182 46 242 c 0,5,6
 46 303 46 303 64.5 350.5 c 128,-1,7
 83 398 83 398 114 431 c 128,-1,8
 145 464 145 464 185.5 481 c 128,-1,9
 226 498 226 498 271 498 c 0,10,11
 321 498 321 498 366 477 c 1,12,13
 408 485 408 485 430 507.5 c 128,-1,14
 452 530 452 530 452 572 c 0,15,16
 452 586 452 586 448 600.5 c 128,-1,17
 444 615 444 615 437 627 c 1,18,-1
 501 657 l 1,19,20
 511 640 511 640 517.5 620 c 128,-1,21
 524 600 524 600 524 578 c 0,22,23
 524 548 524 548 514.5 526 c 128,-1,24
 505 504 505 504 489.5 487.5 c 128,-1,25
 474 471 474 471 454.5 460.5 c 128,-1,26
 435 450 435 450 414 444 c 1,27,28
 452 412 452 412 474 361 c 128,-1,29
 496 310 496 310 496 242 c 0,30,31
 496 182 496 182 477.5 134.5 c 128,-1,32
 459 87 459 87 428 54.5 c 128,-1,33
 397 22 397 22 356.5 5 c 128,-1,34
 316 -12 316 -12 271 -12 c 256,0,1
271 56 m 256,35,36
 302 56 302 56 328 69.5 c 128,-1,37
 354 83 354 83 372.5 107.5 c 128,-1,38
 391 132 391 132 401 166 c 128,-1,39
 411 200 411 200 411 242 c 256,40,41
 411 284 411 284 401 318.5 c 128,-1,42
 391 353 391 353 372.5 378 c 128,-1,43
 354 403 354 403 328 416.5 c 128,-1,44
 302 430 302 430 271 430 c 256,45,46
 240 430 240 430 214 416.5 c 128,-1,47
 188 403 188 403 169.5 378 c 128,-1,48
 151 353 151 353 141 318.5 c 128,-1,49
 131 284 131 284 131 242 c 256,50,51
 131 200 131 200 141 166 c 128,-1,52
 151 132 151 132 169.5 107.5 c 128,-1,53
 188 83 188 83 214 69.5 c 128,-1,54
 240 56 240 56 271 56 c 256,35,36
EndSplineSet
Validated: 1
Substitution2: "'smcp' Lowercase to Small Capitals lookup 20 subtable" Ohorn.sc
Substitution2: "'aalt' Access All Alternates lookup 0 subtable" Ohorn.sc
EndChar

StartChar: uni01EB
Encoding: 491 491 378
Width: 542
GlyphClass: 2
Flags: W
AnchorPoint: "Anchor-0" 271 509 basechar 0
LayerCount: 2
Fore
SplineSet
295 -206 m 0,0,1
 257 -206 257 -206 231 -184.5 c 128,-1,2
 205 -163 205 -163 205 -121 c 0,3,4
 205 -102 205 -102 210.5 -85.5 c 128,-1,5
 216 -69 216 -69 224.5 -54.5 c 128,-1,6
 233 -40 233 -40 242.5 -29 c 128,-1,7
 252 -18 252 -18 261 -11 c 1,8,9
 217 -9 217 -9 178 9.5 c 128,-1,10
 139 28 139 28 109.5 60 c 128,-1,11
 80 92 80 92 63 138 c 128,-1,12
 46 184 46 184 46 242 c 0,13,14
 46 303 46 303 64.5 350.5 c 128,-1,15
 83 398 83 398 114 431 c 128,-1,16
 145 464 145 464 185.5 481 c 128,-1,17
 226 498 226 498 271 498 c 256,18,19
 316 498 316 498 356.5 481 c 128,-1,20
 397 464 397 464 428 431 c 128,-1,21
 459 398 459 398 477.5 350.5 c 128,-1,22
 496 303 496 303 496 242 c 0,23,24
 496 191 496 191 484.5 152.5 c 128,-1,25
 473 114 473 114 452 84.5 c 128,-1,26
 431 55 431 55 402 33.5 c 128,-1,27
 373 12 373 12 337 -4 c 0,28,29
 303 -20 303 -20 284.5 -48 c 128,-1,30
 266 -76 266 -76 266 -105 c 0,31,32
 266 -128 266 -128 280 -139.5 c 128,-1,33
 294 -151 294 -151 312 -151 c 0,34,35
 324 -151 324 -151 333.5 -147.5 c 128,-1,36
 343 -144 343 -144 353 -138 c 1,37,-1
 374 -179 l 1,38,39
 360 -190 360 -190 337.5 -198 c 128,-1,40
 315 -206 315 -206 295 -206 c 0,0,1
271 56 m 256,41,42
 302 56 302 56 328 69.5 c 128,-1,43
 354 83 354 83 372.5 107.5 c 128,-1,44
 391 132 391 132 401 166 c 128,-1,45
 411 200 411 200 411 242 c 256,46,47
 411 284 411 284 401 318.5 c 128,-1,48
 391 353 391 353 372.5 378 c 128,-1,49
 354 403 354 403 328 416.5 c 128,-1,50
 302 430 302 430 271 430 c 256,51,52
 240 430 240 430 214 416.5 c 128,-1,53
 188 403 188 403 169.5 378 c 128,-1,54
 151 353 151 353 141 318.5 c 128,-1,55
 131 284 131 284 131 242 c 256,56,57
 131 200 131 200 141 166 c 128,-1,58
 151 132 151 132 169.5 107.5 c 128,-1,59
 188 83 188 83 214 69.5 c 128,-1,60
 240 56 240 56 271 56 c 256,41,42
EndSplineSet
Validated: 1
Substitution2: "'smcp' Lowercase to Small Capitals lookup 20 subtable" uni01EA.sc
Ligature2: "'ccmp' Glyph Composition/Decomposition lookup 11 subtable" o uni0328
Substitution2: "'aalt' Access All Alternates lookup 0 subtable" uni01EA.sc
EndChar

StartChar: germandbls
Encoding: 223 223 393
Width: 576
Flags: W
LayerCount: 2
Fore
SplineSet
387 -12 m 0,0,1
 345 -12 345 -12 311 1 c 128,-1,2
 277 14 277 14 246 37 c 1,3,-1
 279 95 l 1,4,5
 305 73 305 73 330.5 62.5 c 128,-1,6
 356 52 356 52 385 52 c 0,7,8
 427 52 427 52 448 76 c 128,-1,9
 469 100 469 100 469 132 c 0,10,11
 469 161 469 161 454.5 180 c 128,-1,12
 440 199 440 199 418 213 c 128,-1,13
 396 227 396 227 370.5 239.5 c 128,-1,14
 345 252 345 252 323 268 c 128,-1,15
 301 284 301 284 286.5 306.5 c 128,-1,16
 272 329 272 329 272 364 c 0,17,18
 272 398 272 398 285.5 422 c 128,-1,19
 299 446 299 446 315.5 468 c 128,-1,20
 332 490 332 490 346 513 c 128,-1,21
 360 536 360 536 360 568 c 0,22,23
 360 606 360 606 339.5 630.5 c 128,-1,24
 319 655 319 655 277 655 c 0,25,26
 223 655 223 655 193.5 616.5 c 128,-1,27
 164 578 164 578 164 500 c 2,28,-1
 164 0 l 1,29,-1
 82 0 l 1,30,-1
 82 515 l 2,31,32
 82 609 82 609 133 665.5 c 128,-1,33
 184 722 184 722 278 722 c 0,34,35
 317 722 317 722 347.5 710.5 c 128,-1,36
 378 699 378 699 399 679 c 128,-1,37
 420 659 420 659 430.5 632.5 c 128,-1,38
 441 606 441 606 441 576 c 0,39,40
 441 538 441 538 427 511.5 c 128,-1,41
 413 485 413 485 395.5 463 c 128,-1,42
 378 441 378 441 364 420.5 c 128,-1,43
 350 400 350 400 350 374 c 0,44,45
 350 350 350 350 364.5 334 c 128,-1,46
 379 318 379 318 401 305.5 c 128,-1,47
 423 293 423 293 448.5 280 c 128,-1,48
 474 267 474 267 496 249 c 128,-1,49
 518 231 518 231 532.5 204 c 128,-1,50
 547 177 547 177 547 137 c 0,51,52
 547 105 547 105 536 78 c 128,-1,53
 525 51 525 51 504 31 c 128,-1,54
 483 11 483 11 453.5 -0.5 c 128,-1,55
 424 -12 424 -12 387 -12 c 0,0,1
EndSplineSet
Validated: 1
Substitution2: "'smcp' Lowercase to Small Capitals lookup 20 subtable" uni1E9E.sc
Substitution2: "'aalt' Access All Alternates lookup 0 subtable" uni1E9E.sc
EndChar

StartChar: uni0167
Encoding: 359 359 400
Width: 338
Flags: W
LayerCount: 2
Fore
SplineSet
24 231 m 1,0,-1
 24 274 l 1,1,-1
 96 279 l 1,2,-1
 96 419 l 1,3,-1
 24 419 l 1,4,-1
 24 481 l 1,5,-1
 100 486 l 1,6,-1
 110 622 l 1,7,-1
 179 622 l 1,8,-1
 179 486 l 1,9,-1
 310 486 l 1,10,-1
 310 419 l 1,11,-1
 179 419 l 1,12,-1
 179 279 l 1,13,-1
 310 279 l 1,14,-1
 310 231 l 1,15,-1
 179 231 l 1,16,-1
 179 149 l 2,17,18
 179 104 179 104 195.5 79.5 c 128,-1,19
 212 55 212 55 254 55 c 0,20,21
 267 55 267 55 282 59 c 128,-1,22
 297 63 297 63 309 68 c 1,23,-1
 325 6 l 1,24,25
 305 -1 305 -1 281.5 -6.5 c 128,-1,26
 258 -12 258 -12 235 -12 c 0,27,28
 196 -12 196 -12 169.5 0 c 128,-1,29
 143 12 143 12 126.5 33 c 128,-1,30
 110 54 110 54 103 84 c 128,-1,31
 96 114 96 114 96 150 c 2,32,-1
 96 231 l 1,33,-1
 24 231 l 1,0,-1
EndSplineSet
Validated: 1
Substitution2: "'smcp' Lowercase to Small Capitals lookup 20 subtable" uni0166.sc
Substitution2: "'aalt' Access All Alternates lookup 0 subtable" uni0166.sc
EndChar

StartChar: uogonek
Encoding: 371 371 417
Width: 544
GlyphClass: 2
Flags: W
AnchorPoint: "Anchor-0" 269 502 basechar 0
LayerCount: 2
Fore
SplineSet
405 -206 m 0,0,1
 367 -206 367 -206 340.5 -184.5 c 128,-1,2
 314 -163 314 -163 314 -121 c 0,3,4
 314 -80 314 -80 338.5 -49.5 c 128,-1,5
 363 -19 363 -19 395 4 c 1,6,-1
 387 76 l 1,7,-1
 384 76 l 1,8,9
 350 36 350 36 312.5 12 c 128,-1,10
 275 -12 275 -12 224 -12 c 0,11,12
 146 -12 146 -12 110.5 36 c 128,-1,13
 75 84 75 84 75 178 c 2,14,-1
 75 486 l 1,15,-1
 158 486 l 1,16,-1
 158 189 l 2,17,18
 158 120 158 120 179 89.5 c 128,-1,19
 200 59 200 59 249 59 c 0,20,21
 287 59 287 59 316 78.5 c 128,-1,22
 345 98 345 98 380 141 c 1,23,-1
 380 486 l 1,24,-1
 462 486 l 1,25,-1
 462 0 l 1,26,27
 417 -22 417 -22 396 -49 c 128,-1,28
 375 -76 375 -76 375 -105 c 0,29,30
 375 -128 375 -128 389.5 -139.5 c 128,-1,31
 404 -151 404 -151 421 -151 c 0,32,33
 433 -151 433 -151 443 -147.5 c 128,-1,34
 453 -144 453 -144 462 -138 c 1,35,-1
 483 -179 l 1,36,37
 469 -190 469 -190 446.5 -198 c 128,-1,38
 424 -206 424 -206 405 -206 c 0,0,1
EndSplineSet
Validated: 1
Substitution2: "'smcp' Lowercase to Small Capitals lookup 20 subtable" Uogonek.sc
Ligature2: "'ccmp' Glyph Composition/Decomposition lookup 11 subtable" u uni0328
Substitution2: "'aalt' Access All Alternates lookup 0 subtable" Uogonek.sc
EndChar

StartChar: uhorn
Encoding: 432 432 418
Width: 544
GlyphClass: 2
Flags: W
AnchorPoint: "Anchor-4" 289 -22 basechar 0
AnchorPoint: "Anchor-0" 271 509 basechar 0
LayerCount: 2
Fore
SplineSet
224 -12 m 0,0,1
 146 -12 146 -12 110.5 36 c 128,-1,2
 75 84 75 84 75 178 c 2,3,-1
 75 486 l 1,4,-1
 158 486 l 1,5,-1
 158 189 l 2,6,7
 158 120 158 120 179.5 89.5 c 128,-1,8
 201 59 201 59 249 59 c 0,9,10
 287 59 287 59 316 78.5 c 128,-1,11
 345 98 345 98 380 141 c 1,12,-1
 380 486 l 1,13,-1
 401 486 l 2,14,15
 419 489 419 489 434 495 c 128,-1,16
 449 501 449 501 460.5 512 c 128,-1,17
 472 523 472 523 478.5 540 c 128,-1,18
 485 557 485 557 485 582 c 0,19,20
 485 596 485 596 481 610.5 c 128,-1,21
 477 625 477 625 471 637 c 1,22,-1
 535 667 l 1,23,24
 545 650 545 650 551.5 630 c 128,-1,25
 558 610 558 610 558 588 c 0,26,27
 558 558 558 558 549.5 535.5 c 128,-1,28
 541 513 541 513 527.5 497 c 128,-1,29
 514 481 514 481 496.5 471 c 128,-1,30
 479 461 479 461 462 455 c 1,31,-1
 462 0 l 1,32,-1
 394 0 l 1,33,-1
 387 76 l 1,34,-1
 384 76 l 1,35,36
 350 36 350 36 312.5 12 c 128,-1,37
 275 -12 275 -12 224 -12 c 0,0,1
EndSplineSet
Validated: 1
Substitution2: "'smcp' Lowercase to Small Capitals lookup 20 subtable" Uhorn.sc
Substitution2: "'aalt' Access All Alternates lookup 0 subtable" Uhorn.sc
EndChar

StartChar: eth
Encoding: 240 240 441
Width: 545
Flags: W
LayerCount: 2
Fore
SplineSet
269 -12 m 0,0,1
 227 -12 227 -12 188 4 c 128,-1,2
 149 20 149 20 119 50.5 c 128,-1,3
 89 81 89 81 71 124.5 c 128,-1,4
 53 168 53 168 53 222 c 0,5,6
 53 273 53 273 69 314.5 c 128,-1,7
 85 356 85 356 112.5 385.5 c 128,-1,8
 140 415 140 415 177.5 431 c 128,-1,9
 215 447 215 447 259 447 c 0,10,11
 297 447 297 447 332 431 c 128,-1,12
 367 415 367 415 393 381 c 1,13,14
 379 443 379 443 351.5 489 c 128,-1,15
 324 535 324 535 286 573 c 1,16,-1
 145 500 l 1,17,-1
 121 541 l 1,18,-1
 248 606 l 1,19,20
 196 646 196 646 136 678 c 1,21,-1
 174 730 l 1,22,23
 210 710 210 710 245 688 c 128,-1,24
 280 666 280 666 312 639 c 1,25,-1
 454 712 l 1,26,-1
 478 671 l 1,27,-1
 349 605 l 1,28,29
 409 544 409 544 447 460 c 128,-1,30
 485 376 485 376 485 257 c 0,31,32
 485 197 485 197 469.5 147.5 c 128,-1,33
 454 98 454 98 425.5 62.5 c 128,-1,34
 397 27 397 27 357.5 7.5 c 128,-1,35
 318 -12 318 -12 269 -12 c 0,0,1
271 56 m 0,36,37
 305 56 305 56 330 70.5 c 128,-1,38
 355 85 355 85 372 111 c 128,-1,39
 389 137 389 137 397.5 173.5 c 128,-1,40
 406 210 406 210 406 254 c 0,41,42
 406 268 406 268 405.5 282 c 128,-1,43
 405 296 405 296 404 309 c 1,44,45
 371 353 371 353 338 368 c 128,-1,46
 305 383 305 383 271 383 c 0,47,48
 238 383 238 383 212 371 c 128,-1,49
 186 359 186 359 168 337 c 128,-1,50
 150 315 150 315 140.5 285.5 c 128,-1,51
 131 256 131 256 131 222 c 0,52,53
 131 184 131 184 142 153.5 c 128,-1,54
 153 123 153 123 172.5 101.5 c 128,-1,55
 192 80 192 80 217 68 c 128,-1,56
 242 56 242 56 271 56 c 0,36,37
EndSplineSet
Validated: 1
Substitution2: "'smcp' Lowercase to Small Capitals lookup 20 subtable" Eth.sc
Substitution2: "'aalt' Access All Alternates lookup 0 subtable" Eth.sc
EndChar

StartChar: thorn
Encoding: 254 254 442
Width: 555
GlyphClass: 2
Flags: W
AnchorPoint: "Anchor-4" 284 -22 basechar 0
AnchorPoint: "Anchor-0" 126 730 basechar 0
LayerCount: 2
Fore
SplineSet
82 -205 m 1,0,-1
 82 712 l 1,1,-1
 164 712 l 1,2,-1
 164 518 l 1,3,-1
 163 435 l 1,4,5
 195 461 195 461 233 479.5 c 128,-1,6
 271 498 271 498 311 498 c 0,7,8
 359 498 359 498 395.5 480.5 c 128,-1,9
 432 463 432 463 457 430.5 c 128,-1,10
 482 398 482 398 494.5 352.5 c 128,-1,11
 507 307 507 307 507 250 c 0,12,13
 507 188 507 188 490 139.5 c 128,-1,14
 473 91 473 91 444 57 c 128,-1,15
 415 23 415 23 377 5.5 c 128,-1,16
 339 -12 339 -12 297 -12 c 0,17,18
 262 -12 262 -12 229 2 c 128,-1,19
 196 16 196 16 163 42 c 1,20,-1
 164 -41 l 1,21,-1
 164 -205 l 1,22,-1
 82 -205 l 1,0,-1
283 57 m 0,23,24
 313 57 313 57 338.5 70.5 c 128,-1,25
 364 84 364 84 382.5 108.5 c 128,-1,26
 401 133 401 133 411.5 169 c 128,-1,27
 422 205 422 205 422 250 c 0,28,29
 422 290 422 290 415 323 c 128,-1,30
 408 356 408 356 392.5 379.5 c 128,-1,31
 377 403 377 403 352.5 416 c 128,-1,32
 328 429 328 429 294 429 c 0,33,34
 263 429 263 429 231.5 412 c 128,-1,35
 200 395 200 395 164 363 c 1,36,-1
 164 108 l 1,37,38
 197 80 197 80 228 68.5 c 128,-1,39
 259 57 259 57 283 57 c 0,23,24
EndSplineSet
Validated: 1
Substitution2: "'smcp' Lowercase to Small Capitals lookup 20 subtable" Thorn.sc
Substitution2: "'aalt' Access All Alternates lookup 0 subtable" Thorn.sc
EndChar

StartChar: uni014B
Encoding: 331 331 443
Width: 547
GlyphClass: 2
Flags: W
AnchorPoint: "Anchor-0" 291 509 basechar 0
LayerCount: 2
Fore
SplineSet
338 -183 m 0,0,1
 315 -183 315 -183 297 -179 c 128,-1,2
 279 -175 279 -175 267 -170 c 1,3,-1
 283 -107 l 1,4,5
 292 -110 292 -110 304 -113 c 128,-1,6
 316 -116 316 -116 329 -116 c 0,7,8
 365 -116 365 -116 377 -90.5 c 128,-1,9
 389 -65 389 -65 389 -20 c 2,10,-1
 389 297 l 2,11,12
 389 366 389 366 367 396.5 c 128,-1,13
 345 427 345 427 297 427 c 0,14,15
 259 427 259 427 230 408 c 128,-1,16
 201 389 201 389 164 352 c 1,17,-1
 164 0 l 1,18,-1
 82 0 l 1,19,-1
 82 486 l 1,20,-1
 150 486 l 1,21,-1
 157 416 l 1,22,-1
 160 416 l 1,23,24
 195 451 195 451 233.5 474.5 c 128,-1,25
 272 498 272 498 323 498 c 0,26,27
 400 498 400 498 435.5 450 c 128,-1,28
 471 402 471 402 471 308 c 2,29,-1
 471 -21 l 2,30,31
 471 -95 471 -95 441 -139 c 128,-1,32
 411 -183 411 -183 338 -183 c 0,0,1
EndSplineSet
Validated: 1
Substitution2: "'smcp' Lowercase to Small Capitals lookup 20 subtable" uni014A.sc
Substitution2: "'aalt' Access All Alternates lookup 0 subtable" uni014A.sc
EndChar

StartChar: uni0237
Encoding: 567 567 444
Width: 247
GlyphClass: 2
Flags: W
AnchorPoint: "Anchor-0" 125 509 basechar 0
LayerCount: 2
Fore
SplineSet
32 -217 m 0,0,1
 9 -217 9 -217 -9 -213 c 128,-1,2
 -27 -209 -27 -209 -40 -204 c 1,3,-1
 -23 -142 l 1,4,5
 -14 -145 -14 -145 -2 -147.5 c 128,-1,6
 10 -150 10 -150 23 -150 c 0,7,8
 59 -150 59 -150 71 -125 c 128,-1,9
 83 -100 83 -100 83 -55 c 2,10,-1
 83 486 l 1,11,-1
 165 486 l 1,12,-1
 165 -55 l 2,13,14
 165 -129 165 -129 135 -173 c 128,-1,15
 105 -217 105 -217 32 -217 c 0,0,1
EndSplineSet
Validated: 1
EndChar

StartChar: uni0133
Encoding: 307 307 445
Width: 493
Flags: W
LayerCount: 2
Fore
SplineSet
82 0 m 1,0,-1
 82 486 l 1,1,-1
 164 486 l 1,2,-1
 164 0 l 1,3,-1
 82 0 l 1,0,-1
124 586 m 256,4,5
 100 586 100 586 83.5 601 c 128,-1,6
 67 616 67 616 67 639 c 0,7,8
 67 663 67 663 83.5 677.5 c 128,-1,9
 100 692 100 692 124 692 c 256,10,11
 148 692 148 692 164.5 677.5 c 128,-1,12
 181 663 181 663 181 639 c 0,13,14
 181 616 181 616 164.5 601 c 128,-1,15
 148 586 148 586 124 586 c 256,4,5
278 -217 m 0,16,17
 255 -217 255 -217 237 -213 c 128,-1,18
 219 -209 219 -209 206 -204 c 1,19,-1
 223 -142 l 1,20,21
 232 -145 232 -145 244 -147.5 c 128,-1,22
 256 -150 256 -150 269 -150 c 0,23,24
 305 -150 305 -150 317 -125 c 128,-1,25
 329 -100 329 -100 329 -55 c 2,26,-1
 329 486 l 1,27,-1
 411 486 l 1,28,-1
 411 -55 l 2,29,30
 411 -129 411 -129 381 -173 c 128,-1,31
 351 -217 351 -217 278 -217 c 0,16,17
371 586 m 0,32,33
 347 586 347 586 330.5 601 c 128,-1,34
 314 616 314 616 314 639 c 0,35,36
 314 663 314 663 330.5 677.5 c 128,-1,37
 347 692 347 692 371 692 c 0,38,39
 394 692 394 692 410.5 677.5 c 128,-1,40
 427 663 427 663 427 639 c 0,41,42
 427 616 427 616 410.5 601 c 128,-1,43
 394 586 394 586 371 586 c 0,32,33
EndSplineSet
Validated: 1
Substitution2: "'smcp' Lowercase to Small Capitals lookup 20 subtable" uni0132.sc
Substitution2: "'aalt' Access All Alternates lookup 0 subtable" uni0132.sc
EndChar

StartChar: uni0250
Encoding: 592 592 446
Width: 512
GlyphClass: 2
Flags: W
AnchorPoint: "Anchor-7" 337 0 basechar 0
AnchorPoint: "Anchor-4" 278 -22 basechar 0
AnchorPoint: "Anchor-0" 276 509 basechar 0
LayerCount: 2
Fore
SplineSet
270 -12 m 0,0,1
 218 -12 218 -12 181 3 c 128,-1,2
 144 18 144 18 120.5 45 c 128,-1,3
 97 72 97 72 86 110.5 c 128,-1,4
 75 149 75 149 75 196 c 2,5,-1
 75 486 l 1,6,-1
 143 486 l 1,7,-1
 150 418 l 1,8,-1
 152 418 l 1,9,10
 187 454 187 454 231.5 476 c 128,-1,11
 276 498 276 498 325 498 c 0,12,13
 382 498 382 498 419 465.5 c 128,-1,14
 456 433 456 433 456 371 c 0,15,16
 456 288 456 288 384.5 241.5 c 128,-1,17
 313 195 313 195 157 178 c 1,18,19
 157 156 157 156 163 134 c 128,-1,20
 169 112 169 112 183 95 c 128,-1,21
 197 78 197 78 221 67 c 128,-1,22
 245 56 245 56 281 56 c 0,23,24
 322 56 322 56 356.5 72 c 128,-1,25
 391 88 391 88 419 108 c 1,26,-1
 451 51 l 1,27,28
 419 29 419 29 372 8.5 c 128,-1,29
 325 -12 325 -12 270 -12 c 0,0,1
157 232 m 1,30,31
 218 240 218 240 260 252 c 128,-1,32
 302 264 302 264 327.5 279.5 c 128,-1,33
 353 295 353 295 364 315.5 c 128,-1,34
 375 336 375 336 375 360 c 0,35,36
 375 398 375 398 352.5 415 c 128,-1,37
 330 432 330 432 298 432 c 0,38,39
 264 432 264 432 229.5 414 c 128,-1,40
 195 396 195 396 157 356 c 1,41,-1
 157 232 l 1,30,31
EndSplineSet
Validated: 1
EndChar

StartChar: uni0252
Encoding: 594 594 447
Width: 555
GlyphClass: 2
Flags: W
AnchorPoint: "Anchor-4" 286 -22 basechar 0
AnchorPoint: "Anchor-0" 293 509 basechar 0
LayerCount: 2
Fore
SplineSet
297 -12 m 0,0,1
 229 -12 229 -12 158 47 c 1,2,-1
 155 47 l 1,3,-1
 149 0 l 1,4,-1
 82 0 l 1,5,-1
 82 486 l 1,6,-1
 150 486 l 1,7,-1
 157 429 l 1,8,-1
 160 429 l 1,9,10
 193 458 193 458 232.5 478 c 128,-1,11
 272 498 272 498 315 498 c 0,12,13
 362 498 362 498 398 480.5 c 128,-1,14
 434 463 434 463 458 430.5 c 128,-1,15
 482 398 482 398 494.5 352.5 c 128,-1,16
 507 307 507 307 507 250 c 0,17,18
 507 188 507 188 490 139.5 c 128,-1,19
 473 91 473 91 444 57 c 128,-1,20
 415 23 415 23 377 5.5 c 128,-1,21
 339 -12 339 -12 297 -12 c 0,0,1
283 57 m 0,22,23
 313 57 313 57 338.5 70.5 c 128,-1,24
 364 84 364 84 382.5 108.5 c 128,-1,25
 401 133 401 133 411.5 169 c 128,-1,26
 422 205 422 205 422 250 c 0,27,28
 422 290 422 290 415 323 c 128,-1,29
 408 356 408 356 392.5 379.5 c 128,-1,30
 377 403 377 403 352.5 416 c 128,-1,31
 328 429 328 429 294 429 c 0,32,33
 263 429 263 429 231.5 412 c 128,-1,34
 200 395 200 395 164 363 c 1,35,-1
 164 108 l 1,36,37
 197 80 197 80 228 68.5 c 128,-1,38
 259 57 259 57 283 57 c 0,22,23
EndSplineSet
Validated: 1
EndChar

StartChar: uni0253
Encoding: 595 595 448
Width: 555
GlyphClass: 2
Flags: W
AnchorPoint: "Anchor-4" 284 -22 basechar 0
LayerCount: 2
Fore
SplineSet
297 -12 m 0,0,1
 263 -12 263 -12 226.5 3.5 c 128,-1,2
 190 19 190 19 158 48 c 1,3,-1
 155 48 l 1,4,-1
 148 0 l 1,5,-1
 82 0 l 1,6,-1
 82 537 l 2,7,8
 82 579 82 579 92.5 613 c 128,-1,9
 103 647 103 647 124 672 c 128,-1,10
 145 697 145 697 176.5 710.5 c 128,-1,11
 208 724 208 724 251 724 c 0,12,13
 273 724 273 724 294.5 719.5 c 128,-1,14
 316 715 316 715 333 708 c 1,15,-1
 314 645 l 1,16,17
 287 657 287 657 259 657 c 0,18,19
 211 657 211 657 188.5 625 c 128,-1,20
 166 593 166 593 164 536 c 2,21,-1
 162 423 l 1,22,23
 195 452 195 452 234 471.5 c 128,-1,24
 273 491 273 491 314 491 c 0,25,26
 361 491 361 491 397 473.5 c 128,-1,27
 433 456 433 456 457.5 424.5 c 128,-1,28
 482 393 482 393 494.5 347.5 c 128,-1,29
 507 302 507 302 507 247 c 0,30,31
 507 185 507 185 490 137 c 128,-1,32
 473 89 473 89 444 56 c 128,-1,33
 415 23 415 23 377 5.5 c 128,-1,34
 339 -12 339 -12 297 -12 c 0,0,1
283 57 m 0,35,36
 313 57 313 57 338.5 70 c 128,-1,37
 364 83 364 83 382.5 107.5 c 128,-1,38
 401 132 401 132 411.5 167 c 128,-1,39
 422 202 422 202 422 246 c 0,40,41
 422 325 422 325 392.5 373.5 c 128,-1,42
 363 422 363 422 294 422 c 0,43,44
 234 422 234 422 164 355 c 1,45,-1
 164 108 l 1,46,47
 196 80 196 80 227.5 68.5 c 128,-1,48
 259 57 259 57 283 57 c 0,35,36
EndSplineSet
Validated: 1
EndChar

StartChar: uni0254
Encoding: 596 596 449
Width: 456
Flags: W
LayerCount: 2
Fore
SplineSet
182 -12 m 0,0,1
 137 -12 137 -12 97 4.5 c 128,-1,2
 57 21 57 21 25 50 c 1,3,-1
 60 105 l 1,4,5
 83 85 83 85 112 70.5 c 128,-1,6
 141 56 141 56 174 56 c 256,7,8
 207 56 207 56 234.5 69.5 c 128,-1,9
 262 83 262 83 282.5 107.5 c 128,-1,10
 303 132 303 132 314 166 c 128,-1,11
 325 200 325 200 325 242 c 256,12,13
 325 284 325 284 314 319 c 128,-1,14
 303 354 303 354 284 378.5 c 128,-1,15
 265 403 265 403 238.5 416.5 c 128,-1,16
 212 430 212 430 182 430 c 0,17,18
 147 430 147 430 122.5 418.5 c 128,-1,19
 98 407 98 407 76 387 c 1,20,-1
 34 441 l 1,21,22
 61 464 61 464 98.5 481 c 128,-1,23
 136 498 136 498 191 498 c 0,24,25
 234 498 234 498 274 481 c 128,-1,26
 314 464 314 464 344 431.5 c 128,-1,27
 374 399 374 399 392 351.5 c 128,-1,28
 410 304 410 304 410 242 c 0,29,30
 410 182 410 182 392 134.5 c 128,-1,31
 374 87 374 87 343.5 54.5 c 128,-1,32
 313 22 313 22 271.5 5 c 128,-1,33
 230 -12 230 -12 182 -12 c 0,0,1
EndSplineSet
Validated: 1
EndChar

StartChar: uni0255
Encoding: 597 597 450
Width: 456
GlyphClass: 2
Flags: W
AnchorPoint: "Anchor-0" 276 509 basechar 0
LayerCount: 2
Fore
SplineSet
284 54 m 0,0,1
 320 54 320 54 343.5 69 c 128,-1,2
 367 84 367 84 367 107 c 0,3,4
 367 124 367 124 354.5 138 c 128,-1,5
 342 152 342 152 315 152 c 256,6,7
 288 152 288 152 258.5 133 c 128,-1,8
 229 114 229 114 201 80 c 1,9,10
 238 54 238 54 284 54 c 0,0,1
123 -69 m 1,11,-1
 57 -41 l 1,12,13
 68 -12 68 -12 81 13.5 c 128,-1,14
 94 39 94 39 108 62 c 1,15,16
 79 94 79 94 62.5 139.5 c 128,-1,17
 46 185 46 185 46 242 c 0,18,19
 46 303 46 303 65 350.5 c 128,-1,20
 84 398 84 398 116 431 c 128,-1,21
 148 464 148 464 190.5 481 c 128,-1,22
 233 498 233 498 280 498 c 0,23,24
 328 498 328 498 362 481 c 128,-1,25
 396 464 396 464 422 441 c 1,26,-1
 382 390 l 1,27,28
 361 409 361 409 336.5 421 c 128,-1,29
 312 433 312 433 283 433 c 0,30,31
 249 433 249 433 220.5 419 c 128,-1,32
 192 405 192 405 171 380 c 128,-1,33
 150 355 150 355 138.5 320 c 128,-1,34
 127 285 127 285 127 242 c 0,35,36
 127 208 127 208 135 179 c 128,-1,37
 143 150 143 150 157 127 c 1,38,39
 195 168 195 168 236.5 189.5 c 128,-1,40
 278 211 278 211 320 211 c 0,41,42
 374 211 374 211 404 182.5 c 128,-1,43
 434 154 434 154 434 108 c 0,44,45
 434 83 434 83 423.5 61.5 c 128,-1,46
 413 40 413 40 393.5 23.5 c 128,-1,47
 374 7 374 7 345.5 -2.5 c 128,-1,48
 317 -12 317 -12 282 -12 c 0,49,50
 214 -12 214 -12 161 20 c 1,51,52
 138 -22 138 -22 123 -69 c 1,11,-1
EndSplineSet
Validated: 1
EndChar

StartChar: uni0256
Encoding: 598 598 451
Width: 555
Flags: W
LayerCount: 2
Fore
SplineSet
514 -183 m 0,0,1
 451 -183 451 -183 422 -146.5 c 128,-1,2
 393 -110 393 -110 393 -46 c 2,3,-1
 394 56 l 1,4,5
 364 27 364 27 327.5 7.5 c 128,-1,6
 291 -12 291 -12 248 -12 c 0,7,8
 156 -12 156 -12 101.5 54 c 128,-1,9
 47 120 47 120 47 242 c 0,10,11
 47 301 47 301 64.5 348.5 c 128,-1,12
 82 396 82 396 111 429 c 128,-1,13
 140 462 140 462 178 480 c 128,-1,14
 216 498 216 498 258 498 c 256,15,16
 300 498 300 498 331 483 c 128,-1,17
 362 468 362 468 394 442 c 1,18,-1
 390 525 l 1,19,-1
 390 724 l 1,20,-1
 473 724 l 1,21,-1
 473 -28 l 2,22,23
 473 -70 473 -70 483.5 -93 c 128,-1,24
 494 -116 494 -116 523 -116 c 0,25,26
 533 -116 533 -116 542 -113 c 128,-1,27
 551 -110 551 -110 559 -107 c 1,28,-1
 575 -170 l 1,29,30
 564 -175 564 -175 548.5 -179 c 128,-1,31
 533 -183 533 -183 514 -183 c 0,0,1
266 57 m 0,32,33
 300 57 300 57 330 73.5 c 128,-1,34
 360 90 360 90 390 124 c 1,35,-1
 390 378 l 1,36,37
 359 406 359 406 330.5 417.5 c 128,-1,38
 302 429 302 429 272 429 c 0,39,40
 243 429 243 429 217.5 415.5 c 128,-1,41
 192 402 192 402 173 377.5 c 128,-1,42
 154 353 154 353 143 319 c 128,-1,43
 132 285 132 285 132 243 c 0,44,45
 132 155 132 155 167 106 c 128,-1,46
 202 57 202 57 266 57 c 0,32,33
EndSplineSet
Validated: 1
EndChar

StartChar: uni0257
Encoding: 599 599 452
Width: 555
GlyphClass: 2
Flags: W
AnchorPoint: "Anchor-4" 301 -22 basechar 0
LayerCount: 2
Fore
SplineSet
248 -12 m 0,0,1
 156 -12 156 -12 101.5 54 c 128,-1,2
 47 120 47 120 47 242 c 0,3,4
 47 301 47 301 64.5 348.5 c 128,-1,5
 82 396 82 396 111 429 c 128,-1,6
 140 462 140 462 178 480 c 128,-1,7
 216 498 216 498 258 498 c 256,8,9
 300 498 300 498 331 483 c 128,-1,10
 362 468 362 468 394 442 c 1,11,-1
 393 575 l 2,12,13
 393 645 393 645 424.5 685.5 c 128,-1,14
 456 726 456 726 523 726 c 0,15,16
 540 726 540 726 554 723.5 c 128,-1,17
 568 721 568 721 579 716 c 1,18,-1
 563 653 l 1,19,20
 556 655 556 655 548.5 657 c 128,-1,21
 541 659 541 659 532 659 c 0,22,23
 499 659 499 659 486 634 c 128,-1,24
 473 609 473 609 473 567 c 2,25,-1
 473 0 l 1,26,-1
 405 0 l 1,27,-1
 398 57 l 1,28,-1
 395 57 l 1,29,30
 366 29 366 29 328.5 8.5 c 128,-1,31
 291 -12 291 -12 248 -12 c 0,0,1
266 57 m 0,32,33
 300 57 300 57 330 73.5 c 128,-1,34
 360 90 360 90 390 124 c 1,35,-1
 390 378 l 1,36,37
 359 406 359 406 330.5 417.5 c 128,-1,38
 302 429 302 429 272 429 c 0,39,40
 243 429 243 429 217.5 415.5 c 128,-1,41
 192 402 192 402 173 377.5 c 128,-1,42
 154 353 154 353 143 319 c 128,-1,43
 132 285 132 285 132 243 c 0,44,45
 132 155 132 155 167 106 c 128,-1,46
 202 57 202 57 266 57 c 0,32,33
EndSplineSet
Validated: 1
EndChar

StartChar: uni0258
Encoding: 600 600 453
Width: 496
GlyphClass: 2
Flags: W
AnchorPoint: "Anchor-7" 241 0 basechar 0
AnchorPoint: "Anchor-4" 253 -22 basechar 0
AnchorPoint: "Anchor-0" 243 509 basechar 0
LayerCount: 2
Fore
SplineSet
221 -12 m 0,0,1
 171 -12 171 -12 130 3 c 128,-1,2
 89 18 89 18 57 38 c 1,3,-1
 86 92 l 1,4,5
 113 75 113 75 144.5 64.5 c 128,-1,6
 176 54 176 54 211 54 c 0,7,8
 283 54 283 54 323.5 99.5 c 128,-1,9
 364 145 364 145 368 223 c 1,10,-1
 41 223 l 1,11,12
 39 232 39 232 38 244.5 c 128,-1,13
 37 257 37 257 37 270 c 0,14,15
 37 322 37 322 51.5 364 c 128,-1,16
 66 406 66 406 92.5 436 c 128,-1,17
 119 466 119 466 156.5 482 c 128,-1,18
 194 498 194 498 241 498 c 0,19,20
 285 498 285 498 323 480.5 c 128,-1,21
 361 463 361 463 389.5 430 c 128,-1,22
 418 397 418 397 434 349.5 c 128,-1,23
 450 302 450 302 450 242 c 256,24,25
 450 182 450 182 433 135 c 128,-1,26
 416 88 416 88 385 55.5 c 128,-1,27
 354 23 354 23 312 5.5 c 128,-1,28
 270 -12 270 -12 221 -12 c 0,0,1
110 282 m 1,29,-1
 369 282 l 1,30,31
 362 354 362 354 328 393.5 c 128,-1,32
 294 433 294 433 239 433 c 0,33,34
 182 433 182 433 146 394.5 c 128,-1,35
 110 356 110 356 110 282 c 1,29,-1
EndSplineSet
Validated: 1
EndChar

StartChar: uni0251
Encoding: 593 593 454
Width: 504
GlyphClass: 2
Flags: W
HStem: -12 66<155.294 282.623 440.219 474.569> 0 21G<393 433> 430 68<158.795 349.047>
VStem: 52 80<74.9978 243.642> 355 78<37 112 254 254 308 331> 390 43<105.355 395.3>
AnchorPoint: "Anchor-7" 414 0 basechar 0
AnchorPoint: "Anchor-4" 283 -22 basechar 0
AnchorPoint: "Anchor-0" 282 509 basechar 0
LayerCount: 2
Fore
SplineSet
218 54 m 0,0,1
 253 54 253 54 284 70.5 c 128,-1,2
 315 87 315 87 350 119 c 1,3,-1
 350 254 l 1,4,5
 289 246 289 246 247.5 235 c 128,-1,6
 206 224 206 224 180.5 209 c 128,-1,7
 155 194 155 194 143.5 174.5 c 128,-1,8
 132 155 132 155 132 132 c 0,9,10
 132 90 132 90 157 72 c 128,-1,11
 182 54 182 54 218 54 c 0,0,1
194 -12 m 0,12,13
 133 -12 133 -12 92.5 24 c 128,-1,14
 52 60 52 60 52 126 c 0,15,16
 52 206 52 206 123 248.5 c 128,-1,17
 194 291 194 291 350 308 c 1,18,19
 350 331 350 331 345.5 353 c 128,-1,20
 341 375 341 375 330 392 c 128,-1,21
 319 409 319 409 299.5 419.5 c 128,-1,22
 280 430 280 430 250 430 c 0,23,24
 208 430 208 430 171 414 c 128,-1,25
 134 398 134 398 105 378 c 1,26,-1
 73 435 l 1,27,28
 107 457 107 457 156 477.5 c 128,-1,29
 205 498 205 498 264 498 c 0,30,31
 353 498 353 498 393 443.5 c 128,-1,32
 433 389 433 389 433 298 c 2,33,-1
 433 102 l 1,34,-1
 433 92 l 2,35,36
 433 72 433 72 440 64 c 128,-1,37
 447 56 447 56 456 56 c 0,38,39
 460 56 460 56 463.5 56 c 128,-1,40
 467 56 467 56 474 58 c 1,41,-1
 485 -4 l 1,42,43
 477 -8 477 -8 466 -10 c 128,-1,44
 455 -12 455 -12 438 -12 c 0,45,46
 393 -12 393 -12 371.5 16 c 0,47,48
 361.16509475 29.1535157733 361.16509475 29.1535157733 357.303538986 58 c 1,49,-1
 355 58 l 1,50,51
 320 29 320 29 280 8.5 c 128,-1,52
 240 -12 240 -12 194 -12 c 0,12,13
EndSplineSet
Validated: 1
EndChar

StartChar: uni0259
Encoding: 601 601 456
Width: 496
GlyphClass: 2
Flags: W
AnchorPoint: "Anchor-7" 240 0 basechar 0
AnchorPoint: "Anchor-4" 240 -22 basechar 0
AnchorPoint: "Anchor-0" 242 509 basechar 0
LayerCount: 2
Fore
SplineSet
238 -12 m 0,0,1
 192 -12 192 -12 155 4 c 128,-1,2
 118 20 118 20 91.5 50.5 c 128,-1,3
 65 81 65 81 51 124.5 c 128,-1,4
 37 168 37 168 37 222 c 0,5,6
 37 236 37 236 38 248.5 c 128,-1,7
 39 261 39 261 41 270 c 1,8,-1
 368 270 l 1,9,10
 364 343 364 343 326.5 388 c 128,-1,11
 289 433 289 433 223 433 c 0,12,13
 186 433 186 433 156 421.5 c 128,-1,14
 126 410 126 410 97 391 c 1,15,-1
 68 448 l 1,16,17
 102 471 102 471 143.5 484.5 c 128,-1,18
 185 498 185 498 236 498 c 0,19,20
 282 498 282 498 321 481 c 128,-1,21
 360 464 360 464 388.5 431 c 128,-1,22
 417 398 417 398 433.5 351 c 128,-1,23
 450 304 450 304 450 244 c 256,24,25
 450 184 450 184 433.5 136.5 c 128,-1,26
 417 89 417 89 388.5 56 c 128,-1,27
 360 23 360 23 321 5.5 c 128,-1,28
 282 -12 282 -12 238 -12 c 0,0,1
236 54 m 0,29,30
 293 54 293 54 327.5 95 c 128,-1,31
 362 136 362 136 369 211 c 1,32,-1
 110 211 l 1,33,34
 110 132 110 132 144 93 c 128,-1,35
 178 54 178 54 236 54 c 0,29,30
EndSplineSet
Validated: 1
Substitution2: "'sups' Superscript lookup 26 subtable" uni0259.sups
Substitution2: "'smcp' Lowercase to Small Capitals lookup 20 subtable" uni018F.sc
AlternateSubs2: "'aalt' Access All Alternates lookup 1 subtable" uni018F.sc uni0259.sups
EndChar

StartChar: uni025A
Encoding: 602 602 457
Width: 648
GlyphClass: 2
Flags: W
AnchorPoint: "Anchor-0" 232 509 basechar 0
LayerCount: 2
Fore
SplineSet
249 -12 m 0,0,1
 199 -12 199 -12 161.5 5 c 128,-1,2
 124 22 124 22 97.5 50.5 c 128,-1,3
 71 79 71 79 56 117 c 128,-1,4
 41 155 41 155 37 197 c 1,5,-1
 360 329 l 1,6,7
 343 382 343 382 307 407.5 c 128,-1,8
 271 433 271 433 223 433 c 0,9,10
 185 433 185 433 156 421.5 c 128,-1,11
 127 410 127 410 99 391 c 1,12,-1
 69 448 l 1,13,14
 103 471 103 471 142.5 484.5 c 128,-1,15
 182 498 182 498 232 498 c 0,16,17
 303 498 303 498 354.5 461.5 c 128,-1,18
 406 425 406 425 431 358 c 1,19,-1
 512 391 l 1,20,-1
 556 374 l 1,21,22
 558 345 558 345 562.5 327.5 c 128,-1,23
 567 310 567 310 573 300 c 128,-1,24
 579 290 579 290 587 286.5 c 128,-1,25
 595 283 595 283 606 283 c 0,26,27
 618 283 618 283 628 287.5 c 128,-1,28
 638 292 638 292 646 298 c 1,29,-1
 668 255 l 1,30,31
 656 246 656 246 639.5 238 c 128,-1,32
 623 230 623 230 602 230 c 0,33,34
 587 230 587 230 572.5 234.5 c 128,-1,35
 558 239 558 239 545 250.5 c 128,-1,36
 532 262 532 262 521.5 280.5 c 128,-1,37
 511 299 511 299 506 326 c 1,38,-1
 446 302 l 1,39,40
 448 287 448 287 449.5 271.5 c 128,-1,41
 451 256 451 256 451 239 c 0,42,43
 451 187 451 187 436.5 141.5 c 128,-1,44
 422 96 422 96 396 62 c 128,-1,45
 370 28 370 28 332.5 8 c 128,-1,46
 295 -12 295 -12 249 -12 c 0,0,1
247 53 m 0,47,48
 276 53 276 53 299.5 67 c 128,-1,49
 323 81 323 81 339.5 105.5 c 128,-1,50
 356 130 356 130 364.5 162.5 c 128,-1,51
 373 195 373 195 373 232 c 0,52,53
 373 243 373 243 372.5 252.5 c 128,-1,54
 372 262 372 262 371 271 c 1,55,-1
 113 166 l 1,56,57
 123 112 123 112 159 82.5 c 128,-1,58
 195 53 195 53 247 53 c 0,47,48
EndSplineSet
Validated: 1
EndChar

StartChar: uni025B
Encoding: 603 603 458
Width: 440
GlyphClass: 2
Flags: W
AnchorPoint: "Anchor-4" 250 -22 basechar 0
AnchorPoint: "Anchor-0" 244 509 basechar 0
LayerCount: 2
Fore
SplineSet
249 -12 m 0,0,1
 208 -12 208 -12 171.5 -2 c 128,-1,2
 135 8 135 8 108 27 c 128,-1,3
 81 46 81 46 65.5 73 c 128,-1,4
 50 100 50 100 50 134 c 0,5,6
 50 160 50 160 59 180.5 c 128,-1,7
 68 201 68 201 83 216 c 128,-1,8
 98 231 98 231 117.5 240.5 c 128,-1,9
 137 250 137 250 158 256 c 1,10,-1
 158 260 l 1,11,12
 118 274 118 274 97 303.5 c 128,-1,13
 76 333 76 333 76 367 c 0,14,15
 76 400 76 400 90.5 425 c 128,-1,16
 105 450 105 450 129 466 c 128,-1,17
 153 482 153 482 185 490 c 128,-1,18
 217 498 217 498 253 498 c 0,19,20
 297 498 297 498 332.5 485.5 c 128,-1,21
 368 473 368 473 400 450 c 1,22,-1
 367 395 l 1,23,24
 340 412 340 412 313.5 422.5 c 128,-1,25
 287 433 287 433 255 433 c 0,26,27
 214 433 214 433 186 414 c 128,-1,28
 158 395 158 395 158 357 c 0,29,30
 158 324 158 324 185 303 c 128,-1,31
 212 282 212 282 271 282 c 2,32,-1
 326 282 l 1,33,-1
 326 223 l 1,34,-1
 256 223 l 2,35,36
 196 223 196 223 164 202 c 128,-1,37
 132 181 132 181 132 141 c 0,38,39
 132 100 132 100 167 77 c 128,-1,40
 202 54 202 54 258 54 c 0,41,42
 291 54 291 54 321.5 64.5 c 128,-1,43
 352 75 352 75 384 98 c 1,44,-1
 419 43 l 1,45,46
 377 13 377 13 338 0.5 c 128,-1,47
 299 -12 299 -12 249 -12 c 0,0,1
EndSplineSet
Validated: 1
EndChar

StartChar: uni025C
Encoding: 604 604 459
Width: 456
GlyphClass: 2
Flags: W
AnchorPoint: "Anchor-4" 223 -22 basechar 0
AnchorPoint: "Anchor-0" 221 509 basechar 0
LayerCount: 2
Fore
SplineSet
210 -12 m 0,0,1
 160 -12 160 -12 120 0.5 c 128,-1,2
 80 13 80 13 37 43 c 1,3,-1
 72 98 l 1,4,5
 105 75 105 75 135 64.5 c 128,-1,6
 165 54 165 54 198 54 c 0,7,8
 254 54 254 54 289 77 c 128,-1,9
 324 100 324 100 324 141 c 0,10,11
 324 181 324 181 292 202 c 128,-1,12
 260 223 260 223 200 223 c 2,13,-1
 131 223 l 1,14,-1
 131 282 l 1,15,-1
 185 282 l 2,16,17
 244 282 244 282 271 303 c 128,-1,18
 298 324 298 324 298 357 c 0,19,20
 298 395 298 395 272 414 c 128,-1,21
 246 433 246 433 205 433 c 0,22,23
 173 433 173 433 144.5 422.5 c 128,-1,24
 116 412 116 412 89 395 c 1,25,-1
 56 450 l 1,26,27
 89 473 89 473 127.5 485.5 c 128,-1,28
 166 498 166 498 211 498 c 0,29,30
 245 498 245 498 276 490 c 128,-1,31
 307 482 307 482 330 466 c 128,-1,32
 353 450 353 450 366.5 425 c 128,-1,33
 380 400 380 400 380 367 c 0,34,35
 380 333 380 333 359 303.5 c 128,-1,36
 338 274 338 274 298 260 c 1,37,-1
 298 256 l 1,38,39
 319 250 319 250 338.5 240.5 c 128,-1,40
 358 231 358 231 373 216 c 128,-1,41
 388 201 388 201 397 180.5 c 128,-1,42
 406 160 406 160 406 134 c 0,43,44
 406 100 406 100 390.5 73 c 128,-1,45
 375 46 375 46 348.5 27 c 128,-1,46
 322 8 322 8 286.5 -2 c 128,-1,47
 251 -12 251 -12 210 -12 c 0,0,1
EndSplineSet
Validated: 1
EndChar

StartChar: uni025E
Encoding: 606 606 460
Width: 546
GlyphClass: 2
Flags: W
AnchorPoint: "Anchor-4" 279 -22 basechar 0
AnchorPoint: "Anchor-0" 263 509 basechar 0
LayerCount: 2
Fore
SplineSet
259 -12 m 0,0,1
 215 -12 215 -12 176.5 -2 c 128,-1,2
 138 8 138 8 110 27 c 128,-1,3
 82 46 82 46 66 73 c 128,-1,4
 50 100 50 100 50 134 c 0,5,6
 50 160 50 160 59 180.5 c 128,-1,7
 68 201 68 201 83 216 c 128,-1,8
 98 231 98 231 117.5 240.5 c 128,-1,9
 137 250 137 250 158 256 c 1,10,-1
 158 260 l 1,11,12
 118 274 118 274 97 303.5 c 128,-1,13
 76 333 76 333 76 367 c 0,14,15
 76 400 76 400 90 425 c 128,-1,16
 104 450 104 450 128.5 466 c 128,-1,17
 153 482 153 482 185.5 490 c 128,-1,18
 218 498 218 498 256 498 c 0,19,20
 306 498 306 498 350.5 482 c 128,-1,21
 395 466 395 466 428.5 434 c 128,-1,22
 462 402 462 402 481.5 354 c 128,-1,23
 501 306 501 306 501 242 c 0,24,25
 501 179 501 179 482 131.5 c 128,-1,26
 463 84 463 84 430.5 52 c 128,-1,27
 398 20 398 20 354 4 c 128,-1,28
 310 -12 310 -12 259 -12 c 0,0,1
260 54 m 0,29,30
 332 54 332 54 374 102 c 128,-1,31
 416 150 416 150 416 242 c 0,32,33
 416 335 416 335 373 384 c 128,-1,34
 330 433 330 433 257 433 c 0,35,36
 215 433 215 433 186.5 414 c 128,-1,37
 158 395 158 395 158 357 c 0,38,39
 158 324 158 324 184 303 c 128,-1,40
 210 282 210 282 267 282 c 2,41,-1
 294 282 l 1,42,-1
 294 223 l 1,43,-1
 252 223 l 2,44,45
 194 223 194 223 163 202 c 128,-1,46
 132 181 132 181 132 141 c 0,47,48
 132 100 132 100 166.5 77 c 128,-1,49
 201 54 201 54 260 54 c 0,29,30
EndSplineSet
Validated: 1
EndChar

StartChar: uni025F
Encoding: 607 607 461
Width: 270
GlyphClass: 2
Flags: W
AnchorPoint: "Anchor-0" 136 509 basechar 0
LayerCount: 2
Fore
SplineSet
43 -217 m 0,0,1
 20 -217 20 -217 2 -213 c 128,-1,2
 -16 -209 -16 -209 -29 -204 c 1,3,-1
 -12 -142 l 1,4,5
 -3 -145 -3 -145 9 -147.5 c 128,-1,6
 21 -150 21 -150 34 -150 c 0,7,8
 70 -150 70 -150 82 -125 c 128,-1,9
 94 -100 94 -100 94 -55 c 2,10,-1
 94 231 l 1,11,-1
 8 231 l 1,12,-1
 8 274 l 1,13,-1
 94 279 l 1,14,-1
 94 486 l 1,15,-1
 176 486 l 1,16,-1
 176 279 l 1,17,-1
 259 279 l 1,18,-1
 259 231 l 1,19,-1
 176 231 l 1,20,-1
 176 -55 l 2,21,22
 176 -129 176 -129 146 -173 c 128,-1,23
 116 -217 116 -217 43 -217 c 0,0,1
EndSplineSet
Validated: 1
EndChar

StartChar: uni0260
Encoding: 608 608 462
Width: 559
GlyphClass: 2
Flags: W
AnchorPoint: "Anchor-0" 286 509 basechar 0
LayerCount: 2
Fore
SplineSet
259 -216 m 0,0,1
 214 -216 214 -216 168.5 -202.5 c 128,-1,2
 123 -189 123 -189 85 -163 c 1,3,-1
 115 -105 l 1,4,5
 151 -129 151 -129 187.5 -139.5 c 128,-1,6
 224 -150 224 -150 259 -150 c 0,7,8
 326 -150 326 -150 358.5 -115.5 c 128,-1,9
 391 -81 391 -81 393 -22 c 2,10,-1
 394 70 l 1,11,12
 366 43 366 43 329.5 24 c 128,-1,13
 293 5 293 5 250 5 c 0,14,15
 204 5 204 5 167 22 c 128,-1,16
 130 39 130 39 104 70.5 c 128,-1,17
 78 102 78 102 64 147.5 c 128,-1,18
 50 193 50 193 50 250 c 256,19,20
 50 307 50 307 67.5 353 c 128,-1,21
 85 399 85 399 114 431 c 128,-1,22
 143 463 143 463 181.5 480.5 c 128,-1,23
 220 498 220 498 261 498 c 0,24,25
 303 498 303 498 333 483 c 128,-1,26
 363 468 363 468 395 442 c 1,27,-1
 394 483 l 2,28,29
 394 549 394 549 425.5 589 c 128,-1,30
 457 629 457 629 525 629 c 0,31,32
 542 629 542 629 556 626.5 c 128,-1,33
 570 624 570 624 581 619 c 1,34,-1
 565 556 l 1,35,36
 551 562 551 562 534 562 c 0,37,38
 501 562 501 562 488 537 c 128,-1,39
 475 512 475 512 475 470 c 2,40,-1
 475 -24 l 2,41,42
 475 -115 475 -115 419 -165.5 c 128,-1,43
 363 -216 363 -216 259 -216 c 0,0,1
268 73 m 0,44,45
 302 73 302 73 331.5 89.5 c 128,-1,46
 361 106 361 106 393 140 c 1,47,-1
 393 378 l 1,48,49
 361 406 361 406 332.5 417.5 c 128,-1,50
 304 429 304 429 274 429 c 0,51,52
 245 429 245 429 219.5 416 c 128,-1,53
 194 403 194 403 175 379 c 128,-1,54
 156 355 156 355 145 322.5 c 128,-1,55
 134 290 134 290 134 251 c 0,56,57
 134 169 134 169 169 121 c 128,-1,58
 204 73 204 73 268 73 c 0,44,45
EndSplineSet
Validated: 1
Substitution2: "'smcp' Lowercase to Small Capitals lookup 20 subtable" uni0193.sc
Substitution2: "'aalt' Access All Alternates lookup 0 subtable" uni0193.sc
EndChar

StartChar: uni0261
Encoding: 609 609 463
Width: 504
GlyphClass: 2
Flags: W
HStem: -224 57<157.013 355.386> -8 68<167.5 386.213> 154 55<183.633 308.445> 423 63<384 484> 438 60<181.753 310.422>
VStem: 45 72<-131.947 -30.3928> 63 80<250.604 398.837> 73 69<74.0451 160.205> 349 75<250.542 398.811> 412 80<-118.988 -22.7204>
LayerCount: 2
Fore
SplineSet
246 -224 m 0,0,1
 201 -224 201 -224 164 -215.5 c 128,-1,2
 127 -207 127 -207 100.5 -190 c 128,-1,3
 74 -173 74 -173 59.5 -149 c 128,-1,4
 45 -125 45 -125 45 -93 c 0,5,6
 45 -62 45 -62 64 -34 c 128,-1,7
 83 -6 83 -6 116 17 c 1,8,-1
 116 21 l 1,9,10
 98 32 98 32 85.5 51.5 c 128,-1,11
 73 71 73 71 73 100 c 0,12,13
 73 131 73 131 90 154 c 128,-1,14
 107 177 107 177 126 190 c 1,15,-1
 126 194 l 1,16,17
 102 214 102 214 82.5 247.5 c 128,-1,18
 63 281 63 281 63 325 c 0,19,20
 63 365 63 365 77.5 397 c 128,-1,21
 92 429 92 429 117 451.5 c 128,-1,22
 142 474 142 474 175.5 486 c 128,-1,23
 209 498 209 498 246 498 c 0,24,25
 266 498 266 498 283.5 494.5 c 128,-1,26
 301 491 301 491 315 486 c 1,27,-1
 484 486 l 1,28,-1
 484 423 l 1,29,-1
 384 423 l 1,30,31
 401 406 401 406 412.5 380 c 128,-1,32
 424 354 424 354 424 323 c 0,33,34
 424 284 424 284 410 252.5 c 128,-1,35
 396 221 396 221 372 199.5 c 128,-1,36
 348 178 348 178 315.5 166 c 128,-1,37
 283 154 283 154 246 154 c 0,38,39
 228 154 228 154 209 158.5 c 128,-1,40
 190 163 190 163 173 171 c 1,41,42
 160 160 160 160 151 146.5 c 128,-1,43
 142 133 142 133 142 113 c 0,44,45
 142 90 142 90 160 75 c 128,-1,46
 178 60 178 60 228 60 c 2,47,-1
 322 60 l 2,48,49
 407 60 407 60 449.5 32.5 c 128,-1,50
 492 5 492 5 492 -56 c 0,51,52
 492 -90 492 -90 475 -120.5 c 128,-1,53
 458 -151 458 -151 426 -174 c 128,-1,54
 394 -197 394 -197 348.5 -210.5 c 128,-1,55
 303 -224 303 -224 246 -224 c 0,0,1
246 209 m 256,56,57
 267 209 267 209 285.5 217 c 128,-1,58
 304 225 304 225 318.5 240 c 128,-1,59
 333 255 333 255 341 276.5 c 128,-1,60
 349 298 349 298 349 325 c 0,61,62
 349 379 349 379 319 408.5 c 128,-1,63
 289 438 289 438 246 438 c 256,64,65
 203 438 203 438 173 408.5 c 128,-1,66
 143 379 143 379 143 325 c 0,67,68
 143 298 143 298 151 276.5 c 128,-1,69
 159 255 159 255 173.5 240 c 128,-1,70
 188 225 188 225 206.5 217 c 128,-1,71
 225 209 225 209 246 209 c 256,56,57
258 -167 m 0,72,73
 293 -167 293 -167 321.5 -158.5 c 128,-1,74
 350 -150 350 -150 370 -136.5 c 128,-1,75
 390 -123 390 -123 401 -105 c 128,-1,76
 412 -87 412 -87 412 -68 c 0,77,78
 412 -34 412 -34 387 -21 c 128,-1,79
 362 -8 362 -8 314 -8 c 2,80,-1
 230 -8 l 2,81,82
 216 -8 216 -8 199.5 -6.5 c 128,-1,83
 183 -5 183 -5 167 0 c 1,84,85
 141 -19 141 -19 129 -40 c 128,-1,86
 117 -61 117 -61 117 -82 c 0,87,88
 117 -121 117 -121 154.5 -144 c 128,-1,89
 192 -167 192 -167 258 -167 c 0,72,73
EndSplineSet
Validated: 1
EndChar

StartChar: uni0262
Encoding: 610 610 464
Width: 497
GlyphClass: 2
Flags: W
AnchorPoint: "Anchor-4" 304 -22 basechar 0
AnchorPoint: "Anchor-1" 308 509 basechar 0
LayerCount: 2
Fore
SplineSet
280 -12 m 0,0,1
 231 -12 231 -12 188 4.5 c 128,-1,2
 145 21 145 21 113.5 53.5 c 128,-1,3
 82 86 82 86 64 134 c 128,-1,4
 46 182 46 182 46 244 c 0,5,6
 46 303 46 303 64.5 350 c 128,-1,7
 83 397 83 397 115.5 430 c 128,-1,8
 148 463 148 463 191.5 480.5 c 128,-1,9
 235 498 235 498 285 498 c 0,10,11
 342 498 342 498 378 479.5 c 128,-1,12
 414 461 414 461 440 438 c 1,13,-1
 400 387 l 1,14,15
 379 405 379 405 353.5 419 c 128,-1,16
 328 433 328 433 289 433 c 0,17,18
 256 433 256 433 226.5 420.5 c 128,-1,19
 197 408 197 408 175.5 383.5 c 128,-1,20
 154 359 154 359 141.5 324 c 128,-1,21
 129 289 129 289 129 244 c 0,22,23
 129 154 129 154 172 104 c 128,-1,24
 215 54 215 54 287 54 c 0,25,26
 314 54 314 54 337 62 c 128,-1,27
 360 70 360 70 375 84 c 1,28,-1
 375 203 l 1,29,-1
 267 203 l 1,30,-1
 267 262 l 1,31,-1
 448 262 l 1,32,-1
 448 49 l 1,33,34
 421 23 421 23 377.5 5.5 c 128,-1,35
 334 -12 334 -12 280 -12 c 0,0,1
EndSplineSet
Validated: 1
EndChar

StartChar: uni0263
Encoding: 611 611 465
Width: 467
GlyphClass: 2
Flags: W
AnchorPoint: "Anchor-4" 235 -22 basechar 0
AnchorPoint: "Anchor-0" 235 509 basechar 0
LayerCount: 2
Fore
SplineSet
236 -224 m 0,0,1
 182 -224 182 -224 153.5 -192 c 128,-1,2
 125 -160 125 -160 125 -108 c 0,3,4
 125 -73 125 -73 140 -36.5 c 128,-1,5
 155 0 155 0 181 52 c 1,6,-1
 12 486 l 1,7,-1
 97 486 l 1,8,-1
 189 227 l 2,9,10
 200 194 200 194 211.5 165.5 c 128,-1,11
 223 137 223 137 234 105 c 1,12,-1
 238 105 l 1,13,14
 249 137 249 137 260 165.5 c 128,-1,15
 271 194 271 194 282 227 c 2,16,-1
 374 486 l 1,17,-1
 455 486 l 1,18,-1
 289 53 l 1,19,20
 302 27 302 27 312.5 5 c 128,-1,21
 323 -17 323 -17 330.5 -36 c 128,-1,22
 338 -55 338 -55 342 -72.5 c 128,-1,23
 346 -90 346 -90 346 -108 c 0,24,25
 346 -160 346 -160 317.5 -192 c 128,-1,26
 289 -224 289 -224 236 -224 c 0,0,1
236 -167 m 256,27,28
 256 -167 256 -167 265.5 -152 c 128,-1,29
 275 -137 275 -137 275 -114 c 0,30,31
 275 -87 275 -87 265 -55.5 c 128,-1,32
 255 -24 255 -24 237 11 c 1,33,-1
 233 11 l 1,34,35
 216 -24 216 -24 206 -56.5 c 128,-1,36
 196 -89 196 -89 196 -114 c 0,37,38
 196 -137 196 -137 206 -152 c 128,-1,39
 216 -167 216 -167 236 -167 c 256,27,28
EndSplineSet
Validated: 1
EndChar

StartChar: uni0264
Encoding: 612 612 466
Width: 511
Flags: W
LayerCount: 2
Fore
SplineSet
256 -12 m 256,0,1
 171 -12 171 -12 126.5 32.5 c 128,-1,2
 82 77 82 77 82 155 c 0,3,4
 82 210 82 210 115.5 263 c 128,-1,5
 149 316 149 316 199 363 c 1,6,7
 173 395 173 395 145 412.5 c 128,-1,8
 117 430 117 430 89 430 c 256,9,10
 61 430 61 430 42 416 c 1,11,-1
 16 476 l 1,12,13
 31 487 31 487 54 492.5 c 128,-1,14
 77 498 77 498 100 498 c 0,15,16
 141 498 141 498 181 474.5 c 128,-1,17
 221 451 221 451 256 411 c 1,18,19
 291 451 291 451 330.5 474.5 c 128,-1,20
 370 498 370 498 411 498 c 0,21,22
 434 498 434 498 457 492.5 c 128,-1,23
 480 487 480 487 495 476 c 1,24,-1
 469 416 l 1,25,26
 449 430 449 430 422 430 c 0,27,28
 393 430 393 430 365.5 412.5 c 128,-1,29
 338 395 338 395 312 363 c 1,30,31
 361 316 361 316 395 263 c 128,-1,32
 429 210 429 210 429 155 c 0,33,34
 429 77 429 77 385 32.5 c 128,-1,35
 341 -12 341 -12 256 -12 c 256,0,1
256 56 m 256,36,37
 304 56 304 56 327 85.5 c 128,-1,38
 350 115 350 115 350 157 c 0,39,40
 350 201 350 201 322.5 244 c 128,-1,41
 295 287 295 287 256 324 c 1,42,43
 216 287 216 287 189 244 c 128,-1,44
 162 201 162 201 162 157 c 0,45,46
 162 115 162 115 185 85.5 c 128,-1,47
 208 56 208 56 256 56 c 256,36,37
EndSplineSet
Validated: 1
EndChar

StartChar: uni0265
Encoding: 613 613 467
Width: 547
GlyphClass: 2
Flags: W
AnchorPoint: "Anchor-4" 290 -22 basechar 0
AnchorPoint: "Anchor-0" 272 509 basechar 0
LayerCount: 2
Fore
SplineSet
382 -205 m 1,0,-1
 382 -31 l 1,1,-1
 387 75 l 1,2,3
 352 36 352 36 313.5 12 c 128,-1,4
 275 -12 275 -12 224 -12 c 0,5,6
 146 -12 146 -12 110.5 36 c 128,-1,7
 75 84 75 84 75 178 c 2,8,-1
 75 486 l 1,9,-1
 158 486 l 1,10,-1
 158 189 l 2,11,12
 158 120 158 120 179.5 89.5 c 128,-1,13
 201 59 201 59 249 59 c 0,14,15
 287 59 287 59 317 78 c 128,-1,16
 347 97 347 97 382 141 c 1,17,-1
 382 486 l 1,18,-1
 465 486 l 1,19,-1
 465 -205 l 1,20,-1
 382 -205 l 1,0,-1
EndSplineSet
Validated: 1
EndChar

StartChar: uni0266
Encoding: 614 614 468
Width: 544
GlyphClass: 2
Flags: W
AnchorPoint: "Anchor-4" 286 -22 basechar 0
LayerCount: 2
Fore
SplineSet
82 0 m 1,0,-1
 82 537 l 2,1,2
 82 579 82 579 92.5 613 c 128,-1,3
 103 647 103 647 124 672 c 128,-1,4
 145 697 145 697 176.5 710.5 c 128,-1,5
 208 724 208 724 251 724 c 0,6,7
 273 724 273 724 294.5 719.5 c 128,-1,8
 316 715 316 715 333 708 c 1,9,-1
 314 645 l 1,10,11
 287 657 287 657 259 657 c 0,12,13
 211 657 211 657 188.5 625 c 128,-1,14
 166 593 166 593 164 536 c 2,15,-1
 161 410 l 1,16,17
 196 443 196 443 234 467 c 128,-1,18
 272 491 272 491 323 491 c 0,19,20
 400 491 400 491 435.5 443 c 128,-1,21
 471 395 471 395 471 301 c 2,22,-1
 471 0 l 1,23,-1
 389 0 l 1,24,-1
 389 290 l 2,25,26
 389 359 389 359 367 389 c 128,-1,27
 345 419 345 419 297 419 c 0,28,29
 259 419 259 419 230 400.5 c 128,-1,30
 201 382 201 382 164 345 c 1,31,-1
 164 0 l 1,32,-1
 82 0 l 1,0,-1
EndSplineSet
Validated: 1
EndChar

StartChar: uni0267
Encoding: 615 615 469
Width: 544
Flags: W
LayerCount: 2
Fore
SplineSet
338 -183 m 0,0,1
 315 -183 315 -183 297 -179 c 128,-1,2
 279 -175 279 -175 267 -170 c 1,3,-1
 283 -107 l 1,4,5
 292 -110 292 -110 304 -113 c 128,-1,6
 316 -116 316 -116 329 -116 c 0,7,8
 365 -116 365 -116 377 -90.5 c 128,-1,9
 389 -65 389 -65 389 -20 c 2,10,-1
 389 290 l 2,11,12
 389 359 389 359 367 389 c 128,-1,13
 345 419 345 419 297 419 c 0,14,15
 259 419 259 419 230 400.5 c 128,-1,16
 201 382 201 382 164 345 c 1,17,-1
 164 0 l 1,18,-1
 82 0 l 1,19,-1
 82 537 l 2,20,21
 82 579 82 579 92.5 613 c 128,-1,22
 103 647 103 647 124 672 c 128,-1,23
 145 697 145 697 176.5 710.5 c 128,-1,24
 208 724 208 724 251 724 c 0,25,26
 273 724 273 724 294.5 719.5 c 128,-1,27
 316 715 316 715 333 708 c 1,28,-1
 314 645 l 1,29,30
 287 657 287 657 259 657 c 0,31,32
 211 657 211 657 188.5 625 c 128,-1,33
 166 593 166 593 164 536 c 2,34,-1
 161 410 l 1,35,36
 196 443 196 443 234 467 c 128,-1,37
 272 491 272 491 323 491 c 0,38,39
 400 491 400 491 435.5 443 c 128,-1,40
 471 395 471 395 471 301 c 2,41,-1
 471 -21 l 2,42,43
 471 -95 471 -95 441 -139 c 128,-1,44
 411 -183 411 -183 338 -183 c 0,0,1
EndSplineSet
Validated: 1
EndChar

StartChar: uni029C
Encoding: 668 668 470
Width: 562
Flags: W
LayerCount: 2
Fore
SplineSet
83 0 m 1,0,-1
 83 486 l 1,1,-1
 165 486 l 1,2,-1
 165 289 l 1,3,-1
 399 289 l 1,4,-1
 399 486 l 1,5,-1
 481 486 l 1,6,-1
 481 0 l 1,7,-1
 399 0 l 1,8,-1
 399 216 l 1,9,-1
 165 216 l 1,10,-1
 165 0 l 1,11,-1
 83 0 l 1,0,-1
EndSplineSet
Validated: 1
EndChar

StartChar: uni0268
Encoding: 616 616 471
Width: 270
Flags: W
LayerCount: 2
Fore
SplineSet
8 231 m 1,0,-1
 8 274 l 1,1,-1
 94 279 l 1,2,-1
 94 486 l 1,3,-1
 176 486 l 1,4,-1
 176 279 l 1,5,-1
 259 279 l 1,6,-1
 259 231 l 1,7,-1
 176 231 l 1,8,-1
 176 0 l 1,9,-1
 94 0 l 1,10,-1
 94 231 l 1,11,-1
 8 231 l 1,0,-1
136 586 m 256,12,13
 112 586 112 586 95.5 601 c 128,-1,14
 79 616 79 616 79 639 c 0,15,16
 79 663 79 663 95.5 677.5 c 128,-1,17
 112 692 112 692 136 692 c 256,18,19
 160 692 160 692 176.5 677.5 c 128,-1,20
 193 663 193 663 193 639 c 0,21,22
 193 616 193 616 176.5 601 c 128,-1,23
 160 586 160 586 136 586 c 256,12,13
EndSplineSet
Validated: 1
EndChar

StartChar: uni026A
Encoding: 618 618 472
Width: 341
GlyphClass: 2
Flags: W
AnchorPoint: "Anchor-8" 148 0 basechar 0
AnchorPoint: "Anchor-4" 171 -22 basechar 0
AnchorPoint: "Anchor-0" 171 509 basechar 0
LayerCount: 2
Fore
SplineSet
46 0 m 1,0,-1
 46 67 l 1,1,-1
 130 67 l 1,2,-1
 130 419 l 1,3,-1
 46 419 l 1,4,-1
 46 486 l 1,5,-1
 295 486 l 1,6,-1
 295 419 l 1,7,-1
 212 419 l 1,8,-1
 212 67 l 1,9,-1
 295 67 l 1,10,-1
 295 0 l 1,11,-1
 46 0 l 1,0,-1
EndSplineSet
Validated: 1
EndChar

StartChar: uni029D
Encoding: 669 669 473
Width: 284
Flags: W
LayerCount: 2
Fore
SplineSet
242 -274 m 1,0,1
 204 -203 204 -203 167 -155 c 1,2,3
 147 -184 147 -184 115.5 -200.5 c 128,-1,4
 84 -217 84 -217 40 -217 c 0,5,6
 11 -217 11 -217 -12 -208 c 128,-1,7
 -35 -199 -35 -199 -51 -184 c 128,-1,8
 -67 -169 -67 -169 -75.5 -149 c 128,-1,9
 -84 -129 -84 -129 -84 -106 c 0,10,11
 -84 -61 -84 -61 -52.5 -33.5 c 128,-1,12
 -21 -6 -21 -6 37 -6 c 0,13,14
 77 -6 77 -6 120 -29 c 1,15,-1
 120 486 l 1,16,-1
 202 486 l 1,17,-1
 202 -23 l 2,18,19
 202 -57 202 -57 196 -87 c 1,20,21
 254 -145 254 -145 306 -244 c 1,22,-1
 242 -274 l 1,0,1
39 -152 m 0,23,24
 69 -152 69 -152 86.5 -136.5 c 128,-1,25
 104 -121 104 -121 112 -97 c 1,26,27
 72 -65 72 -65 36 -65 c 0,28,29
 10 -65 10 -65 -3.5 -76.5 c 128,-1,30
 -17 -88 -17 -88 -17 -105 c 0,31,32
 -17 -125 -17 -125 -1.5 -138.5 c 128,-1,33
 14 -152 14 -152 39 -152 c 0,23,24
161 586 m 256,34,35
 137 586 137 586 120.5 601 c 128,-1,36
 104 616 104 616 104 639 c 0,37,38
 104 663 104 663 120.5 677.5 c 128,-1,39
 137 692 137 692 161 692 c 256,40,41
 185 692 185 692 201.5 677.5 c 128,-1,42
 218 663 218 663 218 639 c 0,43,44
 218 616 218 616 201.5 601 c 128,-1,45
 185 586 185 586 161 586 c 256,34,35
EndSplineSet
Validated: 1
EndChar

StartChar: uni026C
Encoding: 620 620 474
Width: 302
Flags: W
LayerCount: 2
Fore
SplineSet
121 319 m 2,0,1
 55 319 55 319 24.5 343.5 c 128,-1,2
 -6 368 -6 368 -6 406 c 0,3,4
 -6 440 -6 440 17 462.5 c 128,-1,5
 40 485 40 485 77 485 c 0,6,7
 95 485 95 485 108 479.5 c 128,-1,8
 121 474 121 474 131 465 c 1,9,-1
 131 712 l 1,10,-1
 213 712 l 1,11,-1
 213 366 l 1,12,-1
 296 366 l 1,13,-1
 296 319 l 1,14,-1
 213 319 l 1,15,-1
 213 92 l 2,16,17
 213 72 213 72 220 64 c 128,-1,18
 227 56 227 56 236 56 c 0,19,20
 240 56 240 56 243.5 56 c 128,-1,21
 247 56 247 56 254 58 c 1,22,-1
 265 -4 l 1,23,24
 257 -8 257 -8 246 -10 c 128,-1,25
 235 -12 235 -12 218 -12 c 0,26,27
 171 -12 171 -12 151 16 c 128,-1,28
 131 44 131 44 131 98 c 2,29,-1
 131 319 l 1,30,-1
 121 319 l 2,0,1
111 366 m 2,31,-1
 131 366 l 1,32,-1
 131 372 l 2,33,34
 131 383 131 383 128.5 395 c 128,-1,35
 126 407 126 407 120.5 416.5 c 128,-1,36
 115 426 115 426 105.5 432.5 c 128,-1,37
 96 439 96 439 81 439 c 0,38,39
 63 439 63 439 55 429 c 128,-1,40
 47 419 47 419 47 405 c 0,41,42
 47 389 47 389 62.5 377.5 c 128,-1,43
 78 366 78 366 111 366 c 2,31,-1
EndSplineSet
Validated: 1
EndChar

StartChar: uni026D
Encoding: 621 621 475
Width: 255
Flags: W
LayerCount: 2
Fore
SplineSet
205 -183 m 0,0,1
 137 -183 137 -183 109.5 -141.5 c 128,-1,2
 82 -100 82 -100 82 -28 c 2,3,-1
 82 712 l 1,4,-1
 164 712 l 1,5,-1
 164 -28 l 2,6,7
 164 -70 164 -70 174.5 -93 c 128,-1,8
 185 -116 185 -116 214 -116 c 0,9,10
 225 -116 225 -116 233.5 -113 c 128,-1,11
 242 -110 242 -110 250 -107 c 1,12,-1
 267 -170 l 1,13,14
 256 -175 256 -175 240.5 -179 c 128,-1,15
 225 -183 225 -183 205 -183 c 0,0,1
EndSplineSet
Validated: 1
EndChar

StartChar: uni026E
Encoding: 622 622 476
Width: 577
Flags: W
LayerCount: 2
Fore
SplineSet
352 -217 m 0,0,1
 316 -217 316 -217 286.5 -210.5 c 128,-1,2
 257 -204 257 -204 233 -193 c 128,-1,3
 209 -182 209 -182 190 -168 c 128,-1,4
 171 -154 171 -154 155 -139 c 1,5,-1
 196 -87 l 1,6,7
 222 -111 222 -111 257 -130 c 128,-1,8
 292 -149 292 -149 345 -149 c 0,9,10
 372 -149 372 -149 395.5 -138.5 c 128,-1,11
 419 -128 419 -128 436.5 -108.5 c 128,-1,12
 454 -89 454 -89 464.5 -61.5 c 128,-1,13
 475 -34 475 -34 475 0 c 0,14,15
 475 62 475 62 440.5 97 c 128,-1,16
 406 132 406 132 341 132 c 0,17,18
 320 132 320 132 307.5 128 c 128,-1,19
 295 124 295 124 278 116 c 1,20,-1
 245 161 l 1,21,-1
 437 419 l 1,22,-1
 164 419 l 1,23,-1
 164 0 l 1,24,-1
 82 0 l 1,25,-1
 82 712 l 1,26,-1
 164 712 l 1,27,-1
 164 486 l 1,28,-1
 537 486 l 1,29,-1
 537 442 l 1,30,-1
 349 189 l 1,31,32
 397 194 397 194 436 182 c 128,-1,33
 475 170 475 170 502 145 c 128,-1,34
 529 120 529 120 543.5 83 c 128,-1,35
 558 46 558 46 558 2 c 0,36,37
 558 -51 558 -51 541 -91.5 c 128,-1,38
 524 -132 524 -132 495.5 -160 c 128,-1,39
 467 -188 467 -188 429.5 -202.5 c 128,-1,40
 392 -217 392 -217 352 -217 c 0,0,1
EndSplineSet
Validated: 33
EndChar

StartChar: uni029F
Encoding: 671 671 477
Width: 411
GlyphClass: 2
Flags: W
AnchorPoint: "Anchor-4" 252 -22 basechar 0
AnchorPoint: "Anchor-1" 129 563 basechar 0
LayerCount: 2
Fore
SplineSet
82 0 m 1,0,-1
 82 486 l 1,1,-1
 164 486 l 1,2,-1
 164 67 l 1,3,-1
 385 67 l 1,4,-1
 385 0 l 1,5,-1
 82 0 l 1,0,-1
EndSplineSet
Validated: 1
EndChar

StartChar: uni026F
Encoding: 623 623 478
Width: 829
GlyphClass: 2
Flags: W
AnchorPoint: "Anchor-4" 425 -22 basechar 0
AnchorPoint: "Anchor-0" 419 509 basechar 0
LayerCount: 2
Fore
SplineSet
225 -12 m 0,0,1
 150 -12 150 -12 113.5 36 c 128,-1,2
 77 84 77 84 77 178 c 2,3,-1
 77 486 l 1,4,-1
 159 486 l 1,5,-1
 159 189 l 2,6,7
 159 120 159 120 181 89.5 c 128,-1,8
 203 59 203 59 250 59 c 0,9,10
 305 59 305 59 371 134 c 1,11,-1
 371 486 l 1,12,-1
 454 486 l 1,13,-1
 454 189 l 2,14,15
 454 120 454 120 475.5 89.5 c 128,-1,16
 497 59 497 59 544 59 c 0,17,18
 598 59 598 59 666 134 c 1,19,-1
 666 486 l 1,20,-1
 748 486 l 1,21,-1
 748 0 l 1,22,-1
 680 0 l 1,23,-1
 673 70 l 1,24,-1
 671 70 l 1,25,26
 639 36 639 36 601 12 c 128,-1,27
 563 -12 563 -12 519 -12 c 0,28,29
 463 -12 463 -12 431.5 13 c 128,-1,30
 400 38 400 38 385 81 c 1,31,32
 347 39 347 39 308.5 13.5 c 128,-1,33
 270 -12 270 -12 225 -12 c 0,0,1
EndSplineSet
Validated: 1
EndChar

StartChar: uni0270
Encoding: 624 624 479
Width: 829
GlyphClass: 2
Flags: W
AnchorPoint: "Anchor-4" 425 -22 basechar 0
AnchorPoint: "Anchor-0" 419 509 basechar 0
LayerCount: 2
Fore
SplineSet
666 -205 m 1,0,-1
 666 -32 l 1,1,-1
 670 71 l 1,2,3
 635 33 635 33 598 10.5 c 128,-1,4
 561 -12 561 -12 519 -12 c 0,5,6
 463 -12 463 -12 431.5 13 c 128,-1,7
 400 38 400 38 385 81 c 1,8,9
 347 39 347 39 308.5 13.5 c 128,-1,10
 270 -12 270 -12 225 -12 c 0,11,12
 150 -12 150 -12 113.5 36 c 128,-1,13
 77 84 77 84 77 178 c 2,14,-1
 77 486 l 1,15,-1
 159 486 l 1,16,-1
 159 189 l 2,17,18
 159 120 159 120 181 89.5 c 128,-1,19
 203 59 203 59 250 59 c 0,20,21
 305 59 305 59 371 134 c 1,22,-1
 371 486 l 1,23,-1
 454 486 l 1,24,-1
 454 189 l 2,25,26
 454 120 454 120 475.5 89.5 c 128,-1,27
 497 59 497 59 544 59 c 0,28,29
 598 59 598 59 666 134 c 1,30,-1
 666 486 l 1,31,-1
 748 486 l 1,32,-1
 748 -205 l 1,33,-1
 666 -205 l 1,0,-1
EndSplineSet
Validated: 1
EndChar

StartChar: uni0271
Encoding: 625 625 480
Width: 829
GlyphClass: 2
Flags: W
AnchorPoint: "Anchor-0" 419 509 basechar 0
LayerCount: 2
Fore
SplineSet
624 -183 m 0,0,1
 603 -183 603 -183 585.5 -179 c 128,-1,2
 568 -175 568 -175 556 -170 c 1,3,-1
 572 -107 l 1,4,5
 580 -110 580 -110 591.5 -113 c 128,-1,6
 603 -116 603 -116 615 -116 c 0,7,8
 650 -116 650 -116 660.5 -90.5 c 128,-1,9
 671 -65 671 -65 671 -20 c 2,10,-1
 671 297 l 2,11,12
 671 366 671 366 649 396.5 c 128,-1,13
 627 427 627 427 581 427 c 0,14,15
 526 427 526 427 459 352 c 1,16,-1
 459 0 l 1,17,-1
 377 0 l 1,18,-1
 377 297 l 2,19,20
 377 366 377 366 355 396.5 c 128,-1,21
 333 427 333 427 286 427 c 0,22,23
 231 427 231 427 164 352 c 1,24,-1
 164 0 l 1,25,-1
 82 0 l 1,26,-1
 82 486 l 1,27,-1
 150 486 l 1,28,-1
 157 416 l 1,29,-1
 160 416 l 1,30,31
 192 451 192 451 229.5 474.5 c 128,-1,32
 267 498 267 498 311 498 c 0,33,34
 367 498 367 498 398.5 473.5 c 128,-1,35
 430 449 430 449 445 405 c 1,36,37
 483 447 483 447 521.5 472.5 c 128,-1,38
 560 498 560 498 605 498 c 0,39,40
 680 498 680 498 716.5 450 c 128,-1,41
 753 402 753 402 753 308 c 2,42,-1
 753 -21 l 2,43,44
 753 -95 753 -95 723.5 -139 c 128,-1,45
 694 -183 694 -183 624 -183 c 0,0,1
EndSplineSet
Validated: 1
EndChar

StartChar: uni0272
Encoding: 626 626 481
Width: 547
GlyphClass: 2
Flags: W
AnchorPoint: "Anchor-0" 291 509 basechar 0
LayerCount: 2
Fore
SplineSet
41 -183 m 0,0,1
 22 -183 22 -183 6 -179 c 128,-1,2
 -10 -175 -10 -175 -20 -170 c 1,3,-1
 -4 -107 l 1,4,5
 4 -110 4 -110 12.5 -113 c 128,-1,6
 21 -116 21 -116 32 -116 c 0,7,8
 61 -116 61 -116 71.5 -93 c 128,-1,9
 82 -70 82 -70 82 -28 c 2,10,-1
 82 486 l 1,11,-1
 152 486 l 1,12,-1
 157 416 l 1,13,-1
 160 416 l 1,14,15
 195 451 195 451 233.5 474.5 c 128,-1,16
 272 498 272 498 323 498 c 0,17,18
 400 498 400 498 435.5 450 c 128,-1,19
 471 402 471 402 471 308 c 2,20,-1
 471 0 l 1,21,-1
 389 0 l 1,22,-1
 389 297 l 2,23,24
 389 366 389 366 367 396.5 c 128,-1,25
 345 427 345 427 297 427 c 0,26,27
 259 427 259 427 230 408 c 128,-1,28
 201 389 201 389 164 352 c 1,29,-1
 164 -28 l 2,30,31
 164 -100 164 -100 136.5 -141.5 c 128,-1,32
 109 -183 109 -183 41 -183 c 0,0,1
EndSplineSet
Validated: 1
EndChar

StartChar: uni0273
Encoding: 627 627 482
Width: 547
GlyphClass: 2
Flags: W
AnchorPoint: "Anchor-0" 291 509 basechar 0
LayerCount: 2
Fore
SplineSet
512 -183 m 0,0,1
 444 -183 444 -183 416.5 -141.5 c 128,-1,2
 389 -100 389 -100 389 -28 c 2,3,-1
 389 297 l 2,4,5
 389 366 389 366 367 396.5 c 128,-1,6
 345 427 345 427 297 427 c 0,7,8
 259 427 259 427 230 408 c 128,-1,9
 201 389 201 389 164 352 c 1,10,-1
 164 0 l 1,11,-1
 82 0 l 1,12,-1
 82 486 l 1,13,-1
 150 486 l 1,14,-1
 157 416 l 1,15,-1
 160 416 l 1,16,17
 195 451 195 451 233.5 474.5 c 128,-1,18
 272 498 272 498 323 498 c 0,19,20
 400 498 400 498 435.5 450 c 128,-1,21
 471 402 471 402 471 308 c 2,22,-1
 471 -28 l 2,23,24
 471 -70 471 -70 481.5 -93 c 128,-1,25
 492 -116 492 -116 521 -116 c 0,26,27
 532 -116 532 -116 540.5 -113 c 128,-1,28
 549 -110 549 -110 557 -107 c 1,29,-1
 573 -170 l 1,30,31
 563 -175 563 -175 547 -179 c 128,-1,32
 531 -183 531 -183 512 -183 c 0,0,1
EndSplineSet
Validated: 1
EndChar

StartChar: uni0274
Encoding: 628 628 483
Width: 543
GlyphClass: 2
Flags: W
AnchorPoint: "Anchor-0" 275 509 basechar 0
LayerCount: 2
Fore
SplineSet
82 0 m 1,0,-1
 82 486 l 1,1,-1
 160 486 l 1,2,-1
 329 211 l 2,3,4
 343 188 343 188 358 159 c 128,-1,5
 373 130 373 130 387 107 c 1,6,-1
 391 107 l 1,7,8
 388 155 388 155 385.5 200 c 128,-1,9
 383 245 383 245 383 284 c 2,10,-1
 383 486 l 1,11,-1
 461 486 l 1,12,-1
 461 0 l 1,13,-1
 384 0 l 1,14,-1
 213 275 l 2,15,16
 199 297 199 297 184 326.5 c 128,-1,17
 169 356 169 356 156 379 c 1,18,-1
 152 379 l 1,19,20
 155 331 155 331 157.5 286 c 128,-1,21
 160 241 160 241 160 202 c 2,22,-1
 160 0 l 1,23,-1
 82 0 l 1,0,-1
EndSplineSet
Validated: 1
EndChar

StartChar: uni0275
Encoding: 629 629 484
Width: 542
GlyphClass: 2
Flags: W
AnchorPoint: "Anchor-0" 271 509 basechar 0
LayerCount: 2
Fore
SplineSet
271 -12 m 256,0,1
 226 -12 226 -12 185 4 c 128,-1,2
 144 20 144 20 113 52 c 128,-1,3
 82 84 82 84 64 131.5 c 128,-1,4
 46 179 46 179 46 242 c 256,5,6
 46 305 46 305 64 353 c 128,-1,7
 82 401 82 401 113 433.5 c 128,-1,8
 144 466 144 466 185 482 c 128,-1,9
 226 498 226 498 271 498 c 256,10,11
 316 498 316 498 357 482 c 128,-1,12
 398 466 398 466 429 433.5 c 128,-1,13
 460 401 460 401 478 353 c 128,-1,14
 496 305 496 305 496 242 c 256,15,16
 496 179 496 179 478 131.5 c 128,-1,17
 460 84 460 84 429 52 c 128,-1,18
 398 20 398 20 357 4 c 128,-1,19
 316 -12 316 -12 271 -12 c 256,0,1
271 434 m 0,20,21
 213 434 213 434 174 394 c 128,-1,22
 135 354 135 354 126 282 c 1,23,-1
 417 282 l 1,24,25
 408 354 408 354 369 394 c 128,-1,26
 330 434 330 434 271 434 c 0,20,21
271 53 m 0,27,28
 334 53 334 53 373.5 97.5 c 128,-1,29
 413 142 413 142 418 223 c 1,30,-1
 125 223 l 1,31,32
 130 142 130 142 169.5 97.5 c 128,-1,33
 209 53 209 53 271 53 c 0,27,28
EndSplineSet
Validated: 1
EndChar

StartChar: uni0276
Encoding: 630 630 485
Width: 699
GlyphClass: 2
Flags: W
AnchorPoint: "Anchor-4" 432 -22 basechar 0
AnchorPoint: "Anchor-0" 417 509 basechar 0
LayerCount: 2
Fore
SplineSet
287 -12 m 0,0,1
 237 -12 237 -12 193.5 4.5 c 128,-1,2
 150 21 150 21 117 53 c 128,-1,3
 84 85 84 85 65 132.5 c 128,-1,4
 46 180 46 180 46 243 c 256,5,6
 46 306 46 306 65 353.5 c 128,-1,7
 84 401 84 401 117 433 c 128,-1,8
 150 465 150 465 193.5 481.5 c 128,-1,9
 237 498 237 498 287 498 c 0,10,11
 312 498 312 498 335.5 496 c 128,-1,12
 359 494 359 494 389 486 c 1,13,-1
 669 486 l 1,14,-1
 669 423 l 1,15,-1
 440 423 l 1,16,-1
 440 282 l 1,17,-1
 632 282 l 1,18,-1
 632 223 l 1,19,-1
 440 223 l 1,20,-1
 440 63 l 1,21,-1
 679 63 l 1,22,-1
 679 0 l 1,23,-1
 389 0 l 1,24,25
 360 -8 360 -8 336 -10 c 128,-1,26
 312 -12 312 -12 287 -12 c 0,0,1
292 55 m 0,27,28
 307 55 307 55 324.5 58.5 c 128,-1,29
 342 62 342 62 358 67 c 1,30,-1
 358 418 l 1,31,32
 342 423 342 423 324.5 426.5 c 128,-1,33
 307 430 307 430 292 430 c 0,34,35
 259 430 259 430 229.5 418.5 c 128,-1,36
 200 407 200 407 178.5 383.5 c 128,-1,37
 157 360 157 360 144.5 325 c 128,-1,38
 132 290 132 290 132 243 c 0,39,40
 132 195 132 195 144.5 159.5 c 128,-1,41
 157 124 157 124 178.5 101 c 128,-1,42
 200 78 200 78 229.5 66.5 c 128,-1,43
 259 55 259 55 292 55 c 0,27,28
EndSplineSet
Validated: 1
EndChar

StartChar: uni0278
Encoding: 632 632 486
Width: 680
Flags: W
LayerCount: 2
Fore
SplineSet
131 244 m 0,0,1
 131 200 131 200 144.5 165.5 c 128,-1,2
 158 131 158 131 181 107 c 128,-1,3
 204 83 204 83 235.5 69 c 128,-1,4
 267 55 267 55 302 54 c 1,5,-1
 302 432 l 1,6,7
 267 430 267 430 235.5 417 c 128,-1,8
 204 404 204 404 181 380 c 128,-1,9
 158 356 158 356 144.5 321.5 c 128,-1,10
 131 287 131 287 131 244 c 0,0,1
549 244 m 0,11,12
 549 331 549 331 501.5 380 c 128,-1,13
 454 429 454 429 378 432 c 1,14,-1
 378 54 l 1,15,16
 414 55 414 55 445 69 c 128,-1,17
 476 83 476 83 499 107 c 128,-1,18
 522 131 522 131 535.5 165.5 c 128,-1,19
 549 200 549 200 549 244 c 0,11,12
302 -205 m 1,20,-1
 302 -9 l 1,21,22
 252 -8 252 -8 206 9.5 c 128,-1,23
 160 27 160 27 124.5 59.5 c 128,-1,24
 89 92 89 92 67.5 138 c 128,-1,25
 46 184 46 184 46 244 c 0,26,27
 46 303 46 303 67.5 349 c 128,-1,28
 89 395 89 395 124.5 427 c 128,-1,29
 160 459 160 459 206 476 c 128,-1,30
 252 493 252 493 302 495 c 1,31,-1
 302 712 l 1,32,-1
 378 712 l 1,33,-1
 378 495 l 1,34,35
 429 493 429 493 475 476 c 128,-1,36
 521 459 521 459 556.5 427 c 128,-1,37
 592 395 592 395 613 349 c 128,-1,38
 634 303 634 303 634 244 c 0,39,40
 634 184 634 184 612.5 138 c 128,-1,41
 591 92 591 92 555.5 59.5 c 128,-1,42
 520 27 520 27 473.5 9.5 c 128,-1,43
 427 -8 427 -8 378 -9 c 1,44,-1
 378 -205 l 1,45,-1
 302 -205 l 1,20,-1
EndSplineSet
Validated: 1
EndChar

StartChar: uni0279
Encoding: 633 633 487
Width: 347
GlyphClass: 2
Flags: W
AnchorPoint: "Anchor-4" 38 -22 basechar 0
AnchorPoint: "Anchor-0" 195 509 basechar 0
LayerCount: 2
Fore
SplineSet
49 -12 m 0,0,1
 20 -12 20 -12 -3 -2 c 1,2,-1
 13 70 l 1,3,4
 26 66 26 66 36 64 c 128,-1,5
 46 62 46 62 60 62 c 0,6,7
 91 62 91 62 124.5 87 c 128,-1,8
 158 112 158 112 183 174 c 1,9,-1
 183 486 l 1,10,-1
 265 486 l 1,11,-1
 265 0 l 1,12,-1
 197 0 l 1,13,-1
 190 89 l 1,14,-1
 188 89 l 1,15,16
 162 42 162 42 126.5 15 c 128,-1,17
 91 -12 91 -12 49 -12 c 0,0,1
EndSplineSet
Validated: 1
EndChar

StartChar: uni027A
Encoding: 634 634 488
Width: 347
GlyphClass: 2
Flags: W
AnchorPoint: "Anchor-4" 38 -22 basechar 0
AnchorPoint: "Anchor-0" 132 509 basechar 0
LayerCount: 2
Fore
SplineSet
49 -12 m 0,0,1
 20 -12 20 -12 -3 -2 c 1,2,-1
 13 70 l 1,3,4
 26 66 26 66 36 64 c 128,-1,5
 46 62 46 62 60 62 c 0,6,7
 91 62 91 62 124.5 87 c 128,-1,8
 158 112 158 112 183 174 c 1,9,-1
 183 712 l 1,10,-1
 265 712 l 1,11,-1
 265 0 l 1,12,-1
 197 0 l 1,13,-1
 190 89 l 1,14,-1
 188 89 l 1,15,16
 162 42 162 42 126.5 15 c 128,-1,17
 91 -12 91 -12 49 -12 c 0,0,1
EndSplineSet
Validated: 1
EndChar

StartChar: uni027B
Encoding: 635 635 489
Width: 347
GlyphClass: 2
Flags: W
AnchorPoint: "Anchor-4" 38 -22 basechar 0
AnchorPoint: "Anchor-0" 195 509 basechar 0
LayerCount: 2
Fore
SplineSet
306 -183 m 0,0,1
 243 -183 243 -183 216.5 -145 c 128,-1,2
 190 -107 190 -107 190 -38 c 2,3,-1
 190 89 l 1,4,-1
 188 89 l 1,5,6
 162 42 162 42 126.5 15 c 128,-1,7
 91 -12 91 -12 49 -12 c 0,8,9
 20 -12 20 -12 -3 -2 c 1,10,-1
 13 70 l 1,11,12
 26 66 26 66 36 64 c 128,-1,13
 46 62 46 62 60 62 c 0,14,15
 91 62 91 62 124.5 87 c 128,-1,16
 158 112 158 112 183 174 c 1,17,-1
 183 486 l 1,18,-1
 265 486 l 1,19,-1
 265 -28 l 2,20,21
 265 -70 265 -70 275.5 -93 c 128,-1,22
 286 -116 286 -116 315 -116 c 0,23,24
 326 -116 326 -116 334.5 -113 c 128,-1,25
 343 -110 343 -110 351 -107 c 1,26,-1
 368 -170 l 1,27,28
 357 -175 357 -175 341 -179 c 128,-1,29
 325 -183 325 -183 306 -183 c 0,0,1
EndSplineSet
Validated: 1
EndChar

StartChar: uni027D
Encoding: 637 637 490
Width: 347
GlyphClass: 2
Flags: W
AnchorPoint: "Anchor-4" 123 -22 basechar 0
AnchorPoint: "Anchor-0" 216 509 basechar 0
LayerCount: 2
Fore
SplineSet
205 -183 m 0,0,1
 137 -183 137 -183 109.5 -141.5 c 128,-1,2
 82 -100 82 -100 82 -28 c 2,3,-1
 82 486 l 1,4,-1
 150 486 l 1,5,-1
 157 398 l 1,6,-1
 160 398 l 1,7,8
 185 444 185 444 220.5 471 c 128,-1,9
 256 498 256 498 298 498 c 0,10,11
 327 498 327 498 350 488 c 1,12,-1
 334 416 l 1,13,14
 322 420 322 420 312 422 c 128,-1,15
 302 424 302 424 287 424 c 0,16,17
 256 424 256 424 222.5 399 c 128,-1,18
 189 374 189 374 164 312 c 1,19,-1
 164 -28 l 2,20,21
 164 -70 164 -70 174.5 -93 c 128,-1,22
 185 -116 185 -116 214 -116 c 0,23,24
 225 -116 225 -116 233.5 -113 c 128,-1,25
 242 -110 242 -110 250 -107 c 1,26,-1
 267 -170 l 1,27,28
 256 -175 256 -175 240.5 -179 c 128,-1,29
 225 -183 225 -183 205 -183 c 0,0,1
EndSplineSet
Validated: 1
EndChar

StartChar: uni027E
Encoding: 638 638 491
Width: 334
Flags: W
LayerCount: 2
Fore
SplineSet
82 0 m 1,0,-1
 82 314 l 2,1,2
 82 400 82 400 126.5 449 c 128,-1,3
 171 498 171 498 251 498 c 0,4,5
 303 498 303 498 336 484 c 1,6,-1
 321 415 l 1,7,8
 304 422 304 422 291.5 424 c 128,-1,9
 279 426 279 426 259 426 c 0,10,11
 241 426 241 426 223.5 418 c 128,-1,12
 206 410 206 410 193 394 c 128,-1,13
 180 378 180 378 172 353.5 c 128,-1,14
 164 329 164 329 164 297 c 2,15,-1
 164 0 l 1,16,-1
 82 0 l 1,0,-1
EndSplineSet
Validated: 1
EndChar

StartChar: uni0280
Encoding: 640 640 492
Width: 495
GlyphClass: 2
Flags: W
AnchorPoint: "Anchor-4" 278 -22 basechar 0
AnchorPoint: "Anchor-1" 257 509 basechar 0
LayerCount: 2
Fore
SplineSet
82 0 m 1,0,-1
 82 486 l 1,1,-1
 254 486 l 2,2,3
 293 486 293 486 327 478.5 c 128,-1,4
 361 471 361 471 385.5 454 c 128,-1,5
 410 437 410 437 424 409.5 c 128,-1,6
 438 382 438 382 438 342 c 0,7,8
 438 284 438 284 407.5 250 c 128,-1,9
 377 216 377 216 332 202 c 1,10,-1
 463 0 l 1,11,-1
 372 0 l 1,12,-1
 255 192 l 1,13,-1
 164 192 l 1,14,-1
 164 0 l 1,15,-1
 82 0 l 1,0,-1
164 252 m 1,16,-1
 240 252 l 2,17,18
 295 252 295 252 325.5 274.5 c 128,-1,19
 356 297 356 297 356 340 c 256,20,21
 356 383 356 383 325.5 402.5 c 128,-1,22
 295 422 295 422 240 422 c 2,23,-1
 164 422 l 1,24,-1
 164 252 l 1,16,-1
EndSplineSet
Validated: 1
EndChar

StartChar: uni0281
Encoding: 641 641 493
Width: 495
Flags: W
LayerCount: 2
Fore
SplineSet
241 0 m 2,0,1
 202 0 202 0 168 7.5 c 128,-1,2
 134 15 134 15 109.5 32.5 c 128,-1,3
 85 50 85 50 71 77.5 c 128,-1,4
 57 105 57 105 57 145 c 0,5,6
 57 204 57 204 87.5 238 c 128,-1,7
 118 272 118 272 163 286 c 1,8,-1
 32 486 l 1,9,-1
 124 486 l 1,10,-1
 240 297 l 1,11,-1
 331 297 l 1,12,-1
 331 486 l 1,13,-1
 413 486 l 1,14,-1
 413 0 l 1,15,-1
 241 0 l 2,0,1
255 64 m 2,16,-1
 331 64 l 1,17,-1
 331 237 l 1,18,-1
 255 237 l 2,19,20
 201 237 201 237 170.5 213.5 c 128,-1,21
 140 190 140 190 140 147 c 256,22,23
 140 104 140 104 170.5 84 c 128,-1,24
 201 64 201 64 255 64 c 2,16,-1
EndSplineSet
Validated: 1
EndChar

StartChar: uni0282
Encoding: 642 642 494
Width: 419
GlyphClass: 2
Flags: W
AnchorPoint: "Anchor-0" 219 509 basechar 0
LayerCount: 2
Fore
SplineSet
209 -12 m 0,0,1
 153 -12 153 -12 102 8 c 1,2,-1
 102 -20 l 2,3,4
 102 -65 102 -65 114 -91 c 128,-1,5
 126 -117 126 -117 163 -117 c 0,6,7
 176 -117 176 -117 187.5 -114.5 c 128,-1,8
 199 -112 199 -112 209 -109 c 1,9,-1
 225 -170 l 1,10,11
 212 -175 212 -175 194.5 -179 c 128,-1,12
 177 -183 177 -183 154 -183 c 0,13,14
 86 -183 86 -183 57 -139 c 128,-1,15
 28 -95 28 -95 28 -21 c 2,16,-1
 28 48 l 1,17,-1
 69 102 l 1,18,19
 101 79 101 79 134.5 65.5 c 128,-1,20
 168 52 168 52 212 52 c 0,21,22
 260 52 260 52 284 74 c 128,-1,23
 308 96 308 96 308 128 c 0,24,25
 308 147 308 147 298 161 c 128,-1,26
 288 175 288 175 272.5 185.5 c 128,-1,27
 257 196 257 196 237 204 c 128,-1,28
 217 212 217 212 197 220 c 0,29,30
 171 229 171 229 145 240.5 c 128,-1,31
 119 252 119 252 98.5 268.5 c 128,-1,32
 78 285 78 285 65 307 c 128,-1,33
 52 329 52 329 52 360 c 0,34,35
 52 389 52 389 63.5 414.5 c 128,-1,36
 75 440 75 440 96.5 458.5 c 128,-1,37
 118 477 118 477 149 487.5 c 128,-1,38
 180 498 180 498 219 498 c 0,39,40
 265 498 265 498 303.5 482 c 128,-1,41
 342 466 342 466 370 443 c 1,42,-1
 331 391 l 1,43,44
 306 410 306 410 279 422 c 128,-1,45
 252 434 252 434 220 434 c 0,46,47
 174 434 174 434 152.5 413 c 128,-1,48
 131 392 131 392 131 364 c 0,49,50
 131 347 131 347 140 334.5 c 128,-1,51
 149 322 149 322 164 312.5 c 128,-1,52
 179 303 179 303 198.5 295.5 c 128,-1,53
 218 288 218 288 239 280 c 0,54,55
 265 270 265 270 291.5 259 c 128,-1,56
 318 248 318 248 339 231.5 c 128,-1,57
 360 215 360 215 373.5 191 c 128,-1,58
 387 167 387 167 387 133 c 0,59,60
 387 103 387 103 375.5 77 c 128,-1,61
 364 51 364 51 341.5 31 c 128,-1,62
 319 11 319 11 285.5 -0.5 c 128,-1,63
 252 -12 252 -12 209 -12 c 0,0,1
EndSplineSet
Validated: 1
EndChar

StartChar: uni0283
Encoding: 643 643 495
Width: 247
Flags: W
LayerCount: 2
Fore
SplineSet
32 -217 m 0,0,1
 9 -217 9 -217 -9 -213 c 128,-1,2
 -27 -209 -27 -209 -40 -204 c 1,3,-1
 -23 -142 l 1,4,5
 -14 -145 -14 -145 -2 -147.5 c 128,-1,6
 10 -150 10 -150 23 -150 c 0,7,8
 59 -150 59 -150 71 -125 c 128,-1,9
 83 -100 83 -100 83 -55 c 2,10,-1
 83 564 l 2,11,12
 83 639 83 639 115.5 682.5 c 128,-1,13
 148 726 148 726 226 726 c 0,14,15
 246 726 246 726 261 722 c 128,-1,16
 276 718 276 718 287 713 c 1,17,-1
 271 650 l 1,18,19
 263 653 263 653 254.5 656 c 128,-1,20
 246 659 246 659 235 659 c 0,21,22
 193 659 193 659 179 633.5 c 128,-1,23
 165 608 165 608 165 563 c 2,24,-1
 165 -55 l 2,25,26
 165 -129 165 -129 135 -173 c 128,-1,27
 105 -217 105 -217 32 -217 c 0,0,1
EndSplineSet
Validated: 1
EndChar

StartChar: uni0284
Encoding: 644 644 496
Width: 270
Flags: W
LayerCount: 2
Fore
SplineSet
43 -217 m 0,0,1
 20 -217 20 -217 2 -213 c 128,-1,2
 -16 -209 -16 -209 -29 -204 c 1,3,-1
 -12 -142 l 1,4,5
 -3 -145 -3 -145 9 -147.5 c 128,-1,6
 21 -150 21 -150 34 -150 c 0,7,8
 70 -150 70 -150 82 -125 c 128,-1,9
 94 -100 94 -100 94 -55 c 2,10,-1
 94 231 l 1,11,-1
 8 231 l 1,12,-1
 8 274 l 1,13,-1
 94 279 l 1,14,-1
 94 564 l 2,15,16
 94 639 94 639 126.5 682.5 c 128,-1,17
 159 726 159 726 237 726 c 0,18,19
 257 726 257 726 272 722 c 128,-1,20
 287 718 287 718 298 713 c 1,21,-1
 282 650 l 1,22,23
 274 653 274 653 265.5 656 c 128,-1,24
 257 659 257 659 246 659 c 0,25,26
 204 659 204 659 190 633.5 c 128,-1,27
 176 608 176 608 176 563 c 2,28,-1
 176 279 l 1,29,-1
 259 279 l 1,30,-1
 259 231 l 1,31,-1
 176 231 l 1,32,-1
 176 -55 l 2,33,34
 176 -129 176 -129 146 -173 c 128,-1,35
 116 -217 116 -217 43 -217 c 0,0,1
EndSplineSet
Validated: 1
EndChar

StartChar: uni0288
Encoding: 648 648 497
Width: 338
GlyphClass: 2
Flags: W
AnchorPoint: "Anchor-0" 143 643 basechar 0
LayerCount: 2
Fore
SplineSet
235 -184 m 0,0,1
 196 -184 196 -184 169.5 -172.5 c 128,-1,2
 143 -161 143 -161 126.5 -139.5 c 128,-1,3
 110 -118 110 -118 103 -88 c 128,-1,4
 96 -58 96 -58 96 -22 c 2,5,-1
 96 419 l 1,6,-1
 24 419 l 1,7,-1
 24 481 l 1,8,-1
 100 486 l 1,9,-1
 110 622 l 1,10,-1
 179 622 l 1,11,-1
 179 486 l 1,12,-1
 310 486 l 1,13,-1
 310 419 l 1,14,-1
 179 419 l 1,15,-1
 179 -23 l 2,16,17
 179 -68 179 -68 195.5 -92.5 c 128,-1,18
 212 -117 212 -117 254 -117 c 0,19,20
 267 -117 267 -117 282 -113 c 128,-1,21
 297 -109 297 -109 309 -104 c 1,22,-1
 325 -166 l 1,23,24
 305 -173 305 -173 281.5 -178.5 c 128,-1,25
 258 -184 258 -184 235 -184 c 0,0,1
EndSplineSet
Validated: 1
EndChar

StartChar: uni0289
Encoding: 649 649 498
Width: 575
GlyphClass: 2
Flags: W
AnchorPoint: "Anchor-0" 291 509 basechar 0
LayerCount: 2
Fore
SplineSet
8 262 m 1,0,-1
 8 305 l 1,1,-1
 94 310 l 1,2,-1
 94 486 l 1,3,-1
 177 486 l 1,4,-1
 177 310 l 1,5,-1
 399 310 l 1,6,-1
 399 486 l 1,7,-1
 481 486 l 1,8,-1
 481 310 l 1,9,-1
 563 310 l 1,10,-1
 563 262 l 1,11,-1
 481 262 l 1,12,-1
 481 0 l 1,13,-1
 413 0 l 1,14,-1
 406 76 l 1,15,-1
 403 76 l 1,16,17
 369 36 369 36 331.5 12 c 128,-1,18
 294 -12 294 -12 243 -12 c 0,19,20
 165 -12 165 -12 129.5 36 c 128,-1,21
 94 84 94 84 94 178 c 2,22,-1
 94 262 l 1,23,-1
 8 262 l 1,0,-1
268 59 m 0,24,25
 306 59 306 59 335 78.5 c 128,-1,26
 364 98 364 98 399 141 c 1,27,-1
 399 262 l 1,28,-1
 177 262 l 1,29,-1
 177 189 l 2,30,31
 177 120 177 120 198.5 89.5 c 128,-1,32
 220 59 220 59 268 59 c 0,24,25
EndSplineSet
Validated: 1
EndChar

StartChar: uni028A
Encoding: 650 650 499
Width: 541
GlyphClass: 2
Flags: W
AnchorPoint: "Anchor-4" 271 -22 basechar 0
AnchorPoint: "Anchor-0" 271 509 basechar 0
LayerCount: 2
Fore
SplineSet
271 -12 m 256,0,1
 218 -12 218 -12 176.5 6.5 c 128,-1,2
 135 25 135 25 106.5 56 c 128,-1,3
 78 87 78 87 63.5 127 c 128,-1,4
 49 167 49 167 49 209 c 0,5,6
 49 246 49 246 56.5 277.5 c 128,-1,7
 64 309 64 309 76 335 c 128,-1,8
 88 361 88 361 103.5 381.5 c 128,-1,9
 119 402 119 402 135 417 c 1,10,-1
 135 419 l 1,11,-1
 37 419 l 1,12,-1
 37 486 l 1,13,-1
 223 486 l 1,14,-1
 223 433 l 1,15,16
 182 399 182 399 157 349 c 128,-1,17
 132 299 132 299 132 227 c 0,18,19
 132 192 132 192 141 161 c 128,-1,20
 150 130 150 130 167 107 c 128,-1,21
 184 84 184 84 210 70 c 128,-1,22
 236 56 236 56 271 56 c 0,23,24
 305 56 305 56 331 70 c 128,-1,25
 357 84 357 84 374 107 c 128,-1,26
 391 130 391 130 400 161 c 128,-1,27
 409 192 409 192 409 227 c 0,28,29
 409 299 409 299 384 349 c 128,-1,30
 359 399 359 399 319 433 c 1,31,-1
 319 486 l 1,32,-1
 504 486 l 1,33,-1
 504 419 l 1,34,-1
 406 419 l 1,35,-1
 406 417 l 1,36,37
 422 402 422 402 437.5 381.5 c 128,-1,38
 453 361 453 361 465.5 335 c 128,-1,39
 478 309 478 309 485.5 277.5 c 128,-1,40
 493 246 493 246 493 209 c 0,41,42
 493 167 493 167 478 127 c 128,-1,43
 463 87 463 87 434.5 56 c 128,-1,44
 406 25 406 25 365 6.5 c 128,-1,45
 324 -12 324 -12 271 -12 c 256,0,1
EndSplineSet
Validated: 1
EndChar

StartChar: uni028B
Encoding: 651 651 500
Width: 530
GlyphClass: 2
Flags: W
AnchorPoint: "Anchor-4" 280 -22 basechar 0
AnchorPoint: "Anchor-0" 269 509 basechar 0
LayerCount: 2
Fore
SplineSet
262 -12 m 0,0,1
 221 -12 221 -12 187 0.5 c 128,-1,2
 153 13 153 13 128 39.5 c 128,-1,3
 103 66 103 66 89 106 c 128,-1,4
 75 146 75 146 75 202 c 2,5,-1
 75 486 l 1,6,-1
 158 486 l 1,7,-1
 158 209 l 2,8,9
 158 168 158 168 166.5 139 c 128,-1,10
 175 110 175 110 189 91.5 c 128,-1,11
 203 73 203 73 222.5 64.5 c 128,-1,12
 242 56 242 56 265 56 c 0,13,14
 296 56 296 56 320.5 72.5 c 128,-1,15
 345 89 345 89 361.5 118.5 c 128,-1,16
 378 148 378 148 386.5 187.5 c 128,-1,17
 395 227 395 227 395 274 c 0,18,19
 395 352 395 352 376 392 c 128,-1,20
 357 432 357 432 316 432 c 0,21,22
 303 432 303 432 288 426 c 1,23,-1
 275 490 l 1,24,25
 298 498 298 498 333 498 c 0,26,27
 401 498 401 498 440.5 446.5 c 128,-1,28
 480 395 480 395 480 286 c 0,29,30
 480 222 480 222 466 167.5 c 128,-1,31
 452 113 452 113 424.5 73 c 128,-1,32
 397 33 397 33 356.5 10.5 c 128,-1,33
 316 -12 316 -12 262 -12 c 0,0,1
EndSplineSet
Validated: 1
EndChar

StartChar: uni028C
Encoding: 652 652 501
Width: 467
GlyphClass: 2
Flags: W
AnchorPoint: "Anchor-4" 235 -22 basechar 0
AnchorPoint: "Anchor-0" 235 509 basechar 0
LayerCount: 2
Fore
SplineSet
12 0 m 1,0,-1
 184 486 l 1,1,-1
 280 486 l 1,2,-1
 455 0 l 1,3,-1
 370 0 l 1,4,-1
 278 276 l 2,5,6
 267 312 267 312 255.5 348.5 c 128,-1,7
 244 385 244 385 233 420 c 1,8,-1
 229 420 l 1,9,10
 218 385 218 385 206.5 348.5 c 128,-1,11
 195 312 195 312 184 276 c 2,12,-1
 93 0 l 1,13,-1
 12 0 l 1,0,-1
EndSplineSet
Validated: 1
EndChar

StartChar: uni028D
Encoding: 653 653 502
Width: 718
GlyphClass: 2
Flags: W
AnchorPoint: "Anchor-4" 360 -22 basechar 0
AnchorPoint: "Anchor-0" 360 509 basechar 0
LayerCount: 2
Fore
SplineSet
24 0 m 1,0,-1
 154 486 l 1,1,-1
 255 486 l 1,2,-1
 325 225 l 2,3,4
 333 190 333 190 341 156 c 128,-1,5
 349 122 349 122 358 85 c 1,6,-1
 362 85 l 1,7,8
 370 122 370 122 377.5 156.5 c 128,-1,9
 385 191 385 191 395 226 c 2,10,-1
 463 486 l 1,11,-1
 559 486 l 1,12,-1
 694 0 l 1,13,-1
 610 0 l 1,14,-1
 538 281 l 2,15,16
 530 316 530 316 523.5 349 c 128,-1,17
 517 382 517 382 509 416 c 1,18,-1
 505 416 l 1,19,20
 490 348 490 348 472 281 c 2,21,-1
 397 0 l 1,22,-1
 317 0 l 1,23,-1
 241 281 l 2,24,25
 232 316 232 316 224 349 c 128,-1,26
 216 382 216 382 207 416 c 1,27,-1
 203 416 l 1,28,29
 195 382 195 382 188 349 c 128,-1,30
 181 316 181 316 173 281 c 2,31,-1
 102 0 l 1,32,-1
 24 0 l 1,0,-1
EndSplineSet
Validated: 1
EndChar

StartChar: uni028E
Encoding: 654 654 503
Width: 467
GlyphClass: 2
Flags: W
AnchorPoint: "Anchor-4" 239 -22 basechar 0
AnchorPoint: "Anchor-0" 243 509 basechar 0
LayerCount: 2
Fore
SplineSet
12 0 m 1,0,-1
 206 555 l 2,1,2
 219 591 219 591 235 622 c 128,-1,3
 251 653 251 653 273 675.5 c 128,-1,4
 295 698 295 698 323 711 c 128,-1,5
 351 724 351 724 388 724 c 0,6,7
 405 724 405 724 419 721.5 c 128,-1,8
 433 719 433 719 445 714 c 1,9,-1
 429 649 l 1,10,11
 421 651 421 651 411 653.5 c 128,-1,12
 401 656 401 656 392 656 c 0,13,14
 350 656 350 656 323.5 626.5 c 128,-1,15
 297 597 297 597 282 552 c 2,16,-1
 260 487 l 1,17,-1
 455 0 l 1,18,-1
 371 0 l 1,19,-1
 271 269 l 2,20,21
 260 301 260 301 248 336.5 c 128,-1,22
 236 372 236 372 224 406 c 1,23,-1
 220 406 l 1,24,25
 209 373 209 373 199 337 c 128,-1,26
 189 301 189 301 179 269 c 2,27,-1
 93 0 l 1,28,-1
 12 0 l 1,0,-1
EndSplineSet
Validated: 1
EndChar

StartChar: uni028F
Encoding: 655 655 504
Width: 415
GlyphClass: 2
Flags: W
AnchorPoint: "Anchor-4" 207 -22 basechar 0
AnchorPoint: "Anchor-0" 207 509 basechar 0
LayerCount: 2
Fore
SplineSet
167 0 m 1,0,-1
 167 164 l 1,1,-1
 -1 486 l 1,2,-1
 87 486 l 1,3,-1
 153 348 l 2,4,5
 166 319 166 319 179.5 292 c 128,-1,6
 193 265 193 265 207 236 c 1,7,-1
 211 236 l 1,8,9
 225 265 225 265 237.5 292 c 128,-1,10
 250 319 250 319 263 348 c 2,11,-1
 329 486 l 1,12,-1
 416 486 l 1,13,-1
 249 164 l 1,14,-1
 249 0 l 1,15,-1
 167 0 l 1,0,-1
EndSplineSet
Validated: 1
EndChar

StartChar: uni0290
Encoding: 656 656 505
Width: 425
GlyphClass: 2
Flags: W
AnchorPoint: "Anchor-0" 229 509 basechar 0
LayerCount: 2
Fore
SplineSet
431 -183 m 0,0,1
 364 -183 364 -183 335.5 -142.5 c 128,-1,2
 307 -102 307 -102 307 -36 c 2,3,-1
 307 0 l 1,4,-1
 31 0 l 1,5,-1
 31 44 l 1,6,-1
 287 419 l 1,7,-1
 59 419 l 1,8,-1
 59 486 l 1,9,-1
 391 486 l 1,10,-1
 391 442 l 1,11,-1
 135 67 l 1,12,-1
 389 67 l 1,13,-1
 389 -28 l 2,14,15
 389 -70 389 -70 400 -93 c 128,-1,16
 411 -116 411 -116 440 -116 c 0,17,18
 450 -116 450 -116 459 -113 c 128,-1,19
 468 -110 468 -110 476 -107 c 1,20,-1
 492 -170 l 1,21,22
 481 -175 481 -175 465.5 -179 c 128,-1,23
 450 -183 450 -183 431 -183 c 0,0,1
EndSplineSet
Validated: 1
EndChar

StartChar: uni0291
Encoding: 657 657 506
Width: 449
GlyphClass: 2
Flags: W
AnchorPoint: "Anchor-0" 229 509 basechar 0
LayerCount: 2
Fore
SplineSet
238 -81 m 1,0,-1
 190 -71 l 1,1,2
 198 -32 198 -32 208 0 c 1,3,-1
 31 0 l 1,4,-1
 31 44 l 1,5,-1
 287 419 l 1,6,-1
 59 419 l 1,7,-1
 59 486 l 1,8,-1
 386 486 l 1,9,-1
 386 442 l 1,10,-1
 131 67 l 1,11,12
 156 66 156 66 180 65.5 c 128,-1,13
 204 65 204 65 229 64 c 1,14,15
 257 135 257 135 292.5 173.5 c 128,-1,16
 328 212 328 212 372 212 c 0,17,18
 415 212 415 212 439 188.5 c 128,-1,19
 463 165 463 165 463 120 c 0,20,21
 463 95 463 95 453.5 73.5 c 128,-1,22
 444 52 444 52 425 35.5 c 128,-1,23
 406 19 406 19 377 9.5 c 128,-1,24
 348 0 348 0 308 0 c 2,25,-1
 257 0 l 1,26,27
 252 -18 252 -18 247.5 -38 c 128,-1,28
 243 -58 243 -58 238 -81 c 1,0,-1
329 63 m 2,29,30
 369 63 369 63 390 81 c 128,-1,31
 411 99 411 99 411 122 c 0,32,33
 411 139 411 139 401.5 150.5 c 128,-1,34
 392 162 392 162 370 162 c 0,35,36
 347 162 347 162 323.5 138 c 128,-1,37
 300 114 300 114 279 63 c 1,38,-1
 329 63 l 2,29,30
EndSplineSet
Validated: 1
EndChar

StartChar: uni0292
Encoding: 658 658 507
Width: 425
GlyphClass: 2
Flags: W
AnchorPoint: "Anchor-0" 187 519 basechar 0
LayerCount: 2
Fore
SplineSet
200 -217 m 0,0,1
 164 -217 164 -217 134.5 -210.5 c 128,-1,2
 105 -204 105 -204 81 -193 c 128,-1,3
 57 -182 57 -182 38 -168 c 128,-1,4
 19 -154 19 -154 3 -139 c 1,5,-1
 44 -87 l 1,6,7
 70 -111 70 -111 105 -130 c 128,-1,8
 140 -149 140 -149 193 -149 c 0,9,10
 220 -149 220 -149 243.5 -138.5 c 128,-1,11
 267 -128 267 -128 284.5 -108.5 c 128,-1,12
 302 -89 302 -89 312.5 -61.5 c 128,-1,13
 323 -34 323 -34 323 0 c 0,14,15
 323 62 323 62 288.5 97 c 128,-1,16
 254 132 254 132 189 132 c 0,17,18
 168 132 168 132 155.5 128 c 128,-1,19
 143 124 143 124 126 116 c 1,20,-1
 93 161 l 1,21,-1
 285 419 l 1,22,-1
 44 419 l 1,23,-1
 44 486 l 1,24,-1
 385 486 l 1,25,-1
 385 442 l 1,26,-1
 197 189 l 1,27,28
 245 194 245 194 284 182 c 128,-1,29
 323 170 323 170 350 145 c 128,-1,30
 377 120 377 120 391.5 83 c 128,-1,31
 406 46 406 46 406 2 c 0,32,33
 406 -51 406 -51 389 -91.5 c 128,-1,34
 372 -132 372 -132 343.5 -160 c 128,-1,35
 315 -188 315 -188 277.5 -202.5 c 128,-1,36
 240 -217 240 -217 200 -217 c 0,0,1
EndSplineSet
Validated: 33
EndChar

StartChar: uni0294
Encoding: 660 660 508
Width: 417
Flags: W
LayerCount: 2
Fore
SplineSet
146 0 m 1,0,-1
 146 324 l 1,1,2
 233 374 233 374 273.5 420.5 c 128,-1,3
 314 467 314 467 314 530 c 0,4,5
 314 588 314 588 281 622 c 128,-1,6
 248 656 248 656 188 656 c 0,7,8
 137 656 137 656 102 634 c 128,-1,9
 67 612 67 612 42 583 c 1,10,-1
 -2 637 l 1,11,12
 13 653 13 653 32.5 669 c 128,-1,13
 52 685 52 685 76 697 c 128,-1,14
 100 709 100 709 129.5 716.5 c 128,-1,15
 159 724 159 724 194 724 c 0,16,17
 236 724 236 724 273 712 c 128,-1,18
 310 700 310 700 337.5 676 c 128,-1,19
 365 652 365 652 381 616 c 128,-1,20
 397 580 397 580 397 532 c 0,21,22
 397 489 397 489 384.5 455 c 128,-1,23
 372 421 372 421 349.5 391.5 c 128,-1,24
 327 362 327 362 296 337 c 128,-1,25
 265 312 265 312 228 287 c 1,26,-1
 228 0 l 1,27,-1
 146 0 l 1,0,-1
EndSplineSet
Validated: 1
EndChar

StartChar: uni0295
Encoding: 661 661 509
Width: 443
Flags: W
LayerCount: 2
Fore
SplineSet
200 0 m 1,0,-1
 200 287 l 1,1,2
 163 312 163 312 132 337 c 128,-1,3
 101 362 101 362 78.5 391.5 c 128,-1,4
 56 421 56 421 43.5 455 c 128,-1,5
 31 489 31 489 31 532 c 0,6,7
 31 580 31 580 47.5 616 c 128,-1,8
 64 652 64 652 93 676 c 128,-1,9
 122 700 122 700 161 712 c 128,-1,10
 200 724 200 724 244 724 c 0,11,12
 277 724 277 724 305 716.5 c 128,-1,13
 333 709 333 709 356 697 c 128,-1,14
 379 685 379 685 397 669 c 128,-1,15
 415 653 415 653 430 637 c 1,16,-1
 386 583 l 1,17,18
 363 611 363 611 330 633.5 c 128,-1,19
 297 656 297 656 250 656 c 0,20,21
 185 656 185 656 149.5 622 c 128,-1,22
 114 588 114 588 114 530 c 0,23,24
 114 467 114 467 154.5 420.5 c 128,-1,25
 195 374 195 374 282 324 c 1,26,-1
 282 0 l 1,27,-1
 200 0 l 1,0,-1
EndSplineSet
Validated: 1
EndChar

StartChar: uni02A1
Encoding: 673 673 510
Width: 441
Flags: W
LayerCount: 2
Fore
SplineSet
158 0 m 1,0,-1
 158 257 l 1,1,-1
 7 257 l 1,2,-1
 7 319 l 1,3,-1
 83 324 l 1,4,-1
 172 324 l 1,5,6
 253 375 253 375 290.5 424.5 c 128,-1,7
 328 474 328 474 328 530 c 0,8,9
 328 588 328 588 295.5 622 c 128,-1,10
 263 656 263 656 203 656 c 0,11,12
 152 656 152 656 117 634 c 128,-1,13
 82 612 82 612 57 583 c 1,14,-1
 13 637 l 1,15,16
 28 653 28 653 47.5 669 c 128,-1,17
 67 685 67 685 91 697 c 128,-1,18
 115 709 115 709 144 716.5 c 128,-1,19
 173 724 173 724 209 724 c 0,20,21
 251 724 251 724 288 712 c 128,-1,22
 325 700 325 700 352.5 676 c 128,-1,23
 380 652 380 652 396 616 c 128,-1,24
 412 580 412 580 412 532 c 0,25,26
 412 468 412 468 374 417 c 128,-1,27
 336 366 336 366 278 324 c 1,28,-1
 422 324 l 1,29,-1
 422 257 l 1,30,-1
 240 257 l 1,31,-1
 240 0 l 1,32,-1
 158 0 l 1,0,-1
EndSplineSet
Validated: 1
EndChar

StartChar: uni02A2
Encoding: 674 674 511
Width: 441
Flags: W
LayerCount: 2
Fore
SplineSet
200 0 m 1,0,-1
 200 257 l 1,1,-1
 19 257 l 1,2,-1
 19 324 l 1,3,-1
 163 324 l 1,4,5
 105 366 105 366 67 417 c 128,-1,6
 29 468 29 468 29 532 c 0,7,8
 29 580 29 580 45.5 616 c 128,-1,9
 62 652 62 652 91 676 c 128,-1,10
 120 700 120 700 158.5 712 c 128,-1,11
 197 724 197 724 242 724 c 0,12,13
 275 724 275 724 303 716.5 c 128,-1,14
 331 709 331 709 353.5 697 c 128,-1,15
 376 685 376 685 394.5 669 c 128,-1,16
 413 653 413 653 428 637 c 1,17,-1
 384 583 l 1,18,19
 361 611 361 611 328 633.5 c 128,-1,20
 295 656 295 656 248 656 c 0,21,22
 183 656 183 656 147.5 622 c 128,-1,23
 112 588 112 588 112 530 c 0,24,25
 112 474 112 474 150 424.5 c 128,-1,26
 188 375 188 375 269 324 c 1,27,-1
 358 324 l 1,28,-1
 434 319 l 1,29,-1
 434 257 l 1,30,-1
 282 257 l 1,31,-1
 282 0 l 1,32,-1
 200 0 l 1,0,-1
EndSplineSet
Validated: 1
EndChar

StartChar: uni01C2
Encoding: 450 450 512
Width: 288
Flags: W
LayerCount: 2
Fore
SplineSet
6 331 m 1,0,-1
 6 374 l 1,1,-1
 83 378 l 1,2,-1
 120 378 l 1,3,-1
 120 750 l 1,4,-1
 178 750 l 1,5,-1
 178 378 l 1,6,-1
 281 378 l 1,7,-1
 281 331 l 1,8,-1
 178 331 l 1,9,-1
 178 208 l 1,10,-1
 281 208 l 1,11,-1
 281 161 l 1,12,-1
 178 161 l 1,13,-1
 178 -250 l 1,14,-1
 120 -250 l 1,15,-1
 120 161 l 1,16,-1
 6 161 l 1,17,-1
 6 203 l 1,18,-1
 83 208 l 1,19,-1
 120 208 l 1,20,-1
 120 331 l 1,21,-1
 6 331 l 1,0,-1
EndSplineSet
Validated: 1
EndChar

StartChar: uni0298
Encoding: 664 664 513
Width: 525
Flags: W
LayerCount: 2
Fore
SplineSet
263 -12 m 0,0,1
 216 -12 216 -12 178.5 10 c 128,-1,2
 141 32 141 32 114.5 77.5 c 128,-1,3
 88 123 88 123 73.5 193 c 128,-1,4
 59 263 59 263 59 359 c 0,5,6
 59 539 59 539 114 631.5 c 128,-1,7
 169 724 169 724 263 724 c 0,8,9
 356 724 356 724 411 630.5 c 128,-1,10
 466 537 466 537 466 359 c 0,11,12
 466 263 466 263 451.5 193 c 128,-1,13
 437 123 437 123 411 77.5 c 128,-1,14
 385 32 385 32 347 10 c 128,-1,15
 309 -12 309 -12 263 -12 c 0,0,1
263 56 m 0,16,17
 289 56 289 56 312 72 c 128,-1,18
 335 88 335 88 352 124 c 128,-1,19
 369 160 369 160 378.5 217.5 c 128,-1,20
 388 275 388 275 388 359 c 0,21,22
 388 435 388 435 378.5 491 c 128,-1,23
 369 547 369 547 352 584 c 128,-1,24
 335 621 335 621 312 638.5 c 128,-1,25
 289 656 289 656 263 656 c 0,26,27
 236 656 236 656 213 638.5 c 128,-1,28
 190 621 190 621 173 584 c 128,-1,29
 156 547 156 547 146.5 491 c 128,-1,30
 137 435 137 435 137 359 c 0,31,32
 137 275 137 275 146.5 217.5 c 128,-1,33
 156 160 156 160 173 124 c 128,-1,34
 190 88 190 88 213 72 c 128,-1,35
 236 56 236 56 263 56 c 0,16,17
263 312 m 0,36,37
 243 312 243 312 229 325.5 c 128,-1,38
 215 339 215 339 215 359 c 0,39,40
 215 380 215 380 229 393 c 128,-1,41
 243 406 243 406 263 406 c 0,42,43
 282 406 282 406 296 393 c 128,-1,44
 310 380 310 380 310 359 c 0,45,46
 310 339 310 339 296 325.5 c 128,-1,47
 282 312 282 312 263 312 c 0,36,37
EndSplineSet
Validated: 1
EndChar

StartChar: f_f
Encoding: 64256 64256 514
Width: 577
GlyphClass: 3
Flags: W
LayerCount: 2
Fore
SplineSet
381 0 m 1,0,-1
 381 419 l 1,1,-1
 178 419 l 1,2,-1
 178 0 l 1,3,-1
 96 0 l 1,4,-1
 96 419 l 1,5,-1
 30 419 l 1,6,-1
 30 481 l 1,7,-1
 96 486 l 1,8,-1
 96 550 l 2,9,10
 96 626 96 626 133.5 670 c 128,-1,11
 171 714 171 714 247 714 c 0,12,13
 271 714 271 714 294.5 709 c 128,-1,14
 318 704 318 704 336 696 c 1,15,-1
 319 634 l 1,16,17
 289 647 289 647 254 647 c 0,18,19
 218 647 218 647 198 621.5 c 128,-1,20
 178 596 178 596 178 548 c 2,21,-1
 178 486 l 1,22,-1
 381 486 l 1,23,-1
 381 563 l 2,24,25
 381 638 381 638 415.5 681 c 128,-1,26
 450 724 450 724 523 724 c 0,27,28
 546 724 546 724 566.5 719.5 c 128,-1,29
 587 715 587 715 604 708 c 1,30,-1
 586 645 l 1,31,32
 559 657 559 657 531 657 c 0,33,34
 463 657 463 657 463 563 c 2,35,-1
 463 486 l 1,36,-1
 566 486 l 1,37,-1
 566 419 l 1,38,-1
 463 419 l 1,39,-1
 463 0 l 1,40,-1
 381 0 l 1,0,-1
EndSplineSet
Validated: 1
Ligature2: "'liga' Standard Ligatures lookup 47 subtable" f f
EndChar

StartChar: f_t
Encoding: 1114116 -1 517
Width: 594
GlyphClass: 3
Flags: W
LayerCount: 2
Fore
SplineSet
96 0 m 1,0,-1
 96 419 l 1,1,-1
 30 419 l 1,2,-1
 30 481 l 1,3,-1
 96 486 l 1,4,-1
 96 563 l 2,5,6
 96 638 96 638 130.5 681 c 128,-1,7
 165 724 165 724 238 724 c 0,8,9
 261 724 261 724 281.5 719.5 c 128,-1,10
 302 715 302 715 319 708 c 1,11,-1
 301 645 l 1,12,13
 274 657 274 657 246 657 c 0,14,15
 178 657 178 657 178 563 c 2,16,-1
 178 486 l 1,17,-1
 356 486 l 1,18,-1
 366 622 l 1,19,-1
 434 622 l 1,20,-1
 434 486 l 1,21,-1
 566 486 l 1,22,-1
 566 419 l 1,23,-1
 434 419 l 1,24,-1
 434 149 l 2,25,26
 434 104 434 104 451 79.5 c 128,-1,27
 468 55 468 55 510 55 c 0,28,29
 523 55 523 55 538 59 c 128,-1,30
 553 63 553 63 565 68 c 1,31,-1
 581 6 l 1,32,33
 561 -1 561 -1 537.5 -6.5 c 128,-1,34
 514 -12 514 -12 491 -12 c 0,35,36
 452 -12 452 -12 425.5 0 c 128,-1,37
 399 12 399 12 382.5 33 c 128,-1,38
 366 54 366 54 359 84 c 128,-1,39
 352 114 352 114 352 150 c 2,40,-1
 352 419 l 1,41,-1
 178 419 l 1,42,-1
 178 0 l 1,43,-1
 96 0 l 1,0,-1
EndSplineSet
Validated: 1
Ligature2: "'liga' Standard Ligatures lookup 47 subtable" f t
EndChar

StartChar: f_f_t
Encoding: 1114117 -1 518
Width: 879
GlyphClass: 3
Flags: W
LayerCount: 2
Fore
SplineSet
96 0 m 1,0,-1
 96 419 l 1,1,-1
 30 419 l 1,2,-1
 30 481 l 1,3,-1
 96 486 l 1,4,-1
 96 550 l 2,5,6
 96 626 96 626 133.5 670 c 128,-1,7
 171 714 171 714 247 714 c 0,8,9
 271 714 271 714 294.5 709 c 128,-1,10
 318 704 318 704 336 696 c 1,11,-1
 319 634 l 1,12,13
 289 647 289 647 254 647 c 0,14,15
 218 647 218 647 198 621.5 c 128,-1,16
 178 596 178 596 178 548 c 2,17,-1
 178 486 l 1,18,-1
 381 486 l 1,19,-1
 381 563 l 2,20,21
 381 638 381 638 415.5 681 c 128,-1,22
 450 724 450 724 523 724 c 0,23,24
 546 724 546 724 566.5 719.5 c 128,-1,25
 587 715 587 715 604 708 c 1,26,-1
 586 645 l 1,27,28
 559 657 559 657 531 657 c 0,29,30
 463 657 463 657 463 563 c 2,31,-1
 463 486 l 1,32,-1
 641 486 l 1,33,-1
 651 622 l 1,34,-1
 719 622 l 1,35,-1
 719 486 l 1,36,-1
 851 486 l 1,37,-1
 851 419 l 1,38,-1
 719 419 l 1,39,-1
 719 149 l 2,40,41
 719 104 719 104 736 79.5 c 128,-1,42
 753 55 753 55 795 55 c 0,43,44
 808 55 808 55 823 59 c 128,-1,45
 838 63 838 63 850 68 c 1,46,-1
 866 6 l 1,47,48
 846 -1 846 -1 822.5 -6.5 c 128,-1,49
 799 -12 799 -12 776 -12 c 0,50,51
 737 -12 737 -12 710.5 0 c 128,-1,52
 684 12 684 12 667.5 33 c 128,-1,53
 651 54 651 54 644 84 c 128,-1,54
 637 114 637 114 637 150 c 2,55,-1
 637 419 l 1,56,-1
 463 419 l 1,57,-1
 463 0 l 1,58,-1
 381 0 l 1,59,-1
 381 419 l 1,60,-1
 178 419 l 1,61,-1
 178 0 l 1,62,-1
 96 0 l 1,0,-1
EndSplineSet
Validated: 1
Ligature2: "'liga' Standard Ligatures lookup 47 subtable" f f t
EndChar

StartChar: I.a
Encoding: 1114118 -1 519
Width: 263
GlyphClass: 2
Flags: W
LayerCount: 2
Fore
SplineSet
90 0 m 5,0,-1
 90 656 l 5,1,-1
 173 656 l 5,2,-1
 173 0 l 5,3,-1
 90 0 l 5,0,-1
EndSplineSet
Validated: 1
EndChar

StartChar: Iogonek.a
Encoding: 1114129 -1 530
Width: 263
GlyphClass: 2
Flags: W
AnchorPoint: "Anchor-1" 133 678 basechar 0
LayerCount: 2
Fore
SplineSet
139 -212 m 0,0,1
 99 -212 99 -212 71 -190 c 128,-1,2
 43 -168 43 -168 43 -125 c 256,3,4
 43 -82 43 -82 64.5 -52 c 128,-1,5
 86 -22 86 -22 110 0 c 1,6,-1
 90 0 l 1,7,-1
 90 656 l 1,8,-1
 173 656 l 1,9,-1
 173 0 l 1,10,11
 142 -24 142 -24 125 -50 c 128,-1,12
 108 -76 108 -76 108 -107 c 0,13,14
 108 -130 108 -130 123 -141.5 c 128,-1,15
 138 -153 138 -153 155 -153 c 0,16,17
 177 -153 177 -153 196 -139 c 1,18,-1
 219 -184 l 1,19,20
 204 -195 204 -195 181.5 -203.5 c 128,-1,21
 159 -212 159 -212 139 -212 c 0,0,1
EndSplineSet
EndChar

StartChar: uni014A.a
Encoding: 1114131 -1 532
Width: 647
Flags: W
LayerCount: 2
Fore
SplineSet
425 -165 m 0,0,1
 403 -165 403 -165 385 -161.5 c 128,-1,2
 367 -158 367 -158 354 -153 c 1,3,-1
 370 -87 l 1,4,5
 380 -90 380 -90 391.5 -93 c 128,-1,6
 403 -96 403 -96 416 -96 c 0,7,8
 453 -96 453 -96 464.5 -70 c 128,-1,9
 476 -44 476 -44 476 0 c 1,10,-1
 471 0 l 1,11,-1
 233 413 l 1,12,-1
 162 548 l 1,13,-1
 158 548 l 1,14,15
 162 498 162 498 165.5 446.5 c 128,-1,16
 169 395 169 395 169 343 c 2,17,-1
 169 0 l 1,18,-1
 90 0 l 1,19,-1
 90 656 l 1,20,-1
 176 656 l 1,21,-1
 413 244 l 1,22,-1
 484 108 l 1,23,-1
 488 108 l 1,24,25
 485 158 485 158 481.5 211.5 c 128,-1,26
 478 265 478 265 478 317 c 2,27,-1
 478 656 l 1,28,-1
 557 656 l 1,29,-1
 557 -3 l 2,30,31
 557 -78 557 -78 526.5 -121.5 c 128,-1,32
 496 -165 496 -165 425 -165 c 0,0,1
EndSplineSet
Validated: 1
EndChar

StartChar: aogonek.a
Encoding: 1114154 -1 555
Width: 555
GlyphClass: 2
Flags: W
AnchorPoint: "Anchor-0" 282 509 basechar 0
LayerCount: 2
Fore
SplineSet
416 -206 m 0,0,1
 378 -206 378 -206 351.5 -184.5 c 128,-1,2
 325 -163 325 -163 325 -121 c 0,3,4
 325 -80 325 -80 349 -49.5 c 128,-1,5
 373 -19 373 -19 405 4 c 1,6,-1
 398 57 l 1,7,-1
 395 57 l 1,8,9
 366 29 366 29 328.5 8.5 c 128,-1,10
 291 -12 291 -12 248 -12 c 0,11,12
 156 -12 156 -12 101.5 54 c 128,-1,13
 47 120 47 120 47 242 c 0,14,15
 47 301 47 301 64.5 348.5 c 128,-1,16
 82 396 82 396 111.5 429 c 128,-1,17
 141 462 141 462 179 480 c 128,-1,18
 217 498 217 498 259 498 c 0,19,20
 300 498 300 498 332 483 c 128,-1,21
 364 468 364 468 397 439 c 1,22,-1
 399 439 l 1,23,-1
 406 486 l 1,24,-1
 473 486 l 1,25,-1
 473 0 l 1,26,27
 428 -22 428 -22 407 -49 c 128,-1,28
 386 -76 386 -76 386 -105 c 0,29,30
 386 -128 386 -128 400 -139.5 c 128,-1,31
 414 -151 414 -151 432 -151 c 0,32,33
 444 -151 444 -151 454 -147.5 c 128,-1,34
 464 -144 464 -144 473 -138 c 1,35,-1
 494 -179 l 1,36,37
 480 -190 480 -190 457.5 -198 c 128,-1,38
 435 -206 435 -206 416 -206 c 0,0,1
266 57 m 0,39,40
 300 57 300 57 330 73.5 c 128,-1,41
 360 90 360 90 390 124 c 1,42,-1
 390 378 l 1,43,44
 359 406 359 406 330.5 417.5 c 128,-1,45
 302 429 302 429 272 429 c 0,46,47
 243 429 243 429 217.5 415.5 c 128,-1,48
 192 402 192 402 173 377.5 c 128,-1,49
 154 353 154 353 143 319 c 128,-1,50
 132 285 132 285 132 243 c 0,51,52
 132 155 132 155 167 106 c 128,-1,53
 202 57 202 57 266 57 c 0,39,40
EndSplineSet
Validated: 1
EndChar

